<?xml version="1.0" encoding="UTF-8" standalone="no"?>
<!DOCTYPE svg PUBLIC "-//W3C//DTD SVG 1.1//EN"
 "http://www.w3.org/Graphics/SVG/1.1/DTD/svg11.dtd">
<!-- Generated by graphviz version 2.40.1 (20161225.0304)
 -->
<!-- Title: AbstractMultiFunc Pages: 1 -->
<svg width="190pt" height="196pt"
 viewBox="0.00 0.00 190.00 196.00" xmlns="http://www.w3.org/2000/svg" xmlns:xlink="http://www.w3.org/1999/xlink">
<g id="graph0" class="graph" transform="scale(1 1) rotate(0) translate(4 192)">
<title>AbstractMultiFunc</title>
<polygon fill="#ffffff" stroke="transparent" points="-4,4 -4,-192 186,-192 186,4 -4,4"/>
<!-- Node0 -->
<g id="node1" class="node">
<title>Node0</title>
<polygon fill="#bfbfbf" stroke="#000000" points="39,-56.5 39,-75.5 135,-75.5 135,-56.5 39,-56.5"/>
<text text-anchor="middle" x="87" y="-63.5" font-family="Helvetica,sans-Serif" font-size="10.00" fill="#000000">AbstractMultiFunc</text>
</g>
<!-- Node3 -->
<g id="node4" class="node">
<title>Node3</title>
<g id="a_node4"><a xlink:href="classPlus.html" target="_top" xlink:title="Handles a sum, function of multiple arguments. ">
<polygon fill="#ffffff" stroke="#000000" points="0,-.5 0,-19.5 36,-19.5 36,-.5 0,-.5"/>
<text text-anchor="middle" x="18" y="-7.5" font-family="Helvetica,sans-Serif" font-size="10.00" fill="#000000">Plus</text>
</a>
</g>
</g>
<!-- Node0&#45;&gt;Node3 -->
<g id="edge3" class="edge">
<title>Node0&#45;&gt;Node3</title>
<path fill="none" stroke="#191970" d="M67.197,-49.928C55.1364,-40.1397 40.1286,-27.9595 29.8812,-19.6427"/>
<polygon fill="#191970" stroke="#191970" points="65.0109,-52.6614 74.9811,-56.2455 69.4221,-47.2262 65.0109,-52.6614"/>
</g>
<!-- Node4 -->
<g id="node5" class="node">
<title>Node4</title>
<g id="a_node5"><a xlink:href="classPolynomial.html" target="_top" xlink:title="Handles a polynomial, function of multiple arguments. ">
<polygon fill="#ffffff" stroke="#000000" points="54.5,-.5 54.5,-19.5 119.5,-19.5 119.5,-.5 54.5,-.5"/>
<text text-anchor="middle" x="87" y="-7.5" font-family="Helvetica,sans-Serif" font-size="10.00" fill="#000000">Polynomial</text>
</a>
</g>
</g>
<!-- Node0&#45;&gt;Node4 -->
<g id="edge4" class="edge">
<title>Node0&#45;&gt;Node4</title>
<path fill="none" stroke="#191970" d="M87,-46.1575C87,-37.155 87,-26.9199 87,-19.6427"/>
<polygon fill="#191970" stroke="#191970" points="83.5001,-46.2455 87,-56.2455 90.5001,-46.2456 83.5001,-46.2455"/>
</g>
<!-- Node5 -->
<g id="node6" class="node">
<title>Node5</title>
<g id="a_node6"><a xlink:href="classTimes.html" target="_top" xlink:title="Handles a product, function of multiple arguments. ">
<polygon fill="#ffffff" stroke="#000000" points="138,-.5 138,-19.5 182,-19.5 182,-.5 138,-.5"/>
<text text-anchor="middle" x="160" y="-7.5" font-family="Helvetica,sans-Serif" font-size="10.00" fill="#000000">Times</text>
</a>
</g>
</g>
<!-- Node0&#45;&gt;Node5 -->
<g id="edge5" class="edge">
<title>Node0&#45;&gt;Node5</title>
<path fill="none" stroke="#191970" d="M107.951,-49.928C120.7107,-40.1397 136.5885,-27.9595 147.4301,-19.6427"/>
<polygon fill="#191970" stroke="#191970" points="105.5196,-47.3819 99.7156,-56.2455 109.7803,-52.9359 105.5196,-47.3819"/>
</g>
<!-- Node1 -->
<g id="node2" class="node">
<title>Node1</title>
<g id="a_node2"><a xlink:href="classAbstractScalar.html" target="_top" xlink:title="Abstract class concerning all scalars (dim = 0). Allows to implement one time getDim() = 0 for all sc...">
<polygon fill="#ffffff" stroke="#000000" points="46.5,-112.5 46.5,-131.5 127.5,-131.5 127.5,-112.5 46.5,-112.5"/>
<text text-anchor="middle" x="87" y="-119.5" font-family="Helvetica,sans-Serif" font-size="10.00" fill="#000000">AbstractScalar</text>
</a>
</g>
</g>
<!-- Node1&#45;&gt;Node0 -->
<g id="edge1" class="edge">
<title>Node1&#45;&gt;Node0</title>
<path fill="none" stroke="#191970" d="M87,-102.1575C87,-93.155 87,-82.9199 87,-75.6427"/>
<polygon fill="#191970" stroke="#191970" points="83.5001,-102.2455 87,-112.2455 90.5001,-102.2456 83.5001,-102.2455"/>
</g>
<!-- Node2 -->
<g id="node3" class="node">
<title>Node2</title>
<g id="a_node3"><a xlink:href="classAbstract.html" target="_top" xlink:title="Root class of the inheritance tree of abstracts. ">
<polygon fill="#ffffff" stroke="#000000" points="60.5,-168.5 60.5,-187.5 113.5,-187.5 113.5,-168.5 60.5,-168.5"/>
<text text-anchor="middle" x="87" y="-175.5" font-family="Helvetica,sans-Serif" font-size="10.00" fill="#000000">Abstract</text>
</a>
</g>
</g>
<!-- Node2&#45;&gt;Node1 -->
<g id="edge2" class="edge">
<title>Node2&#45;&gt;Node1</title>
<path fill="none" stroke="#191970" d="M87,-158.1575C87,-149.155 87,-138.9199 87,-131.6427"/>
<polygon fill="#191970" stroke="#191970" points="83.5001,-158.2455 87,-168.2455 90.5001,-158.2456 83.5001,-158.2455"/>
</g>
</g>
</svg>
