<?xml version="1.0" encoding="UTF-8" standalone="no"?>
<!DOCTYPE svg PUBLIC "-//W3C//DTD SVG 1.1//EN"
 "http://www.w3.org/Graphics/SVG/1.1/DTD/svg11.dtd">
<!-- Generated by graphviz version 2.40.1 (20161225.0304)
 -->
<!-- Title: AbstractMultiFunc Pages: 1 -->
<svg width="192pt" height="252pt"
 viewBox="0.00 0.00 191.50 252.00" xmlns="http://www.w3.org/2000/svg" xmlns:xlink="http://www.w3.org/1999/xlink">
<g id="graph0" class="graph" transform="scale(1 1) rotate(0) translate(4 248)">
<title>AbstractMultiFunc</title>
<polygon fill="#ffffff" stroke="transparent" points="-4,4 -4,-248 187.5,-248 187.5,4 -4,4"/>
<!-- Node0 -->
<g id="node1" class="node">
<title>Node0</title>
<polygon fill="#bfbfbf" stroke="#000000" points="39,-112.5 39,-131.5 135,-131.5 135,-112.5 39,-112.5"/>
<text text-anchor="middle" x="87" y="-119.5" font-family="Helvetica,sans-Serif" font-size="10.00" fill="#000000">AbstractMultiFunc</text>
</g>
<!-- Node3 -->
<g id="node4" class="node">
<title>Node3</title>
<g id="a_node4"><a xlink:href="classPlus.html" target="_top" xlink:title="Handles a sum, function of multiple arguments. ">
<polygon fill="#ffffff" stroke="#000000" points="0,-56.5 0,-75.5 36,-75.5 36,-56.5 0,-56.5"/>
<text text-anchor="middle" x="18" y="-63.5" font-family="Helvetica,sans-Serif" font-size="10.00" fill="#000000">Plus</text>
</a>
</g>
</g>
<!-- Node0&#45;&gt;Node3 -->
<g id="edge3" class="edge">
<title>Node0&#45;&gt;Node3</title>
<path fill="none" stroke="#191970" d="M67.197,-105.928C55.1364,-96.1397 40.1286,-83.9595 29.8812,-75.6427"/>
<polygon fill="#191970" stroke="#191970" points="65.0109,-108.6614 74.9811,-112.2455 69.4221,-103.2262 65.0109,-108.6614"/>
</g>
<!-- Node4 -->
<g id="node5" class="node">
<title>Node4</title>
<g id="a_node5"><a xlink:href="classPolynomial.html" target="_top" xlink:title="Handles a polynomial, function of multiple arguments. ">
<polygon fill="#ffffff" stroke="#000000" points="54.5,-56.5 54.5,-75.5 119.5,-75.5 119.5,-56.5 54.5,-56.5"/>
<text text-anchor="middle" x="87" y="-63.5" font-family="Helvetica,sans-Serif" font-size="10.00" fill="#000000">Polynomial</text>
</a>
</g>
</g>
<!-- Node0&#45;&gt;Node4 -->
<g id="edge4" class="edge">
<title>Node0&#45;&gt;Node4</title>
<path fill="none" stroke="#191970" d="M87,-102.1575C87,-93.155 87,-82.9199 87,-75.6427"/>
<polygon fill="#191970" stroke="#191970" points="83.5001,-102.2455 87,-112.2455 90.5001,-102.2456 83.5001,-102.2455"/>
</g>
<!-- Node5 -->
<g id="node6" class="node">
<title>Node5</title>
<g id="a_node6"><a xlink:href="classTimes.html" target="_top" xlink:title="Handles a product, function of multiple arguments. ">
<polygon fill="#ffffff" stroke="#000000" points="138,-56.5 138,-75.5 182,-75.5 182,-56.5 138,-56.5"/>
<text text-anchor="middle" x="160" y="-63.5" font-family="Helvetica,sans-Serif" font-size="10.00" fill="#000000">Times</text>
</a>
</g>
</g>
<!-- Node0&#45;&gt;Node5 -->
<g id="edge5" class="edge">
<title>Node0&#45;&gt;Node5</title>
<path fill="none" stroke="#191970" d="M107.951,-105.928C120.7107,-96.1397 136.5885,-83.9595 147.4301,-75.6427"/>
<polygon fill="#191970" stroke="#191970" points="105.5196,-103.3819 99.7156,-112.2455 109.7803,-108.9359 105.5196,-103.3819"/>
</g>
<!-- Node1 -->
<g id="node2" class="node">
<title>Node1</title>
<g id="a_node2"><a xlink:href="classAbstractScalar.html" target="_top" xlink:title="Abstract class concerning all scalars (dim = 0). Allows to implement one time getDim() = 0 for all sc...">
<polygon fill="#ffffff" stroke="#000000" points="46.5,-168.5 46.5,-187.5 127.5,-187.5 127.5,-168.5 46.5,-168.5"/>
<text text-anchor="middle" x="87" y="-175.5" font-family="Helvetica,sans-Serif" font-size="10.00" fill="#000000">AbstractScalar</text>
</a>
</g>
</g>
<!-- Node1&#45;&gt;Node0 -->
<g id="edge1" class="edge">
<title>Node1&#45;&gt;Node0</title>
<path fill="none" stroke="#191970" d="M87,-158.1575C87,-149.155 87,-138.9199 87,-131.6427"/>
<polygon fill="#191970" stroke="#191970" points="83.5001,-158.2455 87,-168.2455 90.5001,-158.2456 83.5001,-158.2455"/>
</g>
<!-- Node2 -->
<g id="node3" class="node">
<title>Node2</title>
<g id="a_node3"><a xlink:href="classAbstract.html" target="_top" xlink:title="Root class of the inheritance tree of abstracts. ">
<polygon fill="#ffffff" stroke="#000000" points="60.5,-224.5 60.5,-243.5 113.5,-243.5 113.5,-224.5 60.5,-224.5"/>
<text text-anchor="middle" x="87" y="-231.5" font-family="Helvetica,sans-Serif" font-size="10.00" fill="#000000">Abstract</text>
</a>
</g>
</g>
<!-- Node2&#45;&gt;Node1 -->
<g id="edge2" class="edge">
<title>Node2&#45;&gt;Node1</title>
<path fill="none" stroke="#191970" d="M87,-214.1575C87,-205.155 87,-194.9199 87,-187.6427"/>
<polygon fill="#191970" stroke="#191970" points="83.5001,-214.2455 87,-224.2455 90.5001,-214.2456 83.5001,-214.2455"/>
</g>
<!-- Node6 -->
<g id="node7" class="node">
<title>Node6</title>
<g id="a_node7"><a xlink:href="classITimes.html" target="_top" xlink:title="ITimes">
<polygon fill="#ffffff" stroke="#000000" points="136.5,-.5 136.5,-19.5 183.5,-19.5 183.5,-.5 136.5,-.5"/>
<text text-anchor="middle" x="160" y="-7.5" font-family="Helvetica,sans-Serif" font-size="10.00" fill="#000000">ITimes</text>
</a>
</g>
</g>
<!-- Node5&#45;&gt;Node6 -->
<g id="edge6" class="edge">
<title>Node5&#45;&gt;Node6</title>
<path fill="none" stroke="#191970" d="M160,-46.1575C160,-37.155 160,-26.9199 160,-19.6427"/>
<polygon fill="#191970" stroke="#191970" points="156.5001,-46.2455 160,-56.2455 163.5001,-46.2456 156.5001,-46.2455"/>
</g>
</g>
</svg>
