<?xml version="1.0" encoding="UTF-8" standalone="no"?>
<!DOCTYPE svg PUBLIC "-//W3C//DTD SVG 1.1//EN"
 "http://www.w3.org/Graphics/SVG/1.1/DTD/svg11.dtd">
<!-- Generated by graphviz version 2.40.1 (20161225.0304)
 -->
<!-- Title: AbstractLiteral Pages: 1 -->
<svg width="364pt" height="263pt"
 viewBox="0.00 0.00 363.50 263.00" xmlns="http://www.w3.org/2000/svg" xmlns:xlink="http://www.w3.org/1999/xlink">
<g id="graph0" class="graph" transform="scale(1 1) rotate(0) translate(4 259)">
<title>AbstractLiteral</title>
<polygon fill="#ffffff" stroke="transparent" points="-4,4 -4,-259 359.5,-259 359.5,4 -4,4"/>
<!-- Node0 -->
<g id="node1" class="node">
<title>Node0</title>
<polygon fill="#bfbfbf" stroke="#000000" points="139.5,-56.5 139.5,-75.5 219.5,-75.5 219.5,-56.5 139.5,-56.5"/>
<text text-anchor="middle" x="179.5" y="-63.5" font-family="Helvetica,sans-Serif" font-size="10.00" fill="#000000">AbstractLiteral</text>
</g>
<!-- Node5 -->
<g id="node6" class="node">
<title>Node5</title>
<g id="a_node6"><a xlink:href="classArbitrary.html" target="_top" xlink:title="Arbitrary">
<polygon fill="#ffffff" stroke="#000000" points="0,-.5 0,-19.5 53,-19.5 53,-.5 0,-.5"/>
<text text-anchor="middle" x="26.5" y="-7.5" font-family="Helvetica,sans-Serif" font-size="10.00" fill="#000000">Arbitrary</text>
</a>
</g>
</g>
<!-- Node0&#45;&gt;Node5 -->
<g id="edge5" class="edge">
<title>Node0&#45;&gt;Node5</title>
<path fill="none" stroke="#191970" d="M143.7721,-52.9231C115.8029,-42.686 77.5607,-28.6889 52.4584,-19.5011"/>
<polygon fill="#191970" stroke="#191970" points="142.6046,-56.2228 153.1984,-56.3733 145.0106,-49.6493 142.6046,-56.2228"/>
</g>
<!-- Node6 -->
<g id="node7" class="node">
<title>Node6</title>
<g id="a_node7"><a xlink:href="classCFactorial.html" target="_top" xlink:title="Handles factorial of a Number. ">
<polygon fill="#ffffff" stroke="#000000" points="71.5,-.5 71.5,-19.5 133.5,-19.5 133.5,-.5 71.5,-.5"/>
<text text-anchor="middle" x="102.5" y="-7.5" font-family="Helvetica,sans-Serif" font-size="10.00" fill="#000000">CFactorial</text>
</a>
</g>
</g>
<!-- Node0&#45;&gt;Node6 -->
<g id="edge6" class="edge">
<title>Node0&#45;&gt;Node6</title>
<path fill="none" stroke="#191970" d="M157.7884,-50.2097C144.2647,-40.3743 127.3042,-28.0394 115.7587,-19.6427"/>
<polygon fill="#191970" stroke="#191970" points="155.9416,-53.1944 166.0876,-56.2455 160.0589,-47.5332 155.9416,-53.1944"/>
</g>
<!-- Node7 -->
<g id="node8" class="node">
<title>Node7</title>
<g id="a_node8"><a xlink:href="classConstant.html" target="_top" xlink:title="Handle an object with a name and a value. ">
<polygon fill="#ffffff" stroke="#000000" points="151.5,-.5 151.5,-19.5 207.5,-19.5 207.5,-.5 151.5,-.5"/>
<text text-anchor="middle" x="179.5" y="-7.5" font-family="Helvetica,sans-Serif" font-size="10.00" fill="#000000">Constant</text>
</a>
</g>
</g>
<!-- Node0&#45;&gt;Node7 -->
<g id="edge7" class="edge">
<title>Node0&#45;&gt;Node7</title>
<path fill="none" stroke="#191970" d="M179.5,-46.1575C179.5,-37.155 179.5,-26.9199 179.5,-19.6427"/>
<polygon fill="#191970" stroke="#191970" points="176.0001,-46.2455 179.5,-56.2455 183.0001,-46.2456 176.0001,-46.2455"/>
</g>
<!-- Node8 -->
<g id="node9" class="node">
<title>Node8</title>
<g id="a_node9"><a xlink:href="classImaginary.html" target="_top" xlink:title="Numerical representation of i. ">
<polygon fill="#ffffff" stroke="#000000" points="226,-.5 226,-19.5 285,-19.5 285,-.5 226,-.5"/>
<text text-anchor="middle" x="255.5" y="-7.5" font-family="Helvetica,sans-Serif" font-size="10.00" fill="#000000">Imaginary</text>
</a>
</g>
</g>
<!-- Node0&#45;&gt;Node8 -->
<g id="edge8" class="edge">
<title>Node0&#45;&gt;Node8</title>
<path fill="none" stroke="#191970" d="M200.9297,-50.2097C214.2777,-40.3743 231.0179,-28.0394 242.4135,-19.6427"/>
<polygon fill="#191970" stroke="#191970" points="198.7126,-47.4958 192.7382,-56.2455 202.865,-53.1312 198.7126,-47.4958"/>
</g>
<!-- Node9 -->
<g id="node10" class="node">
<title>Node9</title>
<g id="a_node10"><a xlink:href="classVariable.html" target="_top" xlink:title="Handle an object with a name and a value. ">
<polygon fill="#ffffff" stroke="#000000" points="303.5,-.5 303.5,-19.5 355.5,-19.5 355.5,-.5 303.5,-.5"/>
<text text-anchor="middle" x="329.5" y="-7.5" font-family="Helvetica,sans-Serif" font-size="10.00" fill="#000000">Variable</text>
</a>
</g>
</g>
<!-- Node0&#45;&gt;Node9 -->
<g id="edge9" class="edge">
<title>Node0&#45;&gt;Node9</title>
<path fill="none" stroke="#191970" d="M214.8871,-52.7888C242.2753,-42.5639 279.5479,-28.6488 304.0506,-19.5011"/>
<polygon fill="#191970" stroke="#191970" points="213.4302,-49.5967 205.2859,-56.3733 215.8785,-56.1546 213.4302,-49.5967"/>
</g>
<!-- Node1 -->
<g id="node2" class="node">
<title>Node1</title>
<g id="a_node2"><a xlink:href="classAbstractBuildingBlock.html" target="_top" xlink:title="Abstract class from which derive all building blocks of exprs, i.e. objects not function of further e...">
<polygon fill="#ffffff" stroke="#000000" points="123,-112.5 123,-131.5 236,-131.5 236,-112.5 123,-112.5"/>
<text text-anchor="middle" x="179.5" y="-119.5" font-family="Helvetica,sans-Serif" font-size="10.00" fill="#000000">AbstractBuildingBlock</text>
</a>
</g>
</g>
<!-- Node1&#45;&gt;Node0 -->
<g id="edge1" class="edge">
<title>Node1&#45;&gt;Node0</title>
<path fill="none" stroke="#191970" d="M179.5,-102.1575C179.5,-93.155 179.5,-82.9199 179.5,-75.6427"/>
<polygon fill="#191970" stroke="#191970" points="176.0001,-102.2455 179.5,-112.2455 183.0001,-102.2456 176.0001,-102.2455"/>
</g>
<!-- Node2 -->
<g id="node3" class="node">
<title>Node2</title>
<g id="a_node3"><a xlink:href="classAbstractScalar.html" target="_top" xlink:title="Abstract class concerning all scalars (dim = 0). Allows to implement one time getDim() = 0 for all sc...">
<polygon fill="#ffffff" stroke="#000000" points="84,-174 84,-193 165,-193 165,-174 84,-174"/>
<text text-anchor="middle" x="124.5" y="-181" font-family="Helvetica,sans-Serif" font-size="10.00" fill="#000000">AbstractScalar</text>
</a>
</g>
</g>
<!-- Node2&#45;&gt;Node1 -->
<g id="edge2" class="edge">
<title>Node2&#45;&gt;Node1</title>
<path fill="none" stroke="#191970" d="M139.792,-166.4007C149.785,-155.2268 162.4763,-141.0356 170.7851,-131.7449"/>
<polygon fill="#191970" stroke="#191970" points="137.1511,-164.1034 133.0938,-173.8906 142.3689,-168.7698 137.1511,-164.1034"/>
</g>
<!-- Node3 -->
<g id="node4" class="node">
<title>Node3</title>
<g id="a_node4"><a xlink:href="classAbstract.html" target="_top" xlink:title="Root class of the inheritance tree of abstracts. ">
<polygon fill="#ffffff" stroke="#000000" points="98,-235.5 98,-254.5 151,-254.5 151,-235.5 98,-235.5"/>
<text text-anchor="middle" x="124.5" y="-242.5" font-family="Helvetica,sans-Serif" font-size="10.00" fill="#000000">Abstract</text>
</a>
</g>
</g>
<!-- Node3&#45;&gt;Node2 -->
<g id="edge3" class="edge">
<title>Node3&#45;&gt;Node2</title>
<path fill="none" stroke="#191970" d="M124.5,-225.2462C124.5,-214.5519 124.5,-201.814 124.5,-193.2449"/>
<polygon fill="#191970" stroke="#191970" points="121.0001,-225.3906 124.5,-235.3906 128.0001,-225.3907 121.0001,-225.3906"/>
</g>
<!-- Node4 -->
<g id="node5" class="node">
<title>Node4</title>
<polygon fill="#ffffff" stroke="#bfbfbf" points="183.5,-168.5 183.5,-198.5 287.5,-198.5 287.5,-168.5 183.5,-168.5"/>
<text text-anchor="start" x="191.5" y="-186.5" font-family="Helvetica,sans-Serif" font-size="10.00" fill="#000000">enable_shared_from</text>
<text text-anchor="middle" x="235.5" y="-175.5" font-family="Helvetica,sans-Serif" font-size="10.00" fill="#000000">_this&lt; Abstract &gt;</text>
</g>
<!-- Node4&#45;&gt;Node1 -->
<g id="edge4" class="edge">
<title>Node4&#45;&gt;Node1</title>
<path fill="none" stroke="#191970" d="M214.7089,-160.6669C205.6578,-150.7269 195.5284,-139.6026 188.4663,-131.8469"/>
<polygon fill="#191970" stroke="#191970" points="212.3367,-163.2602 221.6573,-168.2977 217.5125,-158.5473 212.3367,-163.2602"/>
</g>
</g>
</svg>
