<?xml version="1.0" encoding="UTF-8" standalone="no"?>
<!DOCTYPE svg PUBLIC "-//W3C//DTD SVG 1.1//EN"
 "http://www.w3.org/Graphics/SVG/1.1/DTD/svg11.dtd">
<!-- Generated by graphviz version 2.40.1 (20161225.0304)
 -->
<!-- Title: AbstractLiteral Pages: 1 -->
<svg width="292pt" height="263pt"
 viewBox="0.00 0.00 292.00 263.00" xmlns="http://www.w3.org/2000/svg" xmlns:xlink="http://www.w3.org/1999/xlink">
<g id="graph0" class="graph" transform="scale(1 1) rotate(0) translate(4 259)">
<title>AbstractLiteral</title>
<polygon fill="#ffffff" stroke="transparent" points="-4,4 -4,-259 288,-259 288,4 -4,4"/>
<!-- Node0 -->
<g id="node1" class="node">
<title>Node0</title>
<polygon fill="#bfbfbf" stroke="#000000" points="106,-56.5 106,-75.5 186,-75.5 186,-56.5 106,-56.5"/>
<text text-anchor="middle" x="146" y="-63.5" font-family="Helvetica,sans-Serif" font-size="10.00" fill="#000000">AbstractLiteral</text>
</g>
<!-- Node5 -->
<g id="node6" class="node">
<title>Node5</title>
<g id="a_node6"><a xlink:href="classCFactorial.html" target="_top" xlink:title="Handles factorial of a Number. ">
<polygon fill="#ffffff" stroke="#000000" points="0,-.5 0,-19.5 62,-19.5 62,-.5 0,-.5"/>
<text text-anchor="middle" x="31" y="-7.5" font-family="Helvetica,sans-Serif" font-size="10.00" fill="#000000">CFactorial</text>
</a>
</g>
</g>
<!-- Node0&#45;&gt;Node5 -->
<g id="edge5" class="edge">
<title>Node0&#45;&gt;Node5</title>
<path fill="none" stroke="#191970" d="M117.1967,-51.9741C96.375,-41.8348 68.8022,-28.408 50.5112,-19.5011"/>
<polygon fill="#191970" stroke="#191970" points="115.7078,-55.1419 126.2308,-56.3733 118.7724,-48.8484 115.7078,-55.1419"/>
</g>
<!-- Node6 -->
<g id="node7" class="node">
<title>Node6</title>
<g id="a_node7"><a xlink:href="classConstant.html" target="_top" xlink:title="Handle an object with a name and a value. ">
<polygon fill="#ffffff" stroke="#000000" points="80,-.5 80,-19.5 136,-19.5 136,-.5 80,-.5"/>
<text text-anchor="middle" x="108" y="-7.5" font-family="Helvetica,sans-Serif" font-size="10.00" fill="#000000">Constant</text>
</a>
</g>
</g>
<!-- Node0&#45;&gt;Node6 -->
<g id="edge6" class="edge">
<title>Node0&#45;&gt;Node6</title>
<path fill="none" stroke="#191970" d="M133.7321,-47.9209C127.3512,-38.5176 119.8069,-27.3997 114.5432,-19.6427"/>
<polygon fill="#191970" stroke="#191970" points="130.8697,-49.936 139.3809,-56.2455 136.662,-46.0055 130.8697,-49.936"/>
</g>
<!-- Node7 -->
<g id="node8" class="node">
<title>Node7</title>
<g id="a_node8"><a xlink:href="classImaginary.html" target="_top" xlink:title="Numerical representation of i. ">
<polygon fill="#ffffff" stroke="#000000" points="154.5,-.5 154.5,-19.5 213.5,-19.5 213.5,-.5 154.5,-.5"/>
<text text-anchor="middle" x="184" y="-7.5" font-family="Helvetica,sans-Serif" font-size="10.00" fill="#000000">Imaginary</text>
</a>
</g>
</g>
<!-- Node0&#45;&gt;Node7 -->
<g id="edge7" class="edge">
<title>Node0&#45;&gt;Node7</title>
<path fill="none" stroke="#191970" d="M158.2679,-47.9209C164.6488,-38.5176 172.1931,-27.3997 177.4568,-19.6427"/>
<polygon fill="#191970" stroke="#191970" points="155.338,-46.0055 152.6191,-56.2455 161.1303,-49.936 155.338,-46.0055"/>
</g>
<!-- Node8 -->
<g id="node9" class="node">
<title>Node8</title>
<g id="a_node9"><a xlink:href="classVariable.html" target="_top" xlink:title="Handle an object with a name and a value. ">
<polygon fill="#ffffff" stroke="#000000" points="232,-.5 232,-19.5 284,-19.5 284,-.5 232,-.5"/>
<text text-anchor="middle" x="258" y="-7.5" font-family="Helvetica,sans-Serif" font-size="10.00" fill="#000000">Variable</text>
</a>
</g>
</g>
<!-- Node0&#45;&gt;Node8 -->
<g id="edge8" class="edge">
<title>Node0&#45;&gt;Node8</title>
<path fill="none" stroke="#191970" d="M174.3263,-51.8368C194.5721,-41.7139 221.2642,-28.3679 238.9978,-19.5011"/>
<polygon fill="#191970" stroke="#191970" points="172.6325,-48.7706 165.2535,-56.3733 175.763,-55.0316 172.6325,-48.7706"/>
</g>
<!-- Node1 -->
<g id="node2" class="node">
<title>Node1</title>
<g id="a_node2"><a xlink:href="classAbstractBuildingBlock.html" target="_top" xlink:title="Abstract class from which derive all building blocks of exprs, i.e. objects not function of further e...">
<polygon fill="#ffffff" stroke="#000000" points="89.5,-112.5 89.5,-131.5 202.5,-131.5 202.5,-112.5 89.5,-112.5"/>
<text text-anchor="middle" x="146" y="-119.5" font-family="Helvetica,sans-Serif" font-size="10.00" fill="#000000">AbstractBuildingBlock</text>
</a>
</g>
</g>
<!-- Node1&#45;&gt;Node0 -->
<g id="edge1" class="edge">
<title>Node1&#45;&gt;Node0</title>
<path fill="none" stroke="#191970" d="M146,-102.1575C146,-93.155 146,-82.9199 146,-75.6427"/>
<polygon fill="#191970" stroke="#191970" points="142.5001,-102.2455 146,-112.2455 149.5001,-102.2456 142.5001,-102.2455"/>
</g>
<!-- Node2 -->
<g id="node3" class="node">
<title>Node2</title>
<g id="a_node3"><a xlink:href="classAbstractScalar.html" target="_top" xlink:title="Abstract class concerning all scalars (dim = 0). Allows to implement one time getDim() = 0 for all sc...">
<polygon fill="#ffffff" stroke="#000000" points="50.5,-174 50.5,-193 131.5,-193 131.5,-174 50.5,-174"/>
<text text-anchor="middle" x="91" y="-181" font-family="Helvetica,sans-Serif" font-size="10.00" fill="#000000">AbstractScalar</text>
</a>
</g>
</g>
<!-- Node2&#45;&gt;Node1 -->
<g id="edge2" class="edge">
<title>Node2&#45;&gt;Node1</title>
<path fill="none" stroke="#191970" d="M106.292,-166.4007C116.285,-155.2268 128.9763,-141.0356 137.2851,-131.7449"/>
<polygon fill="#191970" stroke="#191970" points="103.6511,-164.1034 99.5938,-173.8906 108.8689,-168.7698 103.6511,-164.1034"/>
</g>
<!-- Node3 -->
<g id="node4" class="node">
<title>Node3</title>
<g id="a_node4"><a xlink:href="classAbstract.html" target="_top" xlink:title="Root class of the inheritance tree of abstracts. ">
<polygon fill="#ffffff" stroke="#000000" points="64.5,-235.5 64.5,-254.5 117.5,-254.5 117.5,-235.5 64.5,-235.5"/>
<text text-anchor="middle" x="91" y="-242.5" font-family="Helvetica,sans-Serif" font-size="10.00" fill="#000000">Abstract</text>
</a>
</g>
</g>
<!-- Node3&#45;&gt;Node2 -->
<g id="edge3" class="edge">
<title>Node3&#45;&gt;Node2</title>
<path fill="none" stroke="#191970" d="M91,-225.2462C91,-214.5519 91,-201.814 91,-193.2449"/>
<polygon fill="#191970" stroke="#191970" points="87.5001,-225.3906 91,-235.3906 94.5001,-225.3907 87.5001,-225.3906"/>
</g>
<!-- Node4 -->
<g id="node5" class="node">
<title>Node4</title>
<polygon fill="#ffffff" stroke="#bfbfbf" points="150,-168.5 150,-198.5 254,-198.5 254,-168.5 150,-168.5"/>
<text text-anchor="start" x="158" y="-186.5" font-family="Helvetica,sans-Serif" font-size="10.00" fill="#000000">enable_shared_from</text>
<text text-anchor="middle" x="202" y="-175.5" font-family="Helvetica,sans-Serif" font-size="10.00" fill="#000000">_this&lt; Abstract &gt;</text>
</g>
<!-- Node4&#45;&gt;Node1 -->
<g id="edge4" class="edge">
<title>Node4&#45;&gt;Node1</title>
<path fill="none" stroke="#191970" d="M181.2089,-160.6669C172.1578,-150.7269 162.0284,-139.6026 154.9663,-131.8469"/>
<polygon fill="#191970" stroke="#191970" points="178.8367,-163.2602 188.1573,-168.2977 184.0125,-158.5473 178.8367,-163.2602"/>
</g>
</g>
</svg>
