<?xml version="1.0" encoding="UTF-8" standalone="no"?>
<!DOCTYPE svg PUBLIC "-//W3C//DTD SVG 1.1//EN"
 "http://www.w3.org/Graphics/SVG/1.1/DTD/svg11.dtd">
<!-- Generated by graphviz version 2.40.1 (20161225.0304)
 -->
<!-- Title: AbstractIndicial Pages: 1 -->
<svg width="128pt" height="196pt"
 viewBox="0.00 0.00 127.50 196.00" xmlns="http://www.w3.org/2000/svg" xmlns:xlink="http://www.w3.org/1999/xlink">
<g id="graph0" class="graph" transform="scale(1 1) rotate(0) translate(4 192)">
<title>AbstractIndicial</title>
<polygon fill="#ffffff" stroke="transparent" points="-4,4 -4,-192 123.5,-192 123.5,4 -4,4"/>
<!-- Node0 -->
<g id="node1" class="node">
<title>Node0</title>
<polygon fill="#bfbfbf" stroke="#000000" points="17.5,-56.5 17.5,-75.5 101.5,-75.5 101.5,-56.5 17.5,-56.5"/>
<text text-anchor="middle" x="59.5" y="-63.5" font-family="Helvetica,sans-Serif" font-size="10.00" fill="#000000">AbstractIndicial</text>
</g>
<!-- Node3 -->
<g id="node4" class="node">
<title>Node3</title>
<g id="a_node4"><a xlink:href="classIndexed.html" target="_top" xlink:title="Indexed">
<polygon fill="#ffffff" stroke="#000000" points="0,-.5 0,-19.5 51,-19.5 51,-.5 0,-.5"/>
<text text-anchor="middle" x="25.5" y="-7.5" font-family="Helvetica,sans-Serif" font-size="10.00" fill="#000000">Indexed</text>
</a>
</g>
</g>
<!-- Node0&#45;&gt;Node3 -->
<g id="edge3" class="edge">
<title>Node0&#45;&gt;Node3</title>
<path fill="none" stroke="#191970" d="M48.3465,-47.6296C42.6753,-38.2887 36.0155,-27.3197 31.3545,-19.6427"/>
<polygon fill="#191970" stroke="#191970" points="45.3961,-49.5141 53.5777,-56.2455 51.3796,-45.8812 45.3961,-49.5141"/>
</g>
<!-- Node4 -->
<g id="node5" class="node">
<title>Node4</title>
<g id="a_node5"><a xlink:href="classITensor.html" target="_top" xlink:title="ITensor">
<polygon fill="#ffffff" stroke="#000000" points="69.5,-.5 69.5,-19.5 119.5,-19.5 119.5,-.5 69.5,-.5"/>
<text text-anchor="middle" x="94.5" y="-7.5" font-family="Helvetica,sans-Serif" font-size="10.00" fill="#000000">ITensor</text>
</a>
</g>
</g>
<!-- Node0&#45;&gt;Node4 -->
<g id="edge4" class="edge">
<title>Node0&#45;&gt;Node4</title>
<path fill="none" stroke="#191970" d="M70.9815,-47.6296C76.8196,-38.2887 83.6752,-27.3197 88.4733,-19.6427"/>
<polygon fill="#191970" stroke="#191970" points="67.9286,-45.9105 65.5965,-56.2455 73.8646,-49.6206 67.9286,-45.9105"/>
</g>
<!-- Node1 -->
<g id="node2" class="node">
<title>Node1</title>
<g id="a_node2"><a xlink:href="classAbstractScalar.html" target="_top" xlink:title="Abstract class concerning all scalars (dim = 0). Allows to implement one time getDim() = 0 for all sc...">
<polygon fill="#ffffff" stroke="#000000" points="19,-112.5 19,-131.5 100,-131.5 100,-112.5 19,-112.5"/>
<text text-anchor="middle" x="59.5" y="-119.5" font-family="Helvetica,sans-Serif" font-size="10.00" fill="#000000">AbstractScalar</text>
</a>
</g>
</g>
<!-- Node1&#45;&gt;Node0 -->
<g id="edge1" class="edge">
<title>Node1&#45;&gt;Node0</title>
<path fill="none" stroke="#191970" d="M59.5,-102.1575C59.5,-93.155 59.5,-82.9199 59.5,-75.6427"/>
<polygon fill="#191970" stroke="#191970" points="56.0001,-102.2455 59.5,-112.2455 63.0001,-102.2456 56.0001,-102.2455"/>
</g>
<!-- Node2 -->
<g id="node3" class="node">
<title>Node2</title>
<g id="a_node3"><a xlink:href="classAbstract.html" target="_top" xlink:title="Root class of the inheritance tree of abstracts. ">
<polygon fill="#ffffff" stroke="#000000" points="33,-168.5 33,-187.5 86,-187.5 86,-168.5 33,-168.5"/>
<text text-anchor="middle" x="59.5" y="-175.5" font-family="Helvetica,sans-Serif" font-size="10.00" fill="#000000">Abstract</text>
</a>
</g>
</g>
<!-- Node2&#45;&gt;Node1 -->
<g id="edge2" class="edge">
<title>Node2&#45;&gt;Node1</title>
<path fill="none" stroke="#191970" d="M59.5,-158.1575C59.5,-149.155 59.5,-138.9199 59.5,-131.6427"/>
<polygon fill="#191970" stroke="#191970" points="56.0001,-158.2455 59.5,-168.2455 63.0001,-158.2456 56.0001,-158.2455"/>
</g>
</g>
</svg>
