<?xml version="1.0" encoding="UTF-8" standalone="no"?>
<!DOCTYPE svg PUBLIC "-//W3C//DTD SVG 1.1//EN"
 "http://www.w3.org/Graphics/SVG/1.1/DTD/svg11.dtd">
<!-- Generated by graphviz version 2.40.1 (20161225.0304)
 -->
<!-- Title: AbstractVectorial Pages: 1 -->
<svg width="208pt" height="140pt"
 viewBox="0.00 0.00 207.50 140.00" xmlns="http://www.w3.org/2000/svg" xmlns:xlink="http://www.w3.org/1999/xlink">
<g id="graph0" class="graph" transform="scale(1 1) rotate(0) translate(4 136)">
<title>AbstractVectorial</title>
<polygon fill="#ffffff" stroke="transparent" points="-4,4 -4,-136 203.5,-136 203.5,4 -4,4"/>
<!-- Node0 -->
<g id="node1" class="node">
<title>Node0</title>
<polygon fill="#bfbfbf" stroke="#000000" points="68,-56.5 68,-75.5 160,-75.5 160,-56.5 68,-56.5"/>
<text text-anchor="middle" x="114" y="-63.5" font-family="Helvetica,sans-Serif" font-size="10.00" fill="#000000">AbstractVectorial</text>
</g>
<!-- Node2 -->
<g id="node3" class="node">
<title>Node2</title>
<g id="a_node3"><a xlink:href="classHighDTensor.html" target="_top" xlink:title="HighDTensor">
<polygon fill="#ffffff" stroke="#000000" points="0,-.5 0,-19.5 74,-19.5 74,-.5 0,-.5"/>
<text text-anchor="middle" x="37" y="-7.5" font-family="Helvetica,sans-Serif" font-size="10.00" fill="#000000">HighDTensor</text>
</a>
</g>
</g>
<!-- Node0&#45;&gt;Node2 -->
<g id="edge2" class="edge">
<title>Node0&#45;&gt;Node2</title>
<path fill="none" stroke="#191970" d="M92.2884,-50.2097C78.7647,-40.3743 61.8042,-28.0394 50.2587,-19.6427"/>
<polygon fill="#191970" stroke="#191970" points="90.4416,-53.1944 100.5876,-56.2455 94.5589,-47.5332 90.4416,-53.1944"/>
</g>
<!-- Node3 -->
<g id="node4" class="node">
<title>Node3</title>
<g id="a_node4"><a xlink:href="classMatrix.html" target="_top" xlink:title="Matrix">
<polygon fill="#ffffff" stroke="#000000" points="92,-.5 92,-19.5 136,-19.5 136,-.5 92,-.5"/>
<text text-anchor="middle" x="114" y="-7.5" font-family="Helvetica,sans-Serif" font-size="10.00" fill="#000000">Matrix</text>
</a>
</g>
</g>
<!-- Node0&#45;&gt;Node3 -->
<g id="edge3" class="edge">
<title>Node0&#45;&gt;Node3</title>
<path fill="none" stroke="#191970" d="M114,-46.1575C114,-37.155 114,-26.9199 114,-19.6427"/>
<polygon fill="#191970" stroke="#191970" points="110.5001,-46.2455 114,-56.2455 117.5001,-46.2456 110.5001,-46.2455"/>
</g>
<!-- Node4 -->
<g id="node5" class="node">
<title>Node4</title>
<g id="a_node5"><a xlink:href="classVector.html" target="_top" xlink:title="Vector">
<polygon fill="#ffffff" stroke="#000000" points="154.5,-.5 154.5,-19.5 199.5,-19.5 199.5,-.5 154.5,-.5"/>
<text text-anchor="middle" x="177" y="-7.5" font-family="Helvetica,sans-Serif" font-size="10.00" fill="#000000">Vector</text>
</a>
</g>
</g>
<!-- Node0&#45;&gt;Node4 -->
<g id="edge4" class="edge">
<title>Node0&#45;&gt;Node4</title>
<path fill="none" stroke="#191970" d="M132.7192,-49.3607C143.6182,-39.6727 156.9755,-27.7995 166.152,-19.6427"/>
<polygon fill="#191970" stroke="#191970" points="130.1226,-46.9859 124.9738,-56.2455 134.7732,-52.2178 130.1226,-46.9859"/>
</g>
<!-- Node1 -->
<g id="node2" class="node">
<title>Node1</title>
<g id="a_node2"><a xlink:href="classAbstract.html" target="_top" xlink:title="Root class of the inheritance tree of abstracts. ">
<polygon fill="#ffffff" stroke="#000000" points="87.5,-112.5 87.5,-131.5 140.5,-131.5 140.5,-112.5 87.5,-112.5"/>
<text text-anchor="middle" x="114" y="-119.5" font-family="Helvetica,sans-Serif" font-size="10.00" fill="#000000">Abstract</text>
</a>
</g>
</g>
<!-- Node1&#45;&gt;Node0 -->
<g id="edge1" class="edge">
<title>Node1&#45;&gt;Node0</title>
<path fill="none" stroke="#191970" d="M114,-102.1575C114,-93.155 114,-82.9199 114,-75.6427"/>
<polygon fill="#191970" stroke="#191970" points="110.5001,-102.2455 114,-112.2455 117.5001,-102.2456 110.5001,-102.2455"/>
</g>
</g>
</svg>
