<?xml version="1.0" encoding="UTF-8" standalone="no"?>
<!DOCTYPE svg PUBLIC "-//W3C//DTD SVG 1.1//EN"
 "http://www.w3.org/Graphics/SVG/1.1/DTD/svg11.dtd">
<!-- Generated by graphviz version 2.40.1 (20161225.0304)
 -->
<!-- Title: AbstractFunc Pages: 1 -->
<svg width="904pt" height="196pt"
 viewBox="0.00 0.00 904.00 196.00" xmlns="http://www.w3.org/2000/svg" xmlns:xlink="http://www.w3.org/1999/xlink">
<g id="graph0" class="graph" transform="scale(1 1) rotate(0) translate(4 192)">
<title>AbstractFunc</title>
<polygon fill="#ffffff" stroke="transparent" points="-4,4 -4,-192 900,-192 900,4 -4,4"/>
<!-- Node0 -->
<g id="node1" class="node">
<title>Node0</title>
<polygon fill="#bfbfbf" stroke="#000000" points="424.5,-56.5 424.5,-75.5 499.5,-75.5 499.5,-56.5 424.5,-56.5"/>
<text text-anchor="middle" x="462" y="-63.5" font-family="Helvetica,sans-Serif" font-size="10.00" fill="#000000">AbstractFunc</text>
</g>
<!-- Node3 -->
<g id="node4" class="node">
<title>Node3</title>
<g id="a_node4"><a xlink:href="classAbs.html" target="_top" xlink:title="Final specialization of AbstractFunc, the abs function. ">
<polygon fill="#ffffff" stroke="#000000" points="0,-.5 0,-19.5 34,-19.5 34,-.5 0,-.5"/>
<text text-anchor="middle" x="17" y="-7.5" font-family="Helvetica,sans-Serif" font-size="10.00" fill="#000000">Abs</text>
</a>
</g>
</g>
<!-- Node0&#45;&gt;Node3 -->
<g id="edge3" class="edge">
<title>Node0&#45;&gt;Node3</title>
<path fill="none" stroke="#191970" d="M414.3926,-64.7528C335.9398,-61.8162 175.0309,-52.0669 43,-20 40.0862,-19.2923 37.0588,-18.3409 34.1437,-17.3053"/>
<polygon fill="#191970" stroke="#191970" points="414.3334,-68.2528 424.4509,-65.1085 414.5809,-61.2571 414.3334,-68.2528"/>
</g>
<!-- Node4 -->
<g id="node5" class="node">
<title>Node4</title>
<g id="a_node5"><a xlink:href="classACos.html" target="_top" xlink:title="Final specialization of AbstractFunc, the acos function. ">
<polygon fill="#ffffff" stroke="#000000" points="52.5,-.5 52.5,-19.5 93.5,-19.5 93.5,-.5 52.5,-.5"/>
<text text-anchor="middle" x="73" y="-7.5" font-family="Helvetica,sans-Serif" font-size="10.00" fill="#000000">ACos</text>
</a>
</g>
</g>
<!-- Node0&#45;&gt;Node4 -->
<g id="edge4" class="edge">
<title>Node0&#45;&gt;Node4</title>
<path fill="none" stroke="#191970" d="M414.3139,-63.0296C344.8622,-58.0022 212.153,-45.7421 102,-20 99.3033,-19.3698 96.5056,-18.583 93.7592,-17.7293"/>
<polygon fill="#191970" stroke="#191970" points="414.2767,-66.5355 424.4981,-63.7475 414.769,-59.5529 414.2767,-66.5355"/>
</g>
<!-- Node5 -->
<g id="node6" class="node">
<title>Node5</title>
<g id="a_node6"><a xlink:href="classACosh.html" target="_top" xlink:title="Final specialization of AbstractFunc, the acosh function. ">
<polygon fill="#ffffff" stroke="#000000" points="111.5,-.5 111.5,-19.5 158.5,-19.5 158.5,-.5 111.5,-.5"/>
<text text-anchor="middle" x="135" y="-7.5" font-family="Helvetica,sans-Serif" font-size="10.00" fill="#000000">ACosh</text>
</a>
</g>
</g>
<!-- Node0&#45;&gt;Node5 -->
<g id="edge5" class="edge">
<title>Node0&#45;&gt;Node5</title>
<path fill="none" stroke="#191970" d="M414.0274,-60.5745C355.5028,-53.4791 253.7574,-39.6024 168,-20 164.9653,-19.3063 161.8019,-18.4819 158.6873,-17.6084"/>
<polygon fill="#191970" stroke="#191970" points="413.7436,-64.0655 424.0888,-61.779 414.5757,-57.1151 413.7436,-64.0655"/>
</g>
<!-- Node6 -->
<g id="node7" class="node">
<title>Node6</title>
<g id="a_node7"><a xlink:href="classASin.html" target="_top" xlink:title="Final specialization of AbstractFunc, the asin function. ">
<polygon fill="#ffffff" stroke="#000000" points="177,-.5 177,-19.5 215,-19.5 215,-.5 177,-.5"/>
<text text-anchor="middle" x="196" y="-7.5" font-family="Helvetica,sans-Serif" font-size="10.00" fill="#000000">ASin</text>
</a>
</g>
</g>
<!-- Node0&#45;&gt;Node6 -->
<g id="edge6" class="edge">
<title>Node0&#45;&gt;Node6</title>
<path fill="none" stroke="#191970" d="M414.3154,-58.9741C365.913,-51.3325 289.0475,-37.7907 224,-20 221.1122,-19.2102 218.0957,-18.2649 215.157,-17.2752"/>
<polygon fill="#191970" stroke="#191970" points="414.0747,-62.4787 424.4944,-60.5602 415.1526,-55.5622 414.0747,-62.4787"/>
</g>
<!-- Node7 -->
<g id="node8" class="node">
<title>Node7</title>
<g id="a_node8"><a xlink:href="classASinh.html" target="_top" xlink:title="Final specialization of AbstractFunc, the asinh function. ">
<polygon fill="#ffffff" stroke="#000000" points="233.5,-.5 233.5,-19.5 276.5,-19.5 276.5,-.5 233.5,-.5"/>
<text text-anchor="middle" x="255" y="-7.5" font-family="Helvetica,sans-Serif" font-size="10.00" fill="#000000">ASinh</text>
</a>
</g>
</g>
<!-- Node0&#45;&gt;Node7 -->
<g id="edge7" class="edge">
<title>Node0&#45;&gt;Node7</title>
<path fill="none" stroke="#191970" d="M414.3211,-54.3124C378.8006,-45.4178 329.1851,-32.598 286,-20 282.9599,-19.1131 279.7664,-18.1358 276.6322,-17.1499"/>
<polygon fill="#191970" stroke="#191970" points="413.8585,-57.8041 424.4083,-56.8277 415.5522,-51.0121 413.8585,-57.8041"/>
</g>
<!-- Node8 -->
<g id="node9" class="node">
<title>Node8</title>
<g id="a_node9"><a xlink:href="classATan.html" target="_top" xlink:title="Final specialization of AbstractFunc, the atan function. ">
<polygon fill="#ffffff" stroke="#000000" points="295,-.5 295,-19.5 335,-19.5 335,-.5 295,-.5"/>
<text text-anchor="middle" x="315" y="-7.5" font-family="Helvetica,sans-Serif" font-size="10.00" fill="#000000">ATan</text>
</a>
</g>
</g>
<!-- Node0&#45;&gt;Node8 -->
<g id="edge8" class="edge">
<title>Node0&#45;&gt;Node8</title>
<path fill="none" stroke="#191970" d="M427.0956,-52.7031C398.4462,-41.789 358.8749,-26.7143 335.2192,-17.7026"/>
<polygon fill="#191970" stroke="#191970" points="426.1389,-56.084 436.7298,-56.3733 428.6309,-49.5425 426.1389,-56.084"/>
</g>
<!-- Node9 -->
<g id="node10" class="node">
<title>Node9</title>
<g id="a_node10"><a xlink:href="classATanh.html" target="_top" xlink:title="Final specialization of AbstractFunc, the atanh function. ">
<polygon fill="#ffffff" stroke="#000000" points="353.5,-.5 353.5,-19.5 398.5,-19.5 398.5,-.5 353.5,-.5"/>
<text text-anchor="middle" x="376" y="-7.5" font-family="Helvetica,sans-Serif" font-size="10.00" fill="#000000">ATanh</text>
</a>
</g>
</g>
<!-- Node0&#45;&gt;Node9 -->
<g id="edge9" class="edge">
<title>Node0&#45;&gt;Node9</title>
<path fill="none" stroke="#191970" d="M438.6095,-50.769C423.3701,-40.8456 403.9491,-28.1994 390.8084,-19.6427"/>
<polygon fill="#191970" stroke="#191970" points="436.7301,-53.7218 447.0199,-56.2455 440.5498,-47.8558 436.7301,-53.7218"/>
</g>
<!-- Node10 -->
<g id="node11" class="node">
<title>Node10</title>
<g id="a_node11"><a xlink:href="classCos.html" target="_top" xlink:title="Final specialization of AbstractFunc, the cos function. ">
<polygon fill="#ffffff" stroke="#000000" points="416.5,-.5 416.5,-19.5 451.5,-19.5 451.5,-.5 416.5,-.5"/>
<text text-anchor="middle" x="434" y="-7.5" font-family="Helvetica,sans-Serif" font-size="10.00" fill="#000000">Cos</text>
</a>
</g>
</g>
<!-- Node0&#45;&gt;Node10 -->
<g id="edge10" class="edge">
<title>Node0&#45;&gt;Node10</title>
<path fill="none" stroke="#191970" d="M452.5219,-47.0437C447.9165,-37.8331 442.5799,-27.1598 438.8213,-19.6427"/>
<polygon fill="#191970" stroke="#191970" points="449.5201,-48.8665 457.1228,-56.2455 455.7811,-45.736 449.5201,-48.8665"/>
</g>
<!-- Node11 -->
<g id="node12" class="node">
<title>Node11</title>
<g id="a_node12"><a xlink:href="classCosh.html" target="_top" xlink:title="Final specialization of AbstractFunc, the cosh function. ">
<polygon fill="#ffffff" stroke="#000000" points="470,-.5 470,-19.5 510,-19.5 510,-.5 470,-.5"/>
<text text-anchor="middle" x="490" y="-7.5" font-family="Helvetica,sans-Serif" font-size="10.00" fill="#000000">Cosh</text>
</a>
</g>
</g>
<!-- Node0&#45;&gt;Node11 -->
<g id="edge11" class="edge">
<title>Node0&#45;&gt;Node11</title>
<path fill="none" stroke="#191970" d="M471.4781,-47.0437C476.0835,-37.8331 481.4201,-27.1598 485.1787,-19.6427"/>
<polygon fill="#191970" stroke="#191970" points="468.2189,-45.736 466.8772,-56.2455 474.4799,-48.8665 468.2189,-45.736"/>
</g>
<!-- Node12 -->
<g id="node13" class="node">
<title>Node12</title>
<g id="a_node13"><a xlink:href="classExp.html" target="_top" xlink:title="Final specialization of AbstractFunc, the exponential function. ">
<polygon fill="#ffffff" stroke="#000000" points="528,-.5 528,-19.5 562,-19.5 562,-.5 528,-.5"/>
<text text-anchor="middle" x="545" y="-7.5" font-family="Helvetica,sans-Serif" font-size="10.00" fill="#000000">Exp</text>
</a>
</g>
</g>
<!-- Node0&#45;&gt;Node12 -->
<g id="edge12" class="edge">
<title>Node0&#45;&gt;Node12</title>
<path fill="none" stroke="#191970" d="M484.988,-50.49C499.6322,-40.6096 518.1444,-28.1194 530.7082,-19.6427"/>
<polygon fill="#191970" stroke="#191970" points="482.7896,-47.7511 476.4575,-56.2455 486.7047,-53.5539 482.7896,-47.7511"/>
</g>
<!-- Node13 -->
<g id="node14" class="node">
<title>Node13</title>
<g id="a_node14"><a xlink:href="classFactorial.html" target="_top" xlink:title="Final specialization of AbstractFunc, the factorial function. ">
<polygon fill="#ffffff" stroke="#000000" points="580,-.5 580,-19.5 634,-19.5 634,-.5 580,-.5"/>
<text text-anchor="middle" x="607" y="-7.5" font-family="Helvetica,sans-Serif" font-size="10.00" fill="#000000">Factorial</text>
</a>
</g>
</g>
<!-- Node0&#45;&gt;Node13 -->
<g id="edge13" class="edge">
<title>Node0&#45;&gt;Node13</title>
<path fill="none" stroke="#191970" d="M496.5565,-52.6541C522.9986,-42.4419 558.8169,-28.6086 582.3989,-19.5011"/>
<polygon fill="#191970" stroke="#191970" points="494.9939,-49.5055 486.9264,-56.3733 497.5158,-56.0354 494.9939,-49.5055"/>
</g>
<!-- Node14 -->
<g id="node15" class="node">
<title>Node14</title>
<g id="a_node15"><a xlink:href="classLog.html" target="_top" xlink:title="Final specialization of AbstractFunc, the logarithm function. ">
<polygon fill="#ffffff" stroke="#000000" points="652,-.5 652,-19.5 684,-19.5 684,-.5 652,-.5"/>
<text text-anchor="middle" x="668" y="-7.5" font-family="Helvetica,sans-Serif" font-size="10.00" fill="#000000">Log</text>
</a>
</g>
</g>
<!-- Node0&#45;&gt;Node14 -->
<g id="edge14" class="edge">
<title>Node0&#45;&gt;Node14</title>
<path fill="none" stroke="#191970" d="M509.4554,-55.7413C546.2526,-47.355 598.3333,-34.5393 643,-20 645.9337,-19.045 649.0165,-17.9178 651.9763,-16.7706"/>
<polygon fill="#191970" stroke="#191970" points="508.4855,-52.372 499.5009,-57.9869 510.026,-59.2004 508.4855,-52.372"/>
</g>
<!-- Node15 -->
<g id="node16" class="node">
<title>Node15</title>
<g id="a_node16"><a xlink:href="classSin.html" target="_top" xlink:title="Final specialization of AbstractFunc, the sin function. ">
<polygon fill="#ffffff" stroke="#000000" points="702.5,-.5 702.5,-19.5 733.5,-19.5 733.5,-.5 702.5,-.5"/>
<text text-anchor="middle" x="718" y="-7.5" font-family="Helvetica,sans-Serif" font-size="10.00" fill="#000000">Sin</text>
</a>
</g>
</g>
<!-- Node0&#45;&gt;Node15 -->
<g id="edge15" class="edge">
<title>Node0&#45;&gt;Node15</title>
<path fill="none" stroke="#191970" d="M509.6535,-59.1388C556.8002,-51.7389 630.7309,-38.4826 693,-20 696.0473,-19.0955 699.2397,-17.9659 702.285,-16.7947"/>
<polygon fill="#191970" stroke="#191970" points="509.0714,-55.6871 499.723,-60.6729 510.1402,-62.6051 509.0714,-55.6871"/>
</g>
<!-- Node16 -->
<g id="node17" class="node">
<title>Node16</title>
<g id="a_node17"><a xlink:href="classSinh.html" target="_top" xlink:title="Final specialization of AbstractFunc, the sinh function. ">
<polygon fill="#ffffff" stroke="#000000" points="752,-.5 752,-19.5 788,-19.5 788,-.5 752,-.5"/>
<text text-anchor="middle" x="770" y="-7.5" font-family="Helvetica,sans-Serif" font-size="10.00" fill="#000000">Sinh</text>
</a>
</g>
</g>
<!-- Node0&#45;&gt;Node16 -->
<g id="edge16" class="edge">
<title>Node0&#45;&gt;Node16</title>
<path fill="none" stroke="#191970" d="M509.8074,-61.0154C566.1994,-54.4854 662.4652,-41.2933 743,-20 745.8996,-19.2334 748.9231,-18.2768 751.8533,-17.2614"/>
<polygon fill="#191970" stroke="#191970" points="509.2955,-57.5509 499.7546,-62.1576 510.0858,-64.5062 509.2955,-57.5509"/>
</g>
<!-- Node17 -->
<g id="node18" class="node">
<title>Node17</title>
<g id="a_node18"><a xlink:href="classTan.html" target="_top" xlink:title="Final specialization of AbstractFunc, the tan function. ">
<polygon fill="#ffffff" stroke="#000000" points="806.5,-.5 806.5,-19.5 839.5,-19.5 839.5,-.5 806.5,-.5"/>
<text text-anchor="middle" x="823" y="-7.5" font-family="Helvetica,sans-Serif" font-size="10.00" fill="#000000">Tan</text>
</a>
</g>
</g>
<!-- Node0&#45;&gt;Node17 -->
<g id="edge17" class="edge">
<title>Node0&#45;&gt;Node17</title>
<path fill="none" stroke="#191970" d="M509.7625,-62.9207C575.359,-57.9083 696.6217,-45.8252 797,-20 800.0913,-19.2047 803.3167,-18.1548 806.4018,-17.0344"/>
<polygon fill="#191970" stroke="#191970" points="509.4379,-59.4351 499.7244,-63.6655 509.9559,-66.4159 509.4379,-59.4351"/>
</g>
<!-- Node18 -->
<g id="node19" class="node">
<title>Node18</title>
<g id="a_node19"><a xlink:href="classTanh.html" target="_top" xlink:title="Final specialization of AbstractFunc, the tanh function. ">
<polygon fill="#ffffff" stroke="#000000" points="858,-.5 858,-19.5 896,-19.5 896,-.5 858,-.5"/>
<text text-anchor="middle" x="877" y="-7.5" font-family="Helvetica,sans-Serif" font-size="10.00" fill="#000000">Tanh</text>
</a>
</g>
</g>
<!-- Node0&#45;&gt;Node18 -->
<g id="edge18" class="edge">
<title>Node0&#45;&gt;Node18</title>
<path fill="none" stroke="#191970" d="M509.9181,-63.7683C583.6373,-59.5617 728.9316,-48.1976 849,-20 851.9146,-19.3155 854.9457,-18.4279 857.891,-17.4643"/>
<polygon fill="#191970" stroke="#191970" points="509.3647,-60.2934 499.5724,-64.3381 509.7498,-67.2828 509.3647,-60.2934"/>
</g>
<!-- Node1 -->
<g id="node2" class="node">
<title>Node1</title>
<g id="a_node2"><a xlink:href="classAbstractScalar.html" target="_top" xlink:title="Abstract class concerning all scalars (dim = 0). Allows to implement one time getDim() = 0 for all sc...">
<polygon fill="#ffffff" stroke="#000000" points="421.5,-112.5 421.5,-131.5 502.5,-131.5 502.5,-112.5 421.5,-112.5"/>
<text text-anchor="middle" x="462" y="-119.5" font-family="Helvetica,sans-Serif" font-size="10.00" fill="#000000">AbstractScalar</text>
</a>
</g>
</g>
<!-- Node1&#45;&gt;Node0 -->
<g id="edge1" class="edge">
<title>Node1&#45;&gt;Node0</title>
<path fill="none" stroke="#191970" d="M462,-102.1575C462,-93.155 462,-82.9199 462,-75.6427"/>
<polygon fill="#191970" stroke="#191970" points="458.5001,-102.2455 462,-112.2455 465.5001,-102.2456 458.5001,-102.2455"/>
</g>
<!-- Node2 -->
<g id="node3" class="node">
<title>Node2</title>
<g id="a_node3"><a xlink:href="classAbstract.html" target="_top" xlink:title="Root class of the inheritance tree of abstracts. ">
<polygon fill="#ffffff" stroke="#000000" points="435.5,-168.5 435.5,-187.5 488.5,-187.5 488.5,-168.5 435.5,-168.5"/>
<text text-anchor="middle" x="462" y="-175.5" font-family="Helvetica,sans-Serif" font-size="10.00" fill="#000000">Abstract</text>
</a>
</g>
</g>
<!-- Node2&#45;&gt;Node1 -->
<g id="edge2" class="edge">
<title>Node2&#45;&gt;Node1</title>
<path fill="none" stroke="#191970" d="M462,-158.1575C462,-149.155 462,-138.9199 462,-131.6427"/>
<polygon fill="#191970" stroke="#191970" points="458.5001,-158.2455 462,-168.2455 465.5001,-158.2456 458.5001,-158.2455"/>
</g>
</g>
</svg>
