<?xml version="1.0" encoding="UTF-8" standalone="no"?>
<!DOCTYPE svg PUBLIC "-//W3C//DTD SVG 1.1//EN"
 "http://www.w3.org/Graphics/SVG/1.1/DTD/svg11.dtd">
<!-- Generated by graphviz version 2.40.1 (20161225.0304)
 -->
<!-- Title: AbstractNumerical Pages: 1 -->
<svg width="217pt" height="263pt"
 viewBox="0.00 0.00 216.50 263.00" xmlns="http://www.w3.org/2000/svg" xmlns:xlink="http://www.w3.org/1999/xlink">
<g id="graph0" class="graph" transform="scale(1 1) rotate(0) translate(4 259)">
<title>AbstractNumerical</title>
<polygon fill="#ffffff" stroke="transparent" points="-4,4 -4,-259 212.5,-259 212.5,4 -4,4"/>
<!-- Node0 -->
<g id="node1" class="node">
<title>Node0</title>
<polygon fill="#bfbfbf" stroke="#000000" points="51.5,-56.5 51.5,-75.5 149.5,-75.5 149.5,-56.5 51.5,-56.5"/>
<text text-anchor="middle" x="100.5" y="-63.5" font-family="Helvetica,sans-Serif" font-size="10.00" fill="#000000">AbstractNumerical</text>
</g>
<!-- Node5 -->
<g id="node6" class="node">
<title>Node5</title>
<g id="a_node6"><a xlink:href="classCFraction.html" target="_top" xlink:title="Handles fractions of Number. ">
<polygon fill="#ffffff" stroke="#000000" points="0,-.5 0,-19.5 59,-19.5 59,-.5 0,-.5"/>
<text text-anchor="middle" x="29.5" y="-7.5" font-family="Helvetica,sans-Serif" font-size="10.00" fill="#000000">CFraction</text>
</a>
</g>
</g>
<!-- Node0&#45;&gt;Node5 -->
<g id="edge5" class="edge">
<title>Node0&#45;&gt;Node5</title>
<path fill="none" stroke="#191970" d="M80.123,-49.928C67.7129,-40.1397 52.27,-27.9595 41.7255,-19.6427"/>
<polygon fill="#191970" stroke="#191970" points="78.1136,-52.8007 88.1327,-56.2455 82.4486,-47.3046 78.1136,-52.8007"/>
</g>
<!-- Node6 -->
<g id="node7" class="node">
<title>Node6</title>
<g id="a_node7"><a xlink:href="classDouble.html" target="_top" xlink:title="Handle numbers in expr. ">
<polygon fill="#ffffff" stroke="#000000" points="77,-.5 77,-19.5 124,-19.5 124,-.5 77,-.5"/>
<text text-anchor="middle" x="100.5" y="-7.5" font-family="Helvetica,sans-Serif" font-size="10.00" fill="#000000">Double</text>
</a>
</g>
</g>
<!-- Node0&#45;&gt;Node6 -->
<g id="edge6" class="edge">
<title>Node0&#45;&gt;Node6</title>
<path fill="none" stroke="#191970" d="M100.5,-46.1575C100.5,-37.155 100.5,-26.9199 100.5,-19.6427"/>
<polygon fill="#191970" stroke="#191970" points="97.0001,-46.2455 100.5,-56.2455 104.0001,-46.2456 97.0001,-46.2455"/>
</g>
<!-- Node7 -->
<g id="node8" class="node">
<title>Node7</title>
<g id="a_node8"><a xlink:href="classInteger.html" target="_top" xlink:title="Handle numbers in expr. ">
<polygon fill="#ffffff" stroke="#000000" points="142,-.5 142,-19.5 189,-19.5 189,-.5 142,-.5"/>
<text text-anchor="middle" x="165.5" y="-7.5" font-family="Helvetica,sans-Serif" font-size="10.00" fill="#000000">Integer</text>
</a>
</g>
</g>
<!-- Node0&#45;&gt;Node7 -->
<g id="edge7" class="edge">
<title>Node0&#45;&gt;Node7</title>
<path fill="none" stroke="#191970" d="M119.4835,-49.645C130.7879,-39.9058 144.747,-27.8795 154.3076,-19.6427"/>
<polygon fill="#191970" stroke="#191970" points="117.1138,-47.0668 111.8221,-56.2455 121.6827,-52.3701 117.1138,-47.0668"/>
</g>
<!-- Node1 -->
<g id="node2" class="node">
<title>Node1</title>
<g id="a_node2"><a xlink:href="classAbstractBuildingBlock.html" target="_top" xlink:title="Abstract class from which derive all building blocks of exprs, i.e. objects not function of further e...">
<polygon fill="#ffffff" stroke="#000000" points="44,-112.5 44,-131.5 157,-131.5 157,-112.5 44,-112.5"/>
<text text-anchor="middle" x="100.5" y="-119.5" font-family="Helvetica,sans-Serif" font-size="10.00" fill="#000000">AbstractBuildingBlock</text>
</a>
</g>
</g>
<!-- Node1&#45;&gt;Node0 -->
<g id="edge1" class="edge">
<title>Node1&#45;&gt;Node0</title>
<path fill="none" stroke="#191970" d="M100.5,-102.1575C100.5,-93.155 100.5,-82.9199 100.5,-75.6427"/>
<polygon fill="#191970" stroke="#191970" points="97.0001,-102.2455 100.5,-112.2455 104.0001,-102.2456 97.0001,-102.2455"/>
</g>
<!-- Node2 -->
<g id="node3" class="node">
<title>Node2</title>
<g id="a_node3"><a xlink:href="classAbstractScalar.html" target="_top" xlink:title="Abstract class concerning all scalars (dim = 0). Allows to implement one time getDim() = 0 for all sc...">
<polygon fill="#ffffff" stroke="#000000" points="5,-174 5,-193 86,-193 86,-174 5,-174"/>
<text text-anchor="middle" x="45.5" y="-181" font-family="Helvetica,sans-Serif" font-size="10.00" fill="#000000">AbstractScalar</text>
</a>
</g>
</g>
<!-- Node2&#45;&gt;Node1 -->
<g id="edge2" class="edge">
<title>Node2&#45;&gt;Node1</title>
<path fill="none" stroke="#191970" d="M60.792,-166.4007C70.785,-155.2268 83.4763,-141.0356 91.7851,-131.7449"/>
<polygon fill="#191970" stroke="#191970" points="58.1511,-164.1034 54.0938,-173.8906 63.3689,-168.7698 58.1511,-164.1034"/>
</g>
<!-- Node3 -->
<g id="node4" class="node">
<title>Node3</title>
<g id="a_node4"><a xlink:href="classAbstract.html" target="_top" xlink:title="Root class of the inheritance tree of abstracts. ">
<polygon fill="#ffffff" stroke="#000000" points="19,-235.5 19,-254.5 72,-254.5 72,-235.5 19,-235.5"/>
<text text-anchor="middle" x="45.5" y="-242.5" font-family="Helvetica,sans-Serif" font-size="10.00" fill="#000000">Abstract</text>
</a>
</g>
</g>
<!-- Node3&#45;&gt;Node2 -->
<g id="edge3" class="edge">
<title>Node3&#45;&gt;Node2</title>
<path fill="none" stroke="#191970" d="M45.5,-225.2462C45.5,-214.5519 45.5,-201.814 45.5,-193.2449"/>
<polygon fill="#191970" stroke="#191970" points="42.0001,-225.3906 45.5,-235.3906 49.0001,-225.3907 42.0001,-225.3906"/>
</g>
<!-- Node4 -->
<g id="node5" class="node">
<title>Node4</title>
<polygon fill="#ffffff" stroke="#bfbfbf" points="104.5,-168.5 104.5,-198.5 208.5,-198.5 208.5,-168.5 104.5,-168.5"/>
<text text-anchor="start" x="112.5" y="-186.5" font-family="Helvetica,sans-Serif" font-size="10.00" fill="#000000">enable_shared_from</text>
<text text-anchor="middle" x="156.5" y="-175.5" font-family="Helvetica,sans-Serif" font-size="10.00" fill="#000000">_this&lt; Abstract &gt;</text>
</g>
<!-- Node4&#45;&gt;Node1 -->
<g id="edge4" class="edge">
<title>Node4&#45;&gt;Node1</title>
<path fill="none" stroke="#191970" d="M135.7089,-160.6669C126.6578,-150.7269 116.5284,-139.6026 109.4663,-131.8469"/>
<polygon fill="#191970" stroke="#191970" points="133.3367,-163.2602 142.6573,-168.2977 138.5125,-158.5473 133.3367,-163.2602"/>
</g>
</g>
</svg>
