<?xml version="1.0" encoding="UTF-8" standalone="no"?>
<!DOCTYPE svg PUBLIC "-//W3C//DTD SVG 1.1//EN"
 "http://www.w3.org/Graphics/SVG/1.1/DTD/svg11.dtd">
<!-- Generated by graphviz version 2.40.1 (20161225.0304)
 -->
<!-- Title: Abstract Pages: 1 -->
<svg width="570pt" height="1187pt"
 viewBox="0.00 0.00 570.00 1187.00" xmlns="http://www.w3.org/2000/svg" xmlns:xlink="http://www.w3.org/1999/xlink">
<g id="graph0" class="graph" transform="scale(1 1) rotate(0) translate(4 1183)">
<title>Abstract</title>
<polygon fill="#ffffff" stroke="transparent" points="-4,4 -4,-1183 566,-1183 566,4 -4,4"/>
<!-- Node0 -->
<g id="node1" class="node">
<title>Node0</title>
<polygon fill="#bfbfbf" stroke="#000000" points="0,-114.5 0,-133.5 53,-133.5 53,-114.5 0,-114.5"/>
<text text-anchor="middle" x="26.5" y="-121.5" font-family="Helvetica,sans-Serif" font-size="10.00" fill="#000000">Abstract</text>
</g>
<!-- Node1 -->
<g id="node2" class="node">
<title>Node1</title>
<g id="a_node2"><a xlink:href="classAbstractScalar.html" target="_top" xlink:title="Abstract class concerning all scalars (dim = 0). Allows to implement one time getDim() = 0 for all sc...">
<polygon fill="#ffffff" stroke="#000000" points="94.5,-342.5 94.5,-361.5 175.5,-361.5 175.5,-342.5 94.5,-342.5"/>
<text text-anchor="middle" x="135" y="-349.5" font-family="Helvetica,sans-Serif" font-size="10.00" fill="#000000">AbstractScalar</text>
</a>
</g>
</g>
<!-- Node0&#45;&gt;Node1 -->
<g id="edge1" class="edge">
<title>Node0&#45;&gt;Node1</title>
<path fill="none" stroke="#191970" d="M35.4031,-142.7088C57.4561,-189.0505 114.0192,-307.9114 130.4567,-342.4528"/>
<polygon fill="#191970" stroke="#191970" points="38.4815,-141.0323 31.024,-133.5066 32.1607,-144.0403 38.4815,-141.0323"/>
</g>
<!-- Node41 -->
<g id="node42" class="node">
<title>Node41</title>
<g id="a_node42"><a xlink:href="classAbstractVectorial.html" target="_top" xlink:title="AbstractVectorial">
<polygon fill="#ffffff" stroke="#000000" points="89,-57.5 89,-76.5 181,-76.5 181,-57.5 89,-57.5"/>
<text text-anchor="middle" x="135" y="-64.5" font-family="Helvetica,sans-Serif" font-size="10.00" fill="#000000">AbstractVectorial</text>
</a>
</g>
</g>
<!-- Node0&#45;&gt;Node41 -->
<g id="edge41" class="edge">
<title>Node0&#45;&gt;Node41</title>
<path fill="none" stroke="#191970" d="M54.0106,-109.5475C73.7202,-99.1931 99.7089,-85.54 116.8663,-76.5265"/>
<polygon fill="#191970" stroke="#191970" points="52.1305,-106.5815 44.9055,-114.3307 55.3861,-112.7784 52.1305,-106.5815"/>
</g>
<!-- Node2 -->
<g id="node3" class="node">
<title>Node2</title>
<g id="a_node3"><a xlink:href="classAbstractBuildingBlock.html" target="_top" xlink:title="Abstract class from which derive all building blocks of exprs, i.e. objects not function of further e...">
<polygon fill="#ffffff" stroke="#000000" points="217,-988.5 217,-1007.5 330,-1007.5 330,-988.5 217,-988.5"/>
<text text-anchor="middle" x="273.5" y="-995.5" font-family="Helvetica,sans-Serif" font-size="10.00" fill="#000000">AbstractBuildingBlock</text>
</a>
</g>
</g>
<!-- Node1&#45;&gt;Node2 -->
<g id="edge2" class="edge">
<title>Node1&#45;&gt;Node2</title>
<path fill="none" stroke="#191970" d="M136.9056,-371.7655C145.3749,-457.9748 180.7823,-801.3062 217,-903 229.0393,-936.8045 253.6375,-971.9133 266.0228,-988.3833"/>
<polygon fill="#191970" stroke="#191970" points="140.3642,-371.1693 135.911,-361.5558 133.3972,-371.8481 140.3642,-371.1693"/>
</g>
<!-- Node12 -->
<g id="node13" class="node">
<title>Node12</title>
<g id="a_node13"><a xlink:href="classAbstractDuoFunc.html" target="_top" xlink:title="Handle functions of multiple arguments. In the case of the call of a simplification function...">
<polygon fill="#ffffff" stroke="#000000" points="227,-874.5 227,-893.5 320,-893.5 320,-874.5 227,-874.5"/>
<text text-anchor="middle" x="273.5" y="-881.5" font-family="Helvetica,sans-Serif" font-size="10.00" fill="#000000">AbstractDuoFunc</text>
</a>
</g>
</g>
<!-- Node1&#45;&gt;Node12 -->
<g id="edge12" class="edge">
<title>Node1&#45;&gt;Node12</title>
<path fill="none" stroke="#191970" d="M140.1002,-371.5905C162.8152,-458.8424 254.383,-810.5686 270.9302,-874.1291"/>
<polygon fill="#191970" stroke="#191970" points="143.4287,-370.4836 137.5222,-361.688 136.6545,-372.2472 143.4287,-370.4836"/>
</g>
<!-- Node17 -->
<g id="node18" class="node">
<title>Node17</title>
<g id="a_node18"><a xlink:href="classAbstractFunc.html" target="_top" xlink:title="Base class for scalar functions of one argument. ">
<polygon fill="#ffffff" stroke="#000000" points="236,-494.5 236,-513.5 311,-513.5 311,-494.5 236,-494.5"/>
<text text-anchor="middle" x="273.5" y="-501.5" font-family="Helvetica,sans-Serif" font-size="10.00" fill="#000000">AbstractFunc</text>
</a>
</g>
</g>
<!-- Node1&#45;&gt;Node17 -->
<g id="edge17" class="edge">
<title>Node1&#45;&gt;Node17</title>
<path fill="none" stroke="#191970" d="M150.6734,-369.2011C179.9429,-401.3236 242.0109,-469.4415 264.8395,-494.4953"/>
<polygon fill="#191970" stroke="#191970" points="152.9861,-366.5427 143.6638,-361.5083 147.8119,-371.2573 152.9861,-366.5427"/>
</g>
<!-- Node34 -->
<g id="node35" class="node">
<title>Node34</title>
<g id="a_node35"><a xlink:href="classAbstractIndicial.html" target="_top" xlink:title="AbstractIndicial">
<polygon fill="#ffffff" stroke="#000000" points="231.5,-190.5 231.5,-209.5 315.5,-209.5 315.5,-190.5 231.5,-190.5"/>
<text text-anchor="middle" x="273.5" y="-197.5" font-family="Helvetica,sans-Serif" font-size="10.00" fill="#000000">AbstractIndicial</text>
</a>
</g>
</g>
<!-- Node1&#45;&gt;Node34 -->
<g id="edge34" class="edge">
<title>Node1&#45;&gt;Node34</title>
<path fill="none" stroke="#191970" d="M150.6734,-334.7989C179.9429,-302.6764 242.0109,-234.5585 264.8395,-209.5047"/>
<polygon fill="#191970" stroke="#191970" points="147.8119,-332.7427 143.6638,-342.4917 152.9861,-337.4573 147.8119,-332.7427"/>
</g>
<!-- Node37 -->
<g id="node38" class="node">
<title>Node37</title>
<g id="a_node38"><a xlink:href="classAbstractMultiFunc.html" target="_top" xlink:title="Handle functions of multiple arguments. In the case of the call of a simplification function...">
<polygon fill="#ffffff" stroke="#000000" points="225.5,-114.5 225.5,-133.5 321.5,-133.5 321.5,-114.5 225.5,-114.5"/>
<text text-anchor="middle" x="273.5" y="-121.5" font-family="Helvetica,sans-Serif" font-size="10.00" fill="#000000">AbstractMultiFunc</text>
</a>
</g>
</g>
<!-- Node1&#45;&gt;Node37 -->
<g id="edge37" class="edge">
<title>Node1&#45;&gt;Node37</title>
<path fill="none" stroke="#191970" d="M141.9528,-332.3293C154.1592,-299.278 181.5482,-231.2871 217,-181 230.1667,-162.3236 249.6512,-144.1835 261.9552,-133.5574"/>
<polygon fill="#191970" stroke="#191970" points="138.5205,-331.5283 138.4056,-342.1225 145.1021,-333.9122 138.5205,-331.5283"/>
</g>
<!-- Node3 -->
<g id="node4" class="node">
<title>Node3</title>
<g id="a_node4"><a xlink:href="classAbstractLiteral.html" target="_top" xlink:title="Abstract class from which derive literal building blocks: Constant, Variable, Imaginary and CFactoria...">
<polygon fill="#ffffff" stroke="#000000" points="375,-1083.5 375,-1102.5 455,-1102.5 455,-1083.5 375,-1083.5"/>
<text text-anchor="middle" x="415" y="-1090.5" font-family="Helvetica,sans-Serif" font-size="10.00" fill="#000000">AbstractLiteral</text>
</a>
</g>
</g>
<!-- Node2&#45;&gt;Node3 -->
<g id="edge3" class="edge">
<title>Node2&#45;&gt;Node3</title>
<path fill="none" stroke="#191970" d="M296.2498,-1013.2737C325.66,-1033.0191 376.011,-1066.8237 400.6156,-1083.3426"/>
<polygon fill="#191970" stroke="#191970" points="298.0998,-1010.3002 287.8465,-1007.6319 294.198,-1016.1119 298.0998,-1010.3002"/>
</g>
<!-- Node8 -->
<g id="node9" class="node">
<title>Node8</title>
<g id="a_node9"><a xlink:href="classAbstractNumerical.html" target="_top" xlink:title="Abstract class from which derive numerical types, i.e. Double, Integer, CFraction. ">
<polygon fill="#ffffff" stroke="#000000" points="366,-988.5 366,-1007.5 464,-1007.5 464,-988.5 366,-988.5"/>
<text text-anchor="middle" x="415" y="-995.5" font-family="Helvetica,sans-Serif" font-size="10.00" fill="#000000">AbstractNumerical</text>
</a>
</g>
</g>
<!-- Node2&#45;&gt;Node8 -->
<g id="edge8" class="edge">
<title>Node2&#45;&gt;Node8</title>
<path fill="none" stroke="#191970" d="M340.327,-998C348.9785,-998 357.7084,-998 365.9972,-998"/>
<polygon fill="#191970" stroke="#191970" points="340.2382,-994.5001 330.2381,-998 340.2381,-1001.5001 340.2382,-994.5001"/>
</g>
<!-- Node4 -->
<g id="node5" class="node">
<title>Node4</title>
<g id="a_node5"><a xlink:href="classCFactorial.html" target="_top" xlink:title="Handles factorial of a Number. ">
<polygon fill="#ffffff" stroke="#000000" points="500,-1159.5 500,-1178.5 562,-1178.5 562,-1159.5 500,-1159.5"/>
<text text-anchor="middle" x="531" y="-1166.5" font-family="Helvetica,sans-Serif" font-size="10.00" fill="#000000">CFactorial</text>
</a>
</g>
</g>
<!-- Node3&#45;&gt;Node4 -->
<g id="edge4" class="edge">
<title>Node3&#45;&gt;Node4</title>
<path fill="none" stroke="#191970" d="M437.7077,-1108.5944C454.7333,-1120.1968 478.6737,-1136.322 500,-1150 504.8884,-1153.1352 510.2669,-1156.4709 515.1519,-1159.458"/>
<polygon fill="#191970" stroke="#191970" points="439.252,-1105.4105 429.0209,-1102.6581 435.3025,-1111.19 439.252,-1105.4105"/>
</g>
<!-- Node5 -->
<g id="node6" class="node">
<title>Node5</title>
<g id="a_node6"><a xlink:href="classConstant.html" target="_top" xlink:title="Handle an object with a name and a value. ">
<polygon fill="#ffffff" stroke="#000000" points="503,-1121.5 503,-1140.5 559,-1140.5 559,-1121.5 503,-1121.5"/>
<text text-anchor="middle" x="531" y="-1128.5" font-family="Helvetica,sans-Serif" font-size="10.00" fill="#000000">Constant</text>
</a>
</g>
</g>
<!-- Node3&#45;&gt;Node5 -->
<g id="edge5" class="edge">
<title>Node3&#45;&gt;Node5</title>
<path fill="none" stroke="#191970" d="M453.9323,-1105.7537C469.9852,-1111.0124 488.2308,-1116.9894 502.9381,-1121.8073"/>
<polygon fill="#191970" stroke="#191970" points="454.8644,-1102.3761 444.2717,-1102.589 452.6852,-1109.0282 454.8644,-1102.3761"/>
</g>
<!-- Node6 -->
<g id="node7" class="node">
<title>Node6</title>
<g id="a_node7"><a xlink:href="classImaginary.html" target="_top" xlink:title="Numerical representation of i. ">
<polygon fill="#ffffff" stroke="#000000" points="501.5,-1083.5 501.5,-1102.5 560.5,-1102.5 560.5,-1083.5 501.5,-1083.5"/>
<text text-anchor="middle" x="531" y="-1090.5" font-family="Helvetica,sans-Serif" font-size="10.00" fill="#000000">Imaginary</text>
</a>
</g>
</g>
<!-- Node3&#45;&gt;Node6 -->
<g id="edge6" class="edge">
<title>Node3&#45;&gt;Node6</title>
<path fill="none" stroke="#191970" d="M465.4165,-1093C477.7134,-1093 490.473,-1093 501.4329,-1093"/>
<polygon fill="#191970" stroke="#191970" points="465.2457,-1089.5001 455.2456,-1093 465.2456,-1096.5001 465.2457,-1089.5001"/>
</g>
<!-- Node7 -->
<g id="node8" class="node">
<title>Node7</title>
<g id="a_node8"><a xlink:href="classVariable.html" target="_top" xlink:title="Handle an object with a name and a value. ">
<polygon fill="#ffffff" stroke="#000000" points="505,-1045.5 505,-1064.5 557,-1064.5 557,-1045.5 505,-1045.5"/>
<text text-anchor="middle" x="531" y="-1052.5" font-family="Helvetica,sans-Serif" font-size="10.00" fill="#000000">Variable</text>
</a>
</g>
</g>
<!-- Node3&#45;&gt;Node7 -->
<g id="edge7" class="edge">
<title>Node3&#45;&gt;Node7</title>
<path fill="none" stroke="#191970" d="M453.834,-1080.2785C470.6336,-1074.7752 489.8501,-1068.4801 504.9041,-1063.5487"/>
<polygon fill="#191970" stroke="#191970" points="452.6852,-1076.9718 444.2717,-1083.411 454.8644,-1083.6239 452.6852,-1076.9718"/>
</g>
<!-- Node9 -->
<g id="node10" class="node">
<title>Node9</title>
<g id="a_node10"><a xlink:href="classCFraction.html" target="_top" xlink:title="Handles fractions of Number. ">
<polygon fill="#ffffff" stroke="#000000" points="501.5,-1007.5 501.5,-1026.5 560.5,-1026.5 560.5,-1007.5 501.5,-1007.5"/>
<text text-anchor="middle" x="531" y="-1014.5" font-family="Helvetica,sans-Serif" font-size="10.00" fill="#000000">CFraction</text>
</a>
</g>
</g>
<!-- Node8&#45;&gt;Node9 -->
<g id="edge9" class="edge">
<title>Node8&#45;&gt;Node9</title>
<path fill="none" stroke="#191970" d="M474.3068,-1007.714C483.6519,-1009.2447 492.9518,-1010.768 501.2354,-1012.1248"/>
<polygon fill="#191970" stroke="#191970" points="474.6287,-1004.2202 464.1944,-1006.0577 473.4972,-1011.1282 474.6287,-1004.2202"/>
</g>
<!-- Node10 -->
<g id="node11" class="node">
<title>Node10</title>
<g id="a_node11"><a xlink:href="classDouble.html" target="_top" xlink:title="Handle numbers in expr. ">
<polygon fill="#ffffff" stroke="#000000" points="507.5,-969.5 507.5,-988.5 554.5,-988.5 554.5,-969.5 507.5,-969.5"/>
<text text-anchor="middle" x="531" y="-976.5" font-family="Helvetica,sans-Serif" font-size="10.00" fill="#000000">Double</text>
</a>
</g>
</g>
<!-- Node8&#45;&gt;Node10 -->
<g id="edge10" class="edge">
<title>Node8&#45;&gt;Node10</title>
<path fill="none" stroke="#191970" d="M474.0728,-988.3243C485.8672,-986.3924 497.6025,-984.4703 507.3268,-982.8775"/>
<polygon fill="#191970" stroke="#191970" points="473.4972,-984.8718 464.1944,-989.9423 474.6287,-991.7798 473.4972,-984.8718"/>
</g>
<!-- Node11 -->
<g id="node12" class="node">
<title>Node11</title>
<g id="a_node12"><a xlink:href="classInteger.html" target="_top" xlink:title="Handle numbers in expr. ">
<polygon fill="#ffffff" stroke="#000000" points="507.5,-931.5 507.5,-950.5 554.5,-950.5 554.5,-931.5 507.5,-931.5"/>
<text text-anchor="middle" x="531" y="-938.5" font-family="Helvetica,sans-Serif" font-size="10.00" fill="#000000">Integer</text>
</a>
</g>
</g>
<!-- Node8&#45;&gt;Node11 -->
<g id="edge11" class="edge">
<title>Node8&#45;&gt;Node11</title>
<path fill="none" stroke="#191970" d="M451.1896,-984.6586C455.5465,-982.8499 459.9014,-980.9442 464,-979 482.2441,-970.346 502.2762,-958.6802 515.6396,-950.5665"/>
<polygon fill="#191970" stroke="#191970" points="449.7284,-981.4735 441.7468,-988.4409 452.3312,-987.9716 449.7284,-981.4735"/>
</g>
<!-- Node13 -->
<g id="node14" class="node">
<title>Node13</title>
<g id="a_node14"><a xlink:href="classAngle.html" target="_top" xlink:title="Handles a angle of 2 arguments. ">
<polygon fill="#ffffff" stroke="#000000" points="394.5,-950.5 394.5,-969.5 435.5,-969.5 435.5,-950.5 394.5,-950.5"/>
<text text-anchor="middle" x="415" y="-957.5" font-family="Helvetica,sans-Serif" font-size="10.00" fill="#000000">Angle</text>
</a>
</g>
</g>
<!-- Node12&#45;&gt;Node13 -->
<g id="edge13" class="edge">
<title>Node12&#45;&gt;Node13</title>
<path fill="none" stroke="#191970" d="M295.6503,-899.2436C313.9897,-911.4697 340.9985,-928.5793 366,-941 374.9884,-945.4654 385.2993,-949.6014 394.1367,-952.8665"/>
<polygon fill="#191970" stroke="#191970" points="297.3968,-896.2 287.1488,-893.5112 293.4833,-902.0039 297.3968,-896.2"/>
</g>
<!-- Node14 -->
<g id="node15" class="node">
<title>Node14</title>
<g id="a_node15"><a xlink:href="classDerivative.html" target="_top" xlink:title="Handles the exponentiation of one Abstract wrt another. ">
<polygon fill="#ffffff" stroke="#000000" points="384.5,-912.5 384.5,-931.5 445.5,-931.5 445.5,-912.5 384.5,-912.5"/>
<text text-anchor="middle" x="415" y="-919.5" font-family="Helvetica,sans-Serif" font-size="10.00" fill="#000000">Derivative</text>
</a>
</g>
</g>
<!-- Node12&#45;&gt;Node14 -->
<g id="edge14" class="edge">
<title>Node12&#45;&gt;Node14</title>
<path fill="none" stroke="#191970" d="M319.0129,-896.2225C340.285,-901.9352 365.06,-908.5886 384.1112,-913.7048"/>
<polygon fill="#191970" stroke="#191970" points="319.772,-892.8025 309.2064,-893.589 317.9564,-899.5629 319.772,-892.8025"/>
</g>
<!-- Node15 -->
<g id="node16" class="node">
<title>Node15</title>
<g id="a_node16"><a xlink:href="classFraction.html" target="_top" xlink:title="Handles a fraction of 2 arguments. ">
<polygon fill="#ffffff" stroke="#000000" points="389,-874.5 389,-893.5 441,-893.5 441,-874.5 389,-874.5"/>
<text text-anchor="middle" x="415" y="-881.5" font-family="Helvetica,sans-Serif" font-size="10.00" fill="#000000">Fraction</text>
</a>
</g>
</g>
<!-- Node12&#45;&gt;Node15 -->
<g id="edge15" class="edge">
<title>Node12&#45;&gt;Node15</title>
<path fill="none" stroke="#191970" d="M330.3414,-884C350.6372,-884 372.5228,-884 388.9566,-884"/>
<polygon fill="#191970" stroke="#191970" points="330.2246,-880.5001 320.2245,-884 330.2245,-887.5001 330.2246,-880.5001"/>
</g>
<!-- Node16 -->
<g id="node17" class="node">
<title>Node16</title>
<g id="a_node17"><a xlink:href="classPow.html" target="_top" xlink:title="Handles the exponentiation of one Abstract wrt another. ">
<polygon fill="#ffffff" stroke="#000000" points="397,-836.5 397,-855.5 433,-855.5 433,-836.5 397,-836.5"/>
<text text-anchor="middle" x="415" y="-843.5" font-family="Helvetica,sans-Serif" font-size="10.00" fill="#000000">Pow</text>
</a>
</g>
</g>
<!-- Node12&#45;&gt;Node16 -->
<g id="edge16" class="edge">
<title>Node12&#45;&gt;Node16</title>
<path fill="none" stroke="#191970" d="M319.0026,-871.7802C345.3448,-864.706 377.0614,-856.1885 396.6283,-850.9337"/>
<polygon fill="#191970" stroke="#191970" points="317.9564,-868.4371 309.2064,-874.411 319.772,-875.1975 317.9564,-868.4371"/>
</g>
<!-- Node18 -->
<g id="node19" class="node">
<title>Node18</title>
<g id="a_node19"><a xlink:href="classAbs.html" target="_top" xlink:title="Final specialization of AbstractFunc, the abs function. ">
<polygon fill="#ffffff" stroke="#000000" points="398,-798.5 398,-817.5 432,-817.5 432,-798.5 398,-798.5"/>
<text text-anchor="middle" x="415" y="-805.5" font-family="Helvetica,sans-Serif" font-size="10.00" fill="#000000">Abs</text>
</a>
</g>
</g>
<!-- Node17&#45;&gt;Node18 -->
<g id="edge18" class="edge">
<title>Node17&#45;&gt;Node18</title>
<path fill="none" stroke="#191970" d="M274.3051,-523.8324C277.4205,-574.713 292.5606,-711.3229 366,-789 374.3995,-797.8842 387.4312,-802.6735 397.9443,-805.2206"/>
<polygon fill="#191970" stroke="#191970" points="277.7863,-523.377 273.774,-513.5713 270.7956,-523.7388 277.7863,-523.377"/>
</g>
<!-- Node19 -->
<g id="node20" class="node">
<title>Node19</title>
<g id="a_node20"><a xlink:href="classACos.html" target="_top" xlink:title="Final specialization of AbstractFunc, the acos function. ">
<polygon fill="#ffffff" stroke="#000000" points="394.5,-760.5 394.5,-779.5 435.5,-779.5 435.5,-760.5 394.5,-760.5"/>
<text text-anchor="middle" x="415" y="-767.5" font-family="Helvetica,sans-Serif" font-size="10.00" fill="#000000">ACos</text>
</a>
</g>
</g>
<!-- Node17&#45;&gt;Node19 -->
<g id="edge19" class="edge">
<title>Node17&#45;&gt;Node19</title>
<path fill="none" stroke="#191970" d="M275.4401,-523.6278C280.9969,-569.5863 301.0101,-685.2532 366,-751 373.5688,-758.657 384.5708,-763.292 394.233,-766.0641"/>
<polygon fill="#191970" stroke="#191970" points="278.9001,-523.072 274.3203,-513.5181 271.9426,-523.8427 278.9001,-523.072"/>
</g>
<!-- Node20 -->
<g id="node21" class="node">
<title>Node20</title>
<g id="a_node21"><a xlink:href="classACosh.html" target="_top" xlink:title="Final specialization of AbstractFunc, the acosh function. ">
<polygon fill="#ffffff" stroke="#000000" points="391.5,-722.5 391.5,-741.5 438.5,-741.5 438.5,-722.5 391.5,-722.5"/>
<text text-anchor="middle" x="415" y="-729.5" font-family="Helvetica,sans-Serif" font-size="10.00" fill="#000000">ACosh</text>
</a>
</g>
</g>
<!-- Node17&#45;&gt;Node20 -->
<g id="edge20" class="edge">
<title>Node17&#45;&gt;Node20</title>
<path fill="none" stroke="#191970" d="M277.0235,-523.8841C285.2748,-564.8174 309.5859,-659.1642 366,-713 372.9968,-719.677 382.6003,-724.0822 391.4523,-726.952"/>
<polygon fill="#191970" stroke="#191970" points="280.4184,-523.0016 275.1087,-513.8333 273.542,-524.3116 280.4184,-523.0016"/>
</g>
<!-- Node21 -->
<g id="node22" class="node">
<title>Node21</title>
<g id="a_node22"><a xlink:href="classASin.html" target="_top" xlink:title="Final specialization of AbstractFunc, the asin function. ">
<polygon fill="#ffffff" stroke="#000000" points="396,-684.5 396,-703.5 434,-703.5 434,-684.5 396,-684.5"/>
<text text-anchor="middle" x="415" y="-691.5" font-family="Helvetica,sans-Serif" font-size="10.00" fill="#000000">ASin</text>
</a>
</g>
</g>
<!-- Node17&#45;&gt;Node21 -->
<g id="edge21" class="edge">
<title>Node17&#45;&gt;Node21</title>
<path fill="none" stroke="#191970" d="M279.1125,-523.5634C290.1253,-558.6359 317.7894,-632.5089 366,-675 374.3508,-682.3601 385.8708,-687.0202 395.6427,-689.8822"/>
<polygon fill="#191970" stroke="#191970" points="282.3548,-522.1925 276.117,-513.6286 275.6528,-524.2132 282.3548,-522.1925"/>
</g>
<!-- Node22 -->
<g id="node23" class="node">
<title>Node22</title>
<g id="a_node23"><a xlink:href="classASinh.html" target="_top" xlink:title="Final specialization of AbstractFunc, the asinh function. ">
<polygon fill="#ffffff" stroke="#000000" points="393.5,-646.5 393.5,-665.5 436.5,-665.5 436.5,-646.5 393.5,-646.5"/>
<text text-anchor="middle" x="415" y="-653.5" font-family="Helvetica,sans-Serif" font-size="10.00" fill="#000000">ASinh</text>
</a>
</g>
</g>
<!-- Node17&#45;&gt;Node22 -->
<g id="edge22" class="edge">
<title>Node17&#45;&gt;Node22</title>
<path fill="none" stroke="#191970" d="M282.2048,-523.1286C296.0897,-551.6665 325.8354,-605.4073 366,-637 373.8886,-643.205 384.0448,-647.5856 393.0635,-650.5639"/>
<polygon fill="#191970" stroke="#191970" points="285.2539,-521.3887 277.817,-513.8426 278.9248,-524.3793 285.2539,-521.3887"/>
</g>
<!-- Node23 -->
<g id="node24" class="node">
<title>Node23</title>
<g id="a_node24"><a xlink:href="classATan.html" target="_top" xlink:title="Final specialization of AbstractFunc, the atan function. ">
<polygon fill="#ffffff" stroke="#000000" points="395,-608.5 395,-627.5 435,-627.5 435,-608.5 395,-608.5"/>
<text text-anchor="middle" x="415" y="-615.5" font-family="Helvetica,sans-Serif" font-size="10.00" fill="#000000">ATan</text>
</a>
</g>
</g>
<!-- Node17&#45;&gt;Node23 -->
<g id="edge23" class="edge">
<title>Node17&#45;&gt;Node23</title>
<path fill="none" stroke="#191970" d="M286.8253,-521.744C303.3673,-542.7053 333.407,-577.4444 366,-599 374.8279,-604.8384 385.7164,-609.2869 394.9854,-612.4063"/>
<polygon fill="#191970" stroke="#191970" points="289.4791,-519.4542 280.5942,-513.6827 283.9407,-523.7351 289.4791,-519.4542"/>
</g>
<!-- Node24 -->
<g id="node25" class="node">
<title>Node24</title>
<g id="a_node25"><a xlink:href="classATanh.html" target="_top" xlink:title="Final specialization of AbstractFunc, the atanh function. ">
<polygon fill="#ffffff" stroke="#000000" points="392.5,-570.5 392.5,-589.5 437.5,-589.5 437.5,-570.5 392.5,-570.5"/>
<text text-anchor="middle" x="415" y="-577.5" font-family="Helvetica,sans-Serif" font-size="10.00" fill="#000000">ATanh</text>
</a>
</g>
</g>
<!-- Node17&#45;&gt;Node24 -->
<g id="edge24" class="edge">
<title>Node17&#45;&gt;Node24</title>
<path fill="none" stroke="#191970" d="M295.6503,-519.2436C313.9897,-531.4697 340.9985,-548.5793 366,-561 374.3347,-565.1407 383.8066,-568.998 392.1862,-572.1405"/>
<polygon fill="#191970" stroke="#191970" points="297.3968,-516.2 287.1488,-513.5112 293.4833,-522.0039 297.3968,-516.2"/>
</g>
<!-- Node25 -->
<g id="node26" class="node">
<title>Node25</title>
<g id="a_node26"><a xlink:href="classCos.html" target="_top" xlink:title="Final specialization of AbstractFunc, the cos function. ">
<polygon fill="#ffffff" stroke="#000000" points="397.5,-532.5 397.5,-551.5 432.5,-551.5 432.5,-532.5 397.5,-532.5"/>
<text text-anchor="middle" x="415" y="-539.5" font-family="Helvetica,sans-Serif" font-size="10.00" fill="#000000">Cos</text>
</a>
</g>
</g>
<!-- Node17&#45;&gt;Node25 -->
<g id="edge25" class="edge">
<title>Node17&#45;&gt;Node25</title>
<path fill="none" stroke="#191970" d="M319.1215,-516.2517C345.7899,-523.4135 377.9329,-532.0456 397.4007,-537.2737"/>
<polygon fill="#191970" stroke="#191970" points="319.772,-512.8025 309.2064,-513.589 317.9564,-519.5629 319.772,-512.8025"/>
</g>
<!-- Node26 -->
<g id="node27" class="node">
<title>Node26</title>
<g id="a_node27"><a xlink:href="classCosh.html" target="_top" xlink:title="Final specialization of AbstractFunc, the cosh function. ">
<polygon fill="#ffffff" stroke="#000000" points="395,-494.5 395,-513.5 435,-513.5 435,-494.5 395,-494.5"/>
<text text-anchor="middle" x="415" y="-501.5" font-family="Helvetica,sans-Serif" font-size="10.00" fill="#000000">Cosh</text>
</a>
</g>
</g>
<!-- Node17&#45;&gt;Node26 -->
<g id="edge26" class="edge">
<title>Node17&#45;&gt;Node26</title>
<path fill="none" stroke="#191970" d="M321.1286,-504C346.2103,-504 375.6477,-504 394.7782,-504"/>
<polygon fill="#191970" stroke="#191970" points="321.0479,-500.5001 311.0479,-504 321.0479,-507.5001 321.0479,-500.5001"/>
</g>
<!-- Node27 -->
<g id="node28" class="node">
<title>Node27</title>
<g id="a_node28"><a xlink:href="classExp.html" target="_top" xlink:title="Final specialization of AbstractFunc, the exponential function. ">
<polygon fill="#ffffff" stroke="#000000" points="398,-456.5 398,-475.5 432,-475.5 432,-456.5 398,-456.5"/>
<text text-anchor="middle" x="415" y="-463.5" font-family="Helvetica,sans-Serif" font-size="10.00" fill="#000000">Exp</text>
</a>
</g>
</g>
<!-- Node17&#45;&gt;Node27 -->
<g id="edge27" class="edge">
<title>Node17&#45;&gt;Node27</title>
<path fill="none" stroke="#191970" d="M319.1809,-491.7323C346.0125,-484.5267 378.369,-475.8373 397.782,-470.6239"/>
<polygon fill="#191970" stroke="#191970" points="317.9564,-488.4371 309.2064,-494.411 319.772,-495.1975 317.9564,-488.4371"/>
</g>
<!-- Node28 -->
<g id="node29" class="node">
<title>Node28</title>
<g id="a_node29"><a xlink:href="classFactorial.html" target="_top" xlink:title="Final specialization of AbstractFunc, the factorial function. ">
<polygon fill="#ffffff" stroke="#000000" points="388,-418.5 388,-437.5 442,-437.5 442,-418.5 388,-418.5"/>
<text text-anchor="middle" x="415" y="-425.5" font-family="Helvetica,sans-Serif" font-size="10.00" fill="#000000">Factorial</text>
</a>
</g>
</g>
<!-- Node17&#45;&gt;Node28 -->
<g id="edge28" class="edge">
<title>Node17&#45;&gt;Node28</title>
<path fill="none" stroke="#191970" d="M295.6503,-488.7564C313.9897,-476.5303 340.9985,-459.4207 366,-447 372.9456,-443.5495 380.6809,-440.2956 387.9157,-437.4883"/>
<polygon fill="#191970" stroke="#191970" points="293.4833,-485.9961 287.1488,-494.4888 297.3968,-491.8 293.4833,-485.9961"/>
</g>
<!-- Node29 -->
<g id="node30" class="node">
<title>Node29</title>
<g id="a_node30"><a xlink:href="classLog.html" target="_top" xlink:title="Final specialization of AbstractFunc, the logarithm function. ">
<polygon fill="#ffffff" stroke="#000000" points="399,-380.5 399,-399.5 431,-399.5 431,-380.5 399,-380.5"/>
<text text-anchor="middle" x="415" y="-387.5" font-family="Helvetica,sans-Serif" font-size="10.00" fill="#000000">Log</text>
</a>
</g>
</g>
<!-- Node17&#45;&gt;Node29 -->
<g id="edge29" class="edge">
<title>Node17&#45;&gt;Node29</title>
<path fill="none" stroke="#191970" d="M286.8253,-486.256C303.3673,-465.2947 333.407,-430.5556 366,-409 376.0456,-402.3563 388.7592,-397.5124 398.7187,-394.3786"/>
<polygon fill="#191970" stroke="#191970" points="283.9407,-484.2649 280.5942,-494.3173 289.4791,-488.5458 283.9407,-484.2649"/>
</g>
<!-- Node30 -->
<g id="node31" class="node">
<title>Node30</title>
<g id="a_node31"><a xlink:href="classSin.html" target="_top" xlink:title="Final specialization of AbstractFunc, the sin function. ">
<polygon fill="#ffffff" stroke="#000000" points="399.5,-342.5 399.5,-361.5 430.5,-361.5 430.5,-342.5 399.5,-342.5"/>
<text text-anchor="middle" x="415" y="-349.5" font-family="Helvetica,sans-Serif" font-size="10.00" fill="#000000">Sin</text>
</a>
</g>
</g>
<!-- Node17&#45;&gt;Node30 -->
<g id="edge30" class="edge">
<title>Node17&#45;&gt;Node30</title>
<path fill="none" stroke="#191970" d="M282.2048,-484.8714C296.0897,-456.3335 325.8354,-402.5927 366,-371 375.7531,-363.3284 388.9727,-358.4455 399.2229,-355.5536"/>
<polygon fill="#191970" stroke="#191970" points="278.9248,-483.6207 277.817,-494.1574 285.2539,-486.6113 278.9248,-483.6207"/>
</g>
<!-- Node31 -->
<g id="node32" class="node">
<title>Node31</title>
<g id="a_node32"><a xlink:href="classSinh.html" target="_top" xlink:title="Final specialization of AbstractFunc, the sinh function. ">
<polygon fill="#ffffff" stroke="#000000" points="397,-304.5 397,-323.5 433,-323.5 433,-304.5 397,-304.5"/>
<text text-anchor="middle" x="415" y="-311.5" font-family="Helvetica,sans-Serif" font-size="10.00" fill="#000000">Sinh</text>
</a>
</g>
</g>
<!-- Node17&#45;&gt;Node31 -->
<g id="edge31" class="edge">
<title>Node17&#45;&gt;Node31</title>
<path fill="none" stroke="#191970" d="M279.1125,-484.4366C290.1253,-449.3641 317.7894,-375.4911 366,-333 374.6246,-325.3986 386.6296,-320.6771 396.598,-317.842"/>
<polygon fill="#191970" stroke="#191970" points="275.6528,-483.7868 276.117,-494.3714 282.3548,-485.8075 275.6528,-483.7868"/>
</g>
<!-- Node32 -->
<g id="node33" class="node">
<title>Node32</title>
<g id="a_node33"><a xlink:href="classTan.html" target="_top" xlink:title="Final specialization of AbstractFunc, the tan function. ">
<polygon fill="#ffffff" stroke="#000000" points="398.5,-266.5 398.5,-285.5 431.5,-285.5 431.5,-266.5 398.5,-266.5"/>
<text text-anchor="middle" x="415" y="-273.5" font-family="Helvetica,sans-Serif" font-size="10.00" fill="#000000">Tan</text>
</a>
</g>
</g>
<!-- Node17&#45;&gt;Node32 -->
<g id="edge32" class="edge">
<title>Node17&#45;&gt;Node32</title>
<path fill="none" stroke="#191970" d="M277.0235,-484.1159C285.2748,-443.1826 309.5859,-348.8358 366,-295 374.845,-286.5592 387.8558,-281.7491 398.2478,-279.0815"/>
<polygon fill="#191970" stroke="#191970" points="273.542,-483.6884 275.1087,-494.1667 280.4184,-484.9984 273.542,-483.6884"/>
</g>
<!-- Node33 -->
<g id="node34" class="node">
<title>Node33</title>
<g id="a_node34"><a xlink:href="classTanh.html" target="_top" xlink:title="Final specialization of AbstractFunc, the tanh function. ">
<polygon fill="#ffffff" stroke="#000000" points="396,-228.5 396,-247.5 434,-247.5 434,-228.5 396,-228.5"/>
<text text-anchor="middle" x="415" y="-235.5" font-family="Helvetica,sans-Serif" font-size="10.00" fill="#000000">Tanh</text>
</a>
</g>
</g>
<!-- Node17&#45;&gt;Node33 -->
<g id="edge33" class="edge">
<title>Node17&#45;&gt;Node33</title>
<path fill="none" stroke="#191970" d="M275.4401,-484.3722C280.9969,-438.4137 301.0101,-322.7468 366,-257 373.9537,-248.9537 385.6986,-244.2445 395.6958,-241.5274"/>
<polygon fill="#191970" stroke="#191970" points="271.9426,-484.1573 274.3203,-494.4819 278.9001,-484.928 271.9426,-484.1573"/>
</g>
<!-- Node35 -->
<g id="node36" class="node">
<title>Node35</title>
<g id="a_node36"><a xlink:href="classIndexed.html" target="_top" xlink:title="Indexed">
<polygon fill="#ffffff" stroke="#000000" points="389.5,-190.5 389.5,-209.5 440.5,-209.5 440.5,-190.5 389.5,-190.5"/>
<text text-anchor="middle" x="415" y="-197.5" font-family="Helvetica,sans-Serif" font-size="10.00" fill="#000000">Indexed</text>
</a>
</g>
</g>
<!-- Node34&#45;&gt;Node35 -->
<g id="edge35" class="edge">
<title>Node34&#45;&gt;Node35</title>
<path fill="none" stroke="#191970" d="M325.6555,-200C347.3525,-200 371.5608,-200 389.2998,-200"/>
<polygon fill="#191970" stroke="#191970" points="325.5716,-196.5001 315.5716,-200 325.5715,-203.5001 325.5716,-196.5001"/>
</g>
<!-- Node36 -->
<g id="node37" class="node">
<title>Node36</title>
<g id="a_node37"><a xlink:href="classITensor.html" target="_top" xlink:title="ITensor">
<polygon fill="#ffffff" stroke="#000000" points="390,-152.5 390,-171.5 440,-171.5 440,-152.5 390,-152.5"/>
<text text-anchor="middle" x="415" y="-159.5" font-family="Helvetica,sans-Serif" font-size="10.00" fill="#000000">ITensor</text>
</a>
</g>
</g>
<!-- Node34&#45;&gt;Node36 -->
<g id="edge36" class="edge">
<title>Node34&#45;&gt;Node36</title>
<path fill="none" stroke="#191970" d="M318.933,-187.7989C342.3193,-181.5185 369.9566,-174.0965 389.5699,-168.8293"/>
<polygon fill="#191970" stroke="#191970" points="317.9564,-184.4371 309.2064,-190.411 319.772,-191.1975 317.9564,-184.4371"/>
</g>
<!-- Node38 -->
<g id="node39" class="node">
<title>Node38</title>
<g id="a_node39"><a xlink:href="classPlus.html" target="_top" xlink:title="Handles a sum, function of multiple arguments. ">
<polygon fill="#ffffff" stroke="#000000" points="397,-114.5 397,-133.5 433,-133.5 433,-114.5 397,-114.5"/>
<text text-anchor="middle" x="415" y="-121.5" font-family="Helvetica,sans-Serif" font-size="10.00" fill="#000000">Plus</text>
</a>
</g>
</g>
<!-- Node37&#45;&gt;Node38 -->
<g id="edge38" class="edge">
<title>Node37&#45;&gt;Node38</title>
<path fill="none" stroke="#191970" d="M331.9574,-124C355.182,-124 380.2297,-124 396.6724,-124"/>
<polygon fill="#191970" stroke="#191970" points="331.8005,-120.5001 321.8005,-124 331.8005,-127.5001 331.8005,-120.5001"/>
</g>
<!-- Node39 -->
<g id="node40" class="node">
<title>Node39</title>
<g id="a_node40"><a xlink:href="classPolynomial.html" target="_top" xlink:title="Handles a polynomial, function of multiple arguments. ">
<polygon fill="#ffffff" stroke="#000000" points="382.5,-76.5 382.5,-95.5 447.5,-95.5 447.5,-76.5 382.5,-76.5"/>
<text text-anchor="middle" x="415" y="-83.5" font-family="Helvetica,sans-Serif" font-size="10.00" fill="#000000">Polynomial</text>
</a>
</g>
</g>
<!-- Node37&#45;&gt;Node39 -->
<g id="edge39" class="edge">
<title>Node37&#45;&gt;Node39</title>
<path fill="none" stroke="#191970" d="M319.0067,-111.7791C339.5812,-106.2538 363.4336,-99.8482 382.2148,-94.8045"/>
<polygon fill="#191970" stroke="#191970" points="317.9564,-108.4371 309.2064,-114.411 319.772,-115.1975 317.9564,-108.4371"/>
</g>
<!-- Node40 -->
<g id="node41" class="node">
<title>Node40</title>
<g id="a_node41"><a xlink:href="classTimes.html" target="_top" xlink:title="Handles a product, function of multiple arguments. ">
<polygon fill="#ffffff" stroke="#000000" points="393,-38.5 393,-57.5 437,-57.5 437,-38.5 393,-38.5"/>
<text text-anchor="middle" x="415" y="-45.5" font-family="Helvetica,sans-Serif" font-size="10.00" fill="#000000">Times</text>
</a>
</g>
</g>
<!-- Node37&#45;&gt;Node40 -->
<g id="edge40" class="edge">
<title>Node37&#45;&gt;Node40</title>
<path fill="none" stroke="#191970" d="M319.9697,-110.4819C323.4628,-108.8352 326.8493,-107.0124 330,-105 349.6063,-92.4769 346.6837,-79.9659 366,-67 374.0302,-61.6098 383.8113,-57.4259 392.5167,-54.3734"/>
<polygon fill="#191970" stroke="#191970" points="318.424,-107.3349 310.5631,-114.4383 321.138,-113.7874 318.424,-107.3349"/>
</g>
<!-- Node42 -->
<g id="node43" class="node">
<title>Node42</title>
<g id="a_node43"><a xlink:href="classHighDTensor.html" target="_top" xlink:title="HighDTensor">
<polygon fill="#ffffff" stroke="#000000" points="236.5,-76.5 236.5,-95.5 310.5,-95.5 310.5,-76.5 236.5,-76.5"/>
<text text-anchor="middle" x="273.5" y="-83.5" font-family="Helvetica,sans-Serif" font-size="10.00" fill="#000000">HighDTensor</text>
</a>
</g>
</g>
<!-- Node41&#45;&gt;Node42 -->
<g id="edge42" class="edge">
<title>Node41&#45;&gt;Node42</title>
<path fill="none" stroke="#191970" d="M191.4202,-74.74C206.5496,-76.8155 222.5257,-79.0071 236.3219,-80.8998"/>
<polygon fill="#191970" stroke="#191970" points="191.5014,-71.2184 181.1185,-73.3267 190.55,-78.1534 191.5014,-71.2184"/>
</g>
<!-- Node43 -->
<g id="node44" class="node">
<title>Node43</title>
<g id="a_node44"><a xlink:href="classMatrix.html" target="_top" xlink:title="Matrix">
<polygon fill="#ffffff" stroke="#000000" points="251.5,-38.5 251.5,-57.5 295.5,-57.5 295.5,-38.5 251.5,-38.5"/>
<text text-anchor="middle" x="273.5" y="-45.5" font-family="Helvetica,sans-Serif" font-size="10.00" fill="#000000">Matrix</text>
</a>
</g>
</g>
<!-- Node41&#45;&gt;Node43 -->
<g id="edge43" class="edge">
<title>Node41&#45;&gt;Node43</title>
<path fill="none" stroke="#191970" d="M191.2824,-59.2789C212.3309,-56.3914 235.0368,-53.2765 251.2428,-51.0533"/>
<polygon fill="#191970" stroke="#191970" points="190.55,-55.8466 181.1185,-60.6733 191.5014,-62.7816 190.55,-55.8466"/>
</g>
<!-- Node44 -->
<g id="node45" class="node">
<title>Node44</title>
<g id="a_node45"><a xlink:href="classVector.html" target="_top" xlink:title="Vector">
<polygon fill="#ffffff" stroke="#000000" points="251,-.5 251,-19.5 296,-19.5 296,-.5 251,-.5"/>
<text text-anchor="middle" x="273.5" y="-7.5" font-family="Helvetica,sans-Serif" font-size="10.00" fill="#000000">Vector</text>
</a>
</g>
</g>
<!-- Node41&#45;&gt;Node44 -->
<g id="edge44" class="edge">
<title>Node41&#45;&gt;Node44</title>
<path fill="none" stroke="#191970" d="M163.1105,-53.0438C178.7877,-45.4969 198.7732,-36.2626 217,-29 227.9596,-24.633 240.3625,-20.3876 250.7498,-17.0215"/>
<polygon fill="#191970" stroke="#191970" points="161.4236,-49.9722 153.9602,-57.492 164.4841,-56.2677 161.4236,-49.9722"/>
</g>
</g>
</svg>
