<?xml version="1.0" encoding="UTF-8" standalone="no"?>
<!DOCTYPE svg PUBLIC "-//W3C//DTD SVG 1.1//EN"
 "http://www.w3.org/Graphics/SVG/1.1/DTD/svg11.dtd">
<!-- Generated by graphviz version 2.40.1 (20161225.0304)
 -->
<!-- Title: Integer Pages: 1 -->
<svg width="212pt" height="263pt"
 viewBox="0.00 0.00 211.50 263.00" xmlns="http://www.w3.org/2000/svg" xmlns:xlink="http://www.w3.org/1999/xlink">
<g id="graph0" class="graph" transform="scale(1 1) rotate(0) translate(4 259)">
<title>Integer</title>
<polygon fill="#ffffff" stroke="transparent" points="-4,4 -4,-259 207.5,-259 207.5,4 -4,4"/>
<!-- Node0 -->
<g id="node1" class="node">
<title>Node0</title>
<polygon fill="#bfbfbf" stroke="#000000" points="72,-.5 72,-19.5 119,-19.5 119,-.5 72,-.5"/>
<text text-anchor="middle" x="95.5" y="-7.5" font-family="Helvetica,sans-Serif" font-size="10.00" fill="#000000">Integer</text>
</g>
<!-- Node1 -->
<g id="node2" class="node">
<title>Node1</title>
<g id="a_node2"><a xlink:href="classAbstractNumerical.html" target="_top" xlink:title="Abstract class from which derive numerical types, i.e. Double, Integer, CFraction. ">
<polygon fill="#ffffff" stroke="#000000" points="46.5,-56.5 46.5,-75.5 144.5,-75.5 144.5,-56.5 46.5,-56.5"/>
<text text-anchor="middle" x="95.5" y="-63.5" font-family="Helvetica,sans-Serif" font-size="10.00" fill="#000000">AbstractNumerical</text>
</a>
</g>
</g>
<!-- Node1&#45;&gt;Node0 -->
<g id="edge1" class="edge">
<title>Node1&#45;&gt;Node0</title>
<path fill="none" stroke="#191970" d="M95.5,-46.1575C95.5,-37.155 95.5,-26.9199 95.5,-19.6427"/>
<polygon fill="#191970" stroke="#191970" points="92.0001,-46.2455 95.5,-56.2455 99.0001,-46.2456 92.0001,-46.2455"/>
</g>
<!-- Node2 -->
<g id="node3" class="node">
<title>Node2</title>
<g id="a_node3"><a xlink:href="classAbstractBuildingBlock.html" target="_top" xlink:title="Abstract class from which derive all building blocks of exprs, i.e. objects not function of further e...">
<polygon fill="#ffffff" stroke="#000000" points="39,-112.5 39,-131.5 152,-131.5 152,-112.5 39,-112.5"/>
<text text-anchor="middle" x="95.5" y="-119.5" font-family="Helvetica,sans-Serif" font-size="10.00" fill="#000000">AbstractBuildingBlock</text>
</a>
</g>
</g>
<!-- Node2&#45;&gt;Node1 -->
<g id="edge2" class="edge">
<title>Node2&#45;&gt;Node1</title>
<path fill="none" stroke="#191970" d="M95.5,-102.1575C95.5,-93.155 95.5,-82.9199 95.5,-75.6427"/>
<polygon fill="#191970" stroke="#191970" points="92.0001,-102.2455 95.5,-112.2455 99.0001,-102.2456 92.0001,-102.2455"/>
</g>
<!-- Node3 -->
<g id="node4" class="node">
<title>Node3</title>
<g id="a_node4"><a xlink:href="classAbstractScalar.html" target="_top" xlink:title="Abstract class concerning all scalars (dim = 0). Allows to implement one time getDim() = 0 for all sc...">
<polygon fill="#ffffff" stroke="#000000" points="0,-174 0,-193 81,-193 81,-174 0,-174"/>
<text text-anchor="middle" x="40.5" y="-181" font-family="Helvetica,sans-Serif" font-size="10.00" fill="#000000">AbstractScalar</text>
</a>
</g>
</g>
<!-- Node3&#45;&gt;Node2 -->
<g id="edge3" class="edge">
<title>Node3&#45;&gt;Node2</title>
<path fill="none" stroke="#191970" d="M55.792,-166.4007C65.785,-155.2268 78.4763,-141.0356 86.7851,-131.7449"/>
<polygon fill="#191970" stroke="#191970" points="53.1511,-164.1034 49.0938,-173.8906 58.3689,-168.7698 53.1511,-164.1034"/>
</g>
<!-- Node4 -->
<g id="node5" class="node">
<title>Node4</title>
<g id="a_node5"><a xlink:href="classAbstract.html" target="_top" xlink:title="Root class of the inheritance tree of abstracts. ">
<polygon fill="#ffffff" stroke="#000000" points="14,-235.5 14,-254.5 67,-254.5 67,-235.5 14,-235.5"/>
<text text-anchor="middle" x="40.5" y="-242.5" font-family="Helvetica,sans-Serif" font-size="10.00" fill="#000000">Abstract</text>
</a>
</g>
</g>
<!-- Node4&#45;&gt;Node3 -->
<g id="edge4" class="edge">
<title>Node4&#45;&gt;Node3</title>
<path fill="none" stroke="#191970" d="M40.5,-225.2462C40.5,-214.5519 40.5,-201.814 40.5,-193.2449"/>
<polygon fill="#191970" stroke="#191970" points="37.0001,-225.3906 40.5,-235.3906 44.0001,-225.3907 37.0001,-225.3906"/>
</g>
<!-- Node5 -->
<g id="node6" class="node">
<title>Node5</title>
<polygon fill="#ffffff" stroke="#bfbfbf" points="99.5,-168.5 99.5,-198.5 203.5,-198.5 203.5,-168.5 99.5,-168.5"/>
<text text-anchor="start" x="107.5" y="-186.5" font-family="Helvetica,sans-Serif" font-size="10.00" fill="#000000">enable_shared_from</text>
<text text-anchor="middle" x="151.5" y="-175.5" font-family="Helvetica,sans-Serif" font-size="10.00" fill="#000000">_this&lt; Abstract &gt;</text>
</g>
<!-- Node5&#45;&gt;Node2 -->
<g id="edge5" class="edge">
<title>Node5&#45;&gt;Node2</title>
<path fill="none" stroke="#191970" d="M130.7089,-160.6669C121.6578,-150.7269 111.5284,-139.6026 104.4663,-131.8469"/>
<polygon fill="#191970" stroke="#191970" points="128.3367,-163.2602 137.6573,-168.2977 133.5125,-158.5473 128.3367,-163.2602"/>
</g>
</g>
</svg>
