<?xml version="1.0" encoding="UTF-8" standalone="no"?>
<!DOCTYPE svg PUBLIC "-//W3C//DTD SVG 1.1//EN"
 "http://www.w3.org/Graphics/SVG/1.1/DTD/svg11.dtd">
<!-- Generated by graphviz version 2.40.1 (20161225.0304)
 -->
<!-- Title: AbstractBuildingBlock Pages: 1 -->
<svg width="500pt" height="263pt"
 viewBox="0.00 0.00 499.50 263.00" xmlns="http://www.w3.org/2000/svg" xmlns:xlink="http://www.w3.org/1999/xlink">
<g id="graph0" class="graph" transform="scale(1 1) rotate(0) translate(4 259)">
<title>AbstractBuildingBlock</title>
<polygon fill="#ffffff" stroke="transparent" points="-4,4 -4,-259 495.5,-259 495.5,4 -4,4"/>
<!-- Node0 -->
<g id="node1" class="node">
<title>Node0</title>
<polygon fill="#bfbfbf" stroke="#000000" points="201.5,-112.5 201.5,-131.5 314.5,-131.5 314.5,-112.5 201.5,-112.5"/>
<text text-anchor="middle" x="258" y="-119.5" font-family="Helvetica,sans-Serif" font-size="10.00" fill="#000000">AbstractBuildingBlock</text>
</g>
<!-- Node4 -->
<g id="node5" class="node">
<title>Node4</title>
<g id="a_node5"><a xlink:href="classAbstractLiteral.html" target="_top" xlink:title="Abstract class from which derive literal building blocks: Constant, Variable, Imaginary and CFactoria...">
<polygon fill="#ffffff" stroke="#000000" points="144,-56.5 144,-75.5 224,-75.5 224,-56.5 144,-56.5"/>
<text text-anchor="middle" x="184" y="-63.5" font-family="Helvetica,sans-Serif" font-size="10.00" fill="#000000">AbstractLiteral</text>
</a>
</g>
</g>
<!-- Node0&#45;&gt;Node4 -->
<g id="edge4" class="edge">
<title>Node0&#45;&gt;Node4</title>
<path fill="none" stroke="#191970" d="M237.1343,-106.2097C224.1375,-96.3743 207.8378,-84.0394 196.7421,-75.6427"/>
<polygon fill="#191970" stroke="#191970" points="235.024,-109.002 245.1102,-112.2455 239.2482,-103.4201 235.024,-109.002"/>
</g>
<!-- Node9 -->
<g id="node10" class="node">
<title>Node9</title>
<g id="a_node10"><a xlink:href="classAbstractNumerical.html" target="_top" xlink:title="Abstract class from which derive numerical types, i.e. Double, Integer, CFraction. ">
<polygon fill="#ffffff" stroke="#000000" points="318,-56.5 318,-75.5 416,-75.5 416,-56.5 318,-56.5"/>
<text text-anchor="middle" x="367" y="-63.5" font-family="Helvetica,sans-Serif" font-size="10.00" fill="#000000">AbstractNumerical</text>
</a>
</g>
</g>
<!-- Node0&#45;&gt;Node9 -->
<g id="edge9" class="edge">
<title>Node0&#45;&gt;Node9</title>
<path fill="none" stroke="#191970" d="M286.0342,-107.5971C305.5746,-97.558 331.1092,-84.4393 348.2312,-75.6427"/>
<polygon fill="#191970" stroke="#191970" points="284.2817,-104.5625 276.9864,-112.2455 287.4806,-110.7889 284.2817,-104.5625"/>
</g>
<!-- Node1 -->
<g id="node2" class="node">
<title>Node1</title>
<g id="a_node2"><a xlink:href="classAbstractScalar.html" target="_top" xlink:title="Abstract class concerning all scalars (dim = 0). Allows to implement one time getDim() = 0 for all sc...">
<polygon fill="#ffffff" stroke="#000000" points="162.5,-174 162.5,-193 243.5,-193 243.5,-174 162.5,-174"/>
<text text-anchor="middle" x="203" y="-181" font-family="Helvetica,sans-Serif" font-size="10.00" fill="#000000">AbstractScalar</text>
</a>
</g>
</g>
<!-- Node1&#45;&gt;Node0 -->
<g id="edge1" class="edge">
<title>Node1&#45;&gt;Node0</title>
<path fill="none" stroke="#191970" d="M218.292,-166.4007C228.285,-155.2268 240.9763,-141.0356 249.2851,-131.7449"/>
<polygon fill="#191970" stroke="#191970" points="215.6511,-164.1034 211.5938,-173.8906 220.8689,-168.7698 215.6511,-164.1034"/>
</g>
<!-- Node2 -->
<g id="node3" class="node">
<title>Node2</title>
<g id="a_node3"><a xlink:href="classAbstract.html" target="_top" xlink:title="Root class of the inheritance tree of abstracts. ">
<polygon fill="#ffffff" stroke="#000000" points="176.5,-235.5 176.5,-254.5 229.5,-254.5 229.5,-235.5 176.5,-235.5"/>
<text text-anchor="middle" x="203" y="-242.5" font-family="Helvetica,sans-Serif" font-size="10.00" fill="#000000">Abstract</text>
</a>
</g>
</g>
<!-- Node2&#45;&gt;Node1 -->
<g id="edge2" class="edge">
<title>Node2&#45;&gt;Node1</title>
<path fill="none" stroke="#191970" d="M203,-225.2462C203,-214.5519 203,-201.814 203,-193.2449"/>
<polygon fill="#191970" stroke="#191970" points="199.5001,-225.3906 203,-235.3906 206.5001,-225.3907 199.5001,-225.3906"/>
</g>
<!-- Node3 -->
<g id="node4" class="node">
<title>Node3</title>
<polygon fill="#ffffff" stroke="#bfbfbf" points="262,-168.5 262,-198.5 366,-198.5 366,-168.5 262,-168.5"/>
<text text-anchor="start" x="270" y="-186.5" font-family="Helvetica,sans-Serif" font-size="10.00" fill="#000000">enable_shared_from</text>
<text text-anchor="middle" x="314" y="-175.5" font-family="Helvetica,sans-Serif" font-size="10.00" fill="#000000">_this&lt; Abstract &gt;</text>
</g>
<!-- Node3&#45;&gt;Node0 -->
<g id="edge3" class="edge">
<title>Node3&#45;&gt;Node0</title>
<path fill="none" stroke="#191970" d="M293.2089,-160.6669C284.1578,-150.7269 274.0284,-139.6026 266.9663,-131.8469"/>
<polygon fill="#191970" stroke="#191970" points="290.8367,-163.2602 300.1573,-168.2977 296.0125,-158.5473 290.8367,-163.2602"/>
</g>
<!-- Node5 -->
<g id="node6" class="node">
<title>Node5</title>
<g id="a_node6"><a xlink:href="classCFactorial.html" target="_top" xlink:title="Handles factorial of a Number. ">
<polygon fill="#ffffff" stroke="#000000" points="0,-.5 0,-19.5 62,-19.5 62,-.5 0,-.5"/>
<text text-anchor="middle" x="31" y="-7.5" font-family="Helvetica,sans-Serif" font-size="10.00" fill="#000000">CFactorial</text>
</a>
</g>
</g>
<!-- Node4&#45;&gt;Node5 -->
<g id="edge5" class="edge">
<title>Node4&#45;&gt;Node5</title>
<path fill="none" stroke="#191970" d="M148.2721,-52.9231C120.3029,-42.686 82.0607,-28.6889 56.9584,-19.5011"/>
<polygon fill="#191970" stroke="#191970" points="147.1046,-56.2228 157.6984,-56.3733 149.5106,-49.6493 147.1046,-56.2228"/>
</g>
<!-- Node6 -->
<g id="node7" class="node">
<title>Node6</title>
<g id="a_node7"><a xlink:href="classConstant.html" target="_top" xlink:title="Handle an object with a name and a value. ">
<polygon fill="#ffffff" stroke="#000000" points="80,-.5 80,-19.5 136,-19.5 136,-.5 80,-.5"/>
<text text-anchor="middle" x="108" y="-7.5" font-family="Helvetica,sans-Serif" font-size="10.00" fill="#000000">Constant</text>
</a>
</g>
</g>
<!-- Node4&#45;&gt;Node6 -->
<g id="edge6" class="edge">
<title>Node4&#45;&gt;Node6</title>
<path fill="none" stroke="#191970" d="M162.5703,-50.2097C149.2223,-40.3743 132.4821,-28.0394 121.0865,-19.6427"/>
<polygon fill="#191970" stroke="#191970" points="160.635,-53.1312 170.7618,-56.2455 164.7874,-47.4958 160.635,-53.1312"/>
</g>
<!-- Node7 -->
<g id="node8" class="node">
<title>Node7</title>
<g id="a_node8"><a xlink:href="classImaginary.html" target="_top" xlink:title="Numerical representation of i. ">
<polygon fill="#ffffff" stroke="#000000" points="154.5,-.5 154.5,-19.5 213.5,-19.5 213.5,-.5 154.5,-.5"/>
<text text-anchor="middle" x="184" y="-7.5" font-family="Helvetica,sans-Serif" font-size="10.00" fill="#000000">Imaginary</text>
</a>
</g>
</g>
<!-- Node4&#45;&gt;Node7 -->
<g id="edge7" class="edge">
<title>Node4&#45;&gt;Node7</title>
<path fill="none" stroke="#191970" d="M184,-46.1575C184,-37.155 184,-26.9199 184,-19.6427"/>
<polygon fill="#191970" stroke="#191970" points="180.5001,-46.2455 184,-56.2455 187.5001,-46.2456 180.5001,-46.2455"/>
</g>
<!-- Node8 -->
<g id="node9" class="node">
<title>Node8</title>
<g id="a_node9"><a xlink:href="classVariable.html" target="_top" xlink:title="Handle an object with a name and a value. ">
<polygon fill="#ffffff" stroke="#000000" points="232,-.5 232,-19.5 284,-19.5 284,-.5 232,-.5"/>
<text text-anchor="middle" x="258" y="-7.5" font-family="Helvetica,sans-Serif" font-size="10.00" fill="#000000">Variable</text>
</a>
</g>
</g>
<!-- Node4&#45;&gt;Node8 -->
<g id="edge8" class="edge">
<title>Node4&#45;&gt;Node8</title>
<path fill="none" stroke="#191970" d="M204.8657,-50.2097C217.8625,-40.3743 234.1622,-28.0394 245.2579,-19.6427"/>
<polygon fill="#191970" stroke="#191970" points="202.7518,-47.4201 196.8898,-56.2455 206.976,-53.002 202.7518,-47.4201"/>
</g>
<!-- Node10 -->
<g id="node11" class="node">
<title>Node10</title>
<g id="a_node11"><a xlink:href="classCFraction.html" target="_top" xlink:title="Handles fractions of Number. ">
<polygon fill="#ffffff" stroke="#000000" points="302.5,-.5 302.5,-19.5 361.5,-19.5 361.5,-.5 302.5,-.5"/>
<text text-anchor="middle" x="332" y="-7.5" font-family="Helvetica,sans-Serif" font-size="10.00" fill="#000000">CFraction</text>
</a>
</g>
</g>
<!-- Node9&#45;&gt;Node10 -->
<g id="edge10" class="edge">
<title>Node9&#45;&gt;Node10</title>
<path fill="none" stroke="#191970" d="M355.5185,-47.6296C349.6804,-38.2887 342.8248,-27.3197 338.0267,-19.6427"/>
<polygon fill="#191970" stroke="#191970" points="352.6354,-49.6206 360.9035,-56.2455 358.5714,-45.9105 352.6354,-49.6206"/>
</g>
<!-- Node11 -->
<g id="node12" class="node">
<title>Node11</title>
<g id="a_node12"><a xlink:href="classDouble.html" target="_top" xlink:title="Handle numbers in expr. ">
<polygon fill="#ffffff" stroke="#000000" points="379.5,-.5 379.5,-19.5 426.5,-19.5 426.5,-.5 379.5,-.5"/>
<text text-anchor="middle" x="403" y="-7.5" font-family="Helvetica,sans-Serif" font-size="10.00" fill="#000000">Double</text>
</a>
</g>
</g>
<!-- Node9&#45;&gt;Node11 -->
<g id="edge11" class="edge">
<title>Node9&#45;&gt;Node11</title>
<path fill="none" stroke="#191970" d="M378.8096,-47.6296C384.8144,-38.2887 391.8659,-27.3197 396.8011,-19.6427"/>
<polygon fill="#191970" stroke="#191970" points="375.7342,-45.9411 373.2707,-56.2455 381.6225,-49.7264 375.7342,-45.9411"/>
</g>
<!-- Node12 -->
<g id="node13" class="node">
<title>Node12</title>
<g id="a_node13"><a xlink:href="classInteger.html" target="_top" xlink:title="Handle numbers in expr. ">
<polygon fill="#ffffff" stroke="#000000" points="444.5,-.5 444.5,-19.5 491.5,-19.5 491.5,-.5 444.5,-.5"/>
<text text-anchor="middle" x="468" y="-7.5" font-family="Helvetica,sans-Serif" font-size="10.00" fill="#000000">Integer</text>
</a>
</g>
</g>
<!-- Node9&#45;&gt;Node12 -->
<g id="edge12" class="edge">
<title>Node9&#45;&gt;Node12</title>
<path fill="none" stroke="#191970" d="M393.4719,-51.3225C411.5125,-41.3198 434.8877,-28.3593 450.6087,-19.6427"/>
<polygon fill="#191970" stroke="#191970" points="391.6413,-48.3354 384.5929,-56.2455 395.0357,-54.4574 391.6413,-48.3354"/>
</g>
</g>
</svg>
