<?xml version="1.0" encoding="UTF-8" standalone="no"?>
<!DOCTYPE svg PUBLIC "-//W3C//DTD SVG 1.1//EN"
 "http://www.w3.org/Graphics/SVG/1.1/DTD/svg11.dtd">
<!-- Generated by graphviz version 2.40.1 (20161225.0304)
 -->
<!-- Title: AbstractScalar Pages: 1 -->
<!--zoomable 1130 -->
<svg id="main" version="1.1" xmlns="http://www.w3.org/2000/svg" xmlns:xlink="http://www.w3.org/1999/xlink" xml:space="preserve" onload="init(evt)">
<style type="text/css"><![CDATA[
.edge:hover path { stroke: red; }
.edge:hover polygon { stroke: red; fill: red; }
]]></style>
<script type="text/javascript"><![CDATA[
var edges = document.getElementsByTagName('g');
if (edges && edges.length) {
  for (var i=0;i<edges.length;i++) {
    if (edges[i].id.substr(0,4)=='edge') {
      edges[i].setAttribute('class','edge');
    }
  }
}
]]></script>
        <defs>
                <circle id="rim" cx="0" cy="0" r="7"/>
                <circle id="rim2" cx="0" cy="0" r="3.5"/>
                <g id="zoomPlus">
                        <use xlink:href="#rim" fill="#404040">
                                <set attributeName="fill" to="#808080" begin="zoomplus.mouseover" end="zoomplus.mouseout"/>
                        </use>
                        <path d="M-4,0h8M0,-4v8" fill="none" stroke="white" stroke-width="1.5" pointer-events="none"/>
                </g>
                <g id="zoomMin">
                        <use xlink:href="#rim" fill="#404040">
                                <set attributeName="fill" to="#808080" begin="zoomminus.mouseover" end="zoomminus.mouseout"/>
                        </use>
                        <path d="M-4,0h8" fill="none" stroke="white" stroke-width="1.5" pointer-events="none"/>
                </g>
                <g id="dirArrow">
                        <path fill="none" stroke="white" stroke-width="1.5" d="M0,-3.0v7 M-2.5,-0.5L0,-3.0L2.5,-0.5"/>
                </g>
               <g id="resetDef">
                       <use xlink:href="#rim2" fill="#404040">
                               <set attributeName="fill" to="#808080" begin="reset.mouseover" end="reset.mouseout"/>
                       </use>
               </g>
        </defs>

<script type="text/javascript">
var viewWidth = 559;
var viewHeight = 1130;
var sectionId = 'dynsection-0';
</script>
<script xlink:href="svgpan.js"/>
<svg id="graph" class="graph">
<g id="viewport">
<title>AbstractScalar</title>
<polygon fill="#ffffff" stroke="transparent" points="-4,4 -4,-1126 555,-1126 555,4 -4,4"/>
<!-- Node0 -->
<g id="node1" class="node">
<title>Node0</title>
<polygon fill="#bfbfbf" stroke="#000000" points="89,-589.5 89,-608.5 170,-608.5 170,-589.5 89,-589.5"/>
<text text-anchor="middle" x="129.5" y="-596.5" font-family="Helvetica,sans-Serif" font-size="10.00" fill="#000000">AbstractScalar</text>
</g>
<!-- Node2 -->
<g id="node3" class="node">
<title>Node2</title>
<g id="a_node3"><a xlink:href="classAbstractBuildingBlock.html" target="_top" xlink:title="Abstract class from which derive all building blocks of exprs, i.e. objects not function of further e...">
<polygon fill="#ffffff" stroke="#000000" points="206,-931.5 206,-950.5 319,-950.5 319,-931.5 206,-931.5"/>
<text text-anchor="middle" x="262.5" y="-938.5" font-family="Helvetica,sans-Serif" font-size="10.00" fill="#000000">AbstractBuildingBlock</text>
</a>
</g>
</g>
<!-- Node0&#45;&gt;Node2 -->
<g id="edge2" class="edge">
<title>Node0&#45;&gt;Node2</title>
<path fill="none" stroke="#191970" d="M136.9173,-618.0731C161.6274,-681.6134 240.6123,-884.7175 258.7588,-931.3799"/>
<polygon fill="#191970" stroke="#191970" points="140.0825,-616.5555 133.196,-608.504 133.5585,-619.0926 140.0825,-616.5555"/>
</g>
<!-- Node15 -->
<g id="node16" class="node">
<title>Node15</title>
<g id="a_node16"><a xlink:href="classAbstractDuoFunc.html" target="_top" xlink:title="Handle functions of multiple arguments. In the case of the call of a simplification function...">
<polygon fill="#ffffff" stroke="#000000" points="216,-760.5 216,-779.5 309,-779.5 309,-760.5 216,-760.5"/>
<text text-anchor="middle" x="262.5" y="-767.5" font-family="Helvetica,sans-Serif" font-size="10.00" fill="#000000">AbstractDuoFunc</text>
</a>
</g>
</g>
<!-- Node0&#45;&gt;Node15 -->
<g id="edge15" class="edge">
<title>Node0&#45;&gt;Node15</title>
<path fill="none" stroke="#191970" d="M143.3497,-616.8068C171.2908,-652.7311 233.5745,-732.8101 255.0509,-760.4226"/>
<polygon fill="#191970" stroke="#191970" points="145.9339,-614.4284 137.0317,-608.6837 140.4084,-618.726 145.9339,-614.4284"/>
</g>
<!-- Node20 -->
<g id="node21" class="node">
<title>Node20</title>
<g id="a_node21"><a xlink:href="classAbstractFunc.html" target="_top" xlink:title="Base class for scalar functions of one argument. ">
<polygon fill="#ffffff" stroke="#000000" points="225,-418.5 225,-437.5 300,-437.5 300,-418.5 225,-418.5"/>
<text text-anchor="middle" x="262.5" y="-425.5" font-family="Helvetica,sans-Serif" font-size="10.00" fill="#000000">AbstractFunc</text>
</a>
</g>
</g>
<!-- Node0&#45;&gt;Node20 -->
<g id="edge20" class="edge">
<title>Node0&#45;&gt;Node20</title>
<path fill="none" stroke="#191970" d="M143.3497,-581.1932C171.2908,-545.2689 233.5745,-465.1899 255.0509,-437.5774"/>
<polygon fill="#191970" stroke="#191970" points="140.4084,-579.274 137.0317,-589.3163 145.9339,-583.5716 140.4084,-579.274"/>
</g>
<!-- Node37 -->
<g id="node38" class="node">
<title>Node37</title>
<g id="a_node38"><a xlink:href="classAbstractMultiFunc.html" target="_top" xlink:title="Handle functions of multiple arguments. In the case of the call of a simplification function...">
<polygon fill="#ffffff" stroke="#000000" points="214.5,-57.5 214.5,-76.5 310.5,-76.5 310.5,-57.5 214.5,-57.5"/>
<text text-anchor="middle" x="262.5" y="-64.5" font-family="Helvetica,sans-Serif" font-size="10.00" fill="#000000">AbstractMultiFunc</text>
</a>
</g>
</g>
<!-- Node0&#45;&gt;Node37 -->
<g id="edge37" class="edge">
<title>Node0&#45;&gt;Node37</title>
<path fill="none" stroke="#191970" d="M134.3976,-579.4095C156.2106,-492.1576 244.1422,-140.4314 260.0323,-76.8709"/>
<polygon fill="#191970" stroke="#191970" points="130.9519,-578.7617 131.922,-589.312 137.7429,-580.4595 130.9519,-578.7617"/>
</g>
<!-- Node1 -->
<g id="node2" class="node">
<title>Node1</title>
<g id="a_node2"><a xlink:href="classAbstract.html" target="_top" xlink:title="Root class of the inheritance tree of abstracts. ">
<polygon fill="#ffffff" stroke="#000000" points="0,-589.5 0,-608.5 53,-608.5 53,-589.5 0,-589.5"/>
<text text-anchor="middle" x="26.5" y="-596.5" font-family="Helvetica,sans-Serif" font-size="10.00" fill="#000000">Abstract</text>
</a>
</g>
</g>
<!-- Node1&#45;&gt;Node0 -->
<g id="edge1" class="edge">
<title>Node1&#45;&gt;Node0</title>
<path fill="none" stroke="#191970" d="M63.1304,-599C71.4016,-599 80.2325,-599 88.6645,-599"/>
<polygon fill="#191970" stroke="#191970" points="63.0251,-595.5001 53.0251,-599 63.025,-602.5001 63.0251,-595.5001"/>
</g>
<!-- Node3 -->
<g id="node4" class="node">
<title>Node3</title>
<g id="a_node4"><a xlink:href="classAbstractIndicial.html" target="_top" xlink:title="AbstractIndicial">
<polygon fill="#ffffff" stroke="#000000" points="362,-1055.5 362,-1074.5 446,-1074.5 446,-1055.5 362,-1055.5"/>
<text text-anchor="middle" x="404" y="-1062.5" font-family="Helvetica,sans-Serif" font-size="10.00" fill="#000000">AbstractIndicial</text>
</a>
</g>
</g>
<!-- Node2&#45;&gt;Node3 -->
<g id="edge3" class="edge">
<title>Node2&#45;&gt;Node3</title>
<path fill="none" stroke="#191970" d="M281.2591,-957.439C311.1872,-983.6658 368.8178,-1034.169 392.9483,-1055.3151"/>
<polygon fill="#191970" stroke="#191970" points="283.4309,-954.6885 273.6033,-950.7301 278.8174,-959.9531 283.4309,-954.6885"/>
</g>
<!-- Node5 -->
<g id="node6" class="node">
<title>Node5</title>
<g id="a_node6"><a xlink:href="classAbstractLiteral.html" target="_top" xlink:title="Abstract class from which derive literal building blocks: Constant, Variable, Imaginary and CFactoria...">
<polygon fill="#ffffff" stroke="#000000" points="364,-969.5 364,-988.5 444,-988.5 444,-969.5 364,-969.5"/>
<text text-anchor="middle" x="404" y="-976.5" font-family="Helvetica,sans-Serif" font-size="10.00" fill="#000000">AbstractLiteral</text>
</a>
</g>
</g>
<!-- Node2&#45;&gt;Node5 -->
<g id="edge5" class="edge">
<title>Node2&#45;&gt;Node5</title>
<path fill="none" stroke="#191970" d="M308.101,-953.2462C327.605,-958.484 350.0404,-964.5091 368.305,-969.4141"/>
<polygon fill="#191970" stroke="#191970" points="308.772,-949.8025 298.2064,-950.589 306.9564,-956.5629 308.772,-949.8025"/>
</g>
<!-- Node11 -->
<g id="node12" class="node">
<title>Node11</title>
<g id="a_node12"><a xlink:href="classAbstractNumerical.html" target="_top" xlink:title="Abstract class from which derive numerical types, i.e. Double, Integer, CFraction. ">
<polygon fill="#ffffff" stroke="#000000" points="355,-874.5 355,-893.5 453,-893.5 453,-874.5 355,-874.5"/>
<text text-anchor="middle" x="404" y="-881.5" font-family="Helvetica,sans-Serif" font-size="10.00" fill="#000000">AbstractNumerical</text>
</a>
</g>
</g>
<!-- Node2&#45;&gt;Node11 -->
<g id="edge11" class="edge">
<title>Node2&#45;&gt;Node11</title>
<path fill="none" stroke="#191970" d="M295.6182,-927.6591C321.5701,-917.205 357.0503,-902.9126 380.2388,-893.5716"/>
<polygon fill="#191970" stroke="#191970" points="294.1518,-924.4764 286.1839,-931.4595 296.7674,-930.9694 294.1518,-924.4764"/>
</g>
<!-- Node4 -->
<g id="node5" class="node">
<title>Node4</title>
<g id="a_node5"><a xlink:href="classITensor.html" target="_top" xlink:title="ITensor">
<polygon fill="#ffffff" stroke="#000000" points="495,-1102.5 495,-1121.5 545,-1121.5 545,-1102.5 495,-1102.5"/>
<text text-anchor="middle" x="520" y="-1109.5" font-family="Helvetica,sans-Serif" font-size="10.00" fill="#000000">ITensor</text>
</a>
</g>
</g>
<!-- Node3&#45;&gt;Node4 -->
<g id="edge4" class="edge">
<title>Node3&#45;&gt;Node4</title>
<path fill="none" stroke="#191970" d="M436.8904,-1078.3263C455.7703,-1085.9759 479.0491,-1095.4078 496.1624,-1102.3417"/>
<polygon fill="#191970" stroke="#191970" points="438.0568,-1075.0226 427.4743,-1074.5112 435.4281,-1081.5103 438.0568,-1075.0226"/>
</g>
<!-- Node6 -->
<g id="node7" class="node">
<title>Node6</title>
<g id="a_node7"><a xlink:href="classArbitrary.html" target="_top" xlink:title="Arbitrary">
<polygon fill="#ffffff" stroke="#000000" points="493.5,-1064.5 493.5,-1083.5 546.5,-1083.5 546.5,-1064.5 493.5,-1064.5"/>
<text text-anchor="middle" x="520" y="-1071.5" font-family="Helvetica,sans-Serif" font-size="10.00" fill="#000000">Arbitrary</text>
</a>
</g>
</g>
<!-- Node5&#45;&gt;Node6 -->
<g id="edge6" class="edge">
<title>Node5&#45;&gt;Node6</title>
<path fill="none" stroke="#191970" d="M421.0328,-995.9015C437.6566,-1011.9834 464.0241,-1036.4158 489,-1055 493.4565,-1058.316 498.5123,-1061.5974 503.2287,-1064.4761"/>
<polygon fill="#191970" stroke="#191970" points="423.3021,-993.2254 413.7036,-988.7398 418.4099,-998.2321 423.3021,-993.2254"/>
</g>
<!-- Node7 -->
<g id="node8" class="node">
<title>Node7</title>
<g id="a_node8"><a xlink:href="classCFactorial.html" target="_top" xlink:title="Handles factorial of a Number. ">
<polygon fill="#ffffff" stroke="#000000" points="489,-1026.5 489,-1045.5 551,-1045.5 551,-1026.5 489,-1026.5"/>
<text text-anchor="middle" x="520" y="-1033.5" font-family="Helvetica,sans-Serif" font-size="10.00" fill="#000000">CFactorial</text>
</a>
</g>
</g>
<!-- Node5&#45;&gt;Node7 -->
<g id="edge7" class="edge">
<title>Node5&#45;&gt;Node7</title>
<path fill="none" stroke="#191970" d="M432.5669,-993.0372C453.7014,-1003.4222 481.9299,-1017.2931 500.5209,-1026.4284"/>
<polygon fill="#191970" stroke="#191970" points="433.9344,-989.8094 423.4158,-988.5405 430.8472,-996.092 433.9344,-989.8094"/>
</g>
<!-- Node8 -->
<g id="node9" class="node">
<title>Node8</title>
<g id="a_node9"><a xlink:href="classConstant.html" target="_top" xlink:title="Handle an object with a name and a value. ">
<polygon fill="#ffffff" stroke="#000000" points="492,-988.5 492,-1007.5 548,-1007.5 548,-988.5 492,-988.5"/>
<text text-anchor="middle" x="520" y="-995.5" font-family="Helvetica,sans-Serif" font-size="10.00" fill="#000000">Constant</text>
</a>
</g>
</g>
<!-- Node5&#45;&gt;Node8 -->
<g id="edge8" class="edge">
<title>Node5&#45;&gt;Node8</title>
<path fill="none" stroke="#191970" d="M454.3911,-987.2537C467.2385,-989.358 480.5928,-991.5454 491.8734,-993.3931"/>
<polygon fill="#191970" stroke="#191970" points="454.6799,-983.7545 444.2456,-985.592 453.5484,-990.6624 454.6799,-983.7545"/>
</g>
<!-- Node9 -->
<g id="node10" class="node">
<title>Node9</title>
<g id="a_node10"><a xlink:href="classImaginary.html" target="_top" xlink:title="Numerical representation of i. ">
<polygon fill="#ffffff" stroke="#000000" points="490.5,-950.5 490.5,-969.5 549.5,-969.5 549.5,-950.5 490.5,-950.5"/>
<text text-anchor="middle" x="520" y="-957.5" font-family="Helvetica,sans-Serif" font-size="10.00" fill="#000000">Imaginary</text>
</a>
</g>
</g>
<!-- Node5&#45;&gt;Node9 -->
<g id="edge9" class="edge">
<title>Node5&#45;&gt;Node9</title>
<path fill="none" stroke="#191970" d="M454.4165,-970.7421C466.7134,-968.728 479.473,-966.638 490.4329,-964.8429"/>
<polygon fill="#191970" stroke="#191970" points="453.5484,-967.3376 444.2456,-972.408 454.6799,-974.2455 453.5484,-967.3376"/>
</g>
<!-- Node10 -->
<g id="node11" class="node">
<title>Node10</title>
<g id="a_node11"><a xlink:href="classVariable.html" target="_top" xlink:title="Handle an object with a name and a value. ">
<polygon fill="#ffffff" stroke="#000000" points="494,-912.5 494,-931.5 546,-931.5 546,-912.5 494,-912.5"/>
<text text-anchor="middle" x="520" y="-919.5" font-family="Helvetica,sans-Serif" font-size="10.00" fill="#000000">Variable</text>
</a>
</g>
</g>
<!-- Node5&#45;&gt;Node10 -->
<g id="edge10" class="edge">
<title>Node5&#45;&gt;Node10</title>
<path fill="none" stroke="#191970" d="M432.5669,-964.9628C453.7014,-954.5778 481.9299,-940.7069 500.5209,-931.5716"/>
<polygon fill="#191970" stroke="#191970" points="430.8472,-961.908 423.4158,-969.4595 433.9344,-968.1906 430.8472,-961.908"/>
</g>
<!-- Node12 -->
<g id="node13" class="node">
<title>Node12</title>
<g id="a_node13"><a xlink:href="classCFraction.html" target="_top" xlink:title="Handles fractions of Number. ">
<polygon fill="#ffffff" stroke="#000000" points="490.5,-874.5 490.5,-893.5 549.5,-893.5 549.5,-874.5 490.5,-874.5"/>
<text text-anchor="middle" x="520" y="-881.5" font-family="Helvetica,sans-Serif" font-size="10.00" fill="#000000">CFraction</text>
</a>
</g>
</g>
<!-- Node11&#45;&gt;Node12 -->
<g id="edge12" class="edge">
<title>Node11&#45;&gt;Node12</title>
<path fill="none" stroke="#191970" d="M463.3068,-884C472.6519,-884 481.9518,-884 490.2354,-884"/>
<polygon fill="#191970" stroke="#191970" points="463.1945,-880.5001 453.1944,-884 463.1944,-887.5001 463.1945,-880.5001"/>
</g>
<!-- Node13 -->
<g id="node14" class="node">
<title>Node13</title>
<g id="a_node14"><a xlink:href="classDouble.html" target="_top" xlink:title="Handle numbers in expr. ">
<polygon fill="#ffffff" stroke="#000000" points="496.5,-836.5 496.5,-855.5 543.5,-855.5 543.5,-836.5 496.5,-836.5"/>
<text text-anchor="middle" x="520" y="-843.5" font-family="Helvetica,sans-Serif" font-size="10.00" fill="#000000">Double</text>
</a>
</g>
</g>
<!-- Node11&#45;&gt;Node13 -->
<g id="edge13" class="edge">
<title>Node11&#45;&gt;Node13</title>
<path fill="none" stroke="#191970" d="M443.2615,-871.1385C460.8285,-865.3838 480.9649,-858.7874 496.2019,-853.7959"/>
<polygon fill="#191970" stroke="#191970" points="441.6852,-867.9718 433.2717,-874.411 443.8644,-874.6239 441.6852,-867.9718"/>
</g>
<!-- Node14 -->
<g id="node15" class="node">
<title>Node14</title>
<g id="a_node15"><a xlink:href="classInteger.html" target="_top" xlink:title="Handle numbers in expr. ">
<polygon fill="#ffffff" stroke="#000000" points="496.5,-798.5 496.5,-817.5 543.5,-817.5 543.5,-798.5 496.5,-798.5"/>
<text text-anchor="middle" x="520" y="-805.5" font-family="Helvetica,sans-Serif" font-size="10.00" fill="#000000">Integer</text>
</a>
</g>
</g>
<!-- Node11&#45;&gt;Node14 -->
<g id="edge14" class="edge">
<title>Node11&#45;&gt;Node14</title>
<path fill="none" stroke="#191970" d="M444.1972,-870.1422C447.2622,-868.5691 450.2349,-866.8561 453,-865 472.3163,-852.0341 470.9268,-841.6491 489,-827 493.1192,-823.6612 497.8728,-820.4678 502.401,-817.6839"/>
<polygon fill="#191970" stroke="#191970" points="442.4644,-867.0866 434.8413,-874.4445 445.389,-873.4464 442.4644,-867.0866"/>
</g>
<!-- Node16 -->
<g id="node17" class="node">
<title>Node16</title>
<g id="a_node17"><a xlink:href="classAngle.html" target="_top" xlink:title="Handles a angle of 2 arguments. ">
<polygon fill="#ffffff" stroke="#000000" points="383.5,-836.5 383.5,-855.5 424.5,-855.5 424.5,-836.5 383.5,-836.5"/>
<text text-anchor="middle" x="404" y="-843.5" font-family="Helvetica,sans-Serif" font-size="10.00" fill="#000000">Angle</text>
</a>
</g>
</g>
<!-- Node15&#45;&gt;Node16 -->
<g id="edge16" class="edge">
<title>Node15&#45;&gt;Node16</title>
<path fill="none" stroke="#191970" d="M284.6503,-785.2436C302.9897,-797.4697 329.9985,-814.5793 355,-827 363.9884,-831.4654 374.2993,-835.6014 383.1367,-838.8665"/>
<polygon fill="#191970" stroke="#191970" points="286.3968,-782.2 276.1488,-779.5112 282.4833,-788.0039 286.3968,-782.2"/>
</g>
<!-- Node17 -->
<g id="node18" class="node">
<title>Node17</title>
<g id="a_node18"><a xlink:href="classDerivative.html" target="_top" xlink:title="Handles the exponentiation of one Abstract wrt another. ">
<polygon fill="#ffffff" stroke="#000000" points="373.5,-798.5 373.5,-817.5 434.5,-817.5 434.5,-798.5 373.5,-798.5"/>
<text text-anchor="middle" x="404" y="-805.5" font-family="Helvetica,sans-Serif" font-size="10.00" fill="#000000">Derivative</text>
</a>
</g>
</g>
<!-- Node15&#45;&gt;Node17 -->
<g id="edge17" class="edge">
<title>Node15&#45;&gt;Node17</title>
<path fill="none" stroke="#191970" d="M308.0129,-782.2225C329.285,-787.9352 354.06,-794.5886 373.1112,-799.7048"/>
<polygon fill="#191970" stroke="#191970" points="308.772,-778.8025 298.2064,-779.589 306.9564,-785.5629 308.772,-778.8025"/>
</g>
<!-- Node18 -->
<g id="node19" class="node">
<title>Node18</title>
<g id="a_node19"><a xlink:href="classFraction.html" target="_top" xlink:title="Handles a fraction of 2 arguments. ">
<polygon fill="#ffffff" stroke="#000000" points="378,-760.5 378,-779.5 430,-779.5 430,-760.5 378,-760.5"/>
<text text-anchor="middle" x="404" y="-767.5" font-family="Helvetica,sans-Serif" font-size="10.00" fill="#000000">Fraction</text>
</a>
</g>
</g>
<!-- Node15&#45;&gt;Node18 -->
<g id="edge18" class="edge">
<title>Node15&#45;&gt;Node18</title>
<path fill="none" stroke="#191970" d="M319.3414,-770C339.6372,-770 361.5228,-770 377.9566,-770"/>
<polygon fill="#191970" stroke="#191970" points="319.2246,-766.5001 309.2245,-770 319.2245,-773.5001 319.2246,-766.5001"/>
</g>
<!-- Node19 -->
<g id="node20" class="node">
<title>Node19</title>
<g id="a_node20"><a xlink:href="classPow.html" target="_top" xlink:title="Handles the exponentiation of one Abstract wrt another. ">
<polygon fill="#ffffff" stroke="#000000" points="386,-722.5 386,-741.5 422,-741.5 422,-722.5 386,-722.5"/>
<text text-anchor="middle" x="404" y="-729.5" font-family="Helvetica,sans-Serif" font-size="10.00" fill="#000000">Pow</text>
</a>
</g>
</g>
<!-- Node15&#45;&gt;Node19 -->
<g id="edge19" class="edge">
<title>Node15&#45;&gt;Node19</title>
<path fill="none" stroke="#191970" d="M308.0026,-757.7802C334.3448,-750.706 366.0614,-742.1885 385.6283,-736.9337"/>
<polygon fill="#191970" stroke="#191970" points="306.9564,-754.4371 298.2064,-760.411 308.772,-761.1975 306.9564,-754.4371"/>
</g>
<!-- Node21 -->
<g id="node22" class="node">
<title>Node21</title>
<g id="a_node22"><a xlink:href="classAbs.html" target="_top" xlink:title="Final specialization of AbstractFunc, the abs function. ">
<polygon fill="#ffffff" stroke="#000000" points="387,-684.5 387,-703.5 421,-703.5 421,-684.5 387,-684.5"/>
<text text-anchor="middle" x="404" y="-691.5" font-family="Helvetica,sans-Serif" font-size="10.00" fill="#000000">Abs</text>
</a>
</g>
</g>
<!-- Node20&#45;&gt;Node21 -->
<g id="edge21" class="edge">
<title>Node20&#45;&gt;Node21</title>
<path fill="none" stroke="#191970" d="M264.4401,-447.6278C269.9969,-493.5863 290.0101,-609.2532 355,-675 363.4668,-683.5654 376.2298,-688.3493 386.6075,-690.974"/>
<polygon fill="#191970" stroke="#191970" points="267.9001,-447.072 263.3203,-437.5181 260.9426,-447.8427 267.9001,-447.072"/>
</g>
<!-- Node22 -->
<g id="node23" class="node">
<title>Node22</title>
<g id="a_node23"><a xlink:href="classACos.html" target="_top" xlink:title="Final specialization of AbstractFunc, the acos function. ">
<polygon fill="#ffffff" stroke="#000000" points="383.5,-646.5 383.5,-665.5 424.5,-665.5 424.5,-646.5 383.5,-646.5"/>
<text text-anchor="middle" x="404" y="-653.5" font-family="Helvetica,sans-Serif" font-size="10.00" fill="#000000">ACos</text>
</a>
</g>
</g>
<!-- Node20&#45;&gt;Node22 -->
<g id="edge22" class="edge">
<title>Node20&#45;&gt;Node22</title>
<path fill="none" stroke="#191970" d="M266.0235,-447.8841C274.2748,-488.8174 298.5859,-583.1642 355,-637 362.7889,-644.4329 373.8081,-649.0504 383.4249,-651.8688"/>
<polygon fill="#191970" stroke="#191970" points="269.4184,-447.0016 264.1087,-437.8333 262.542,-448.3116 269.4184,-447.0016"/>
</g>
<!-- Node23 -->
<g id="node24" class="node">
<title>Node23</title>
<g id="a_node24"><a xlink:href="classACosh.html" target="_top" xlink:title="Final specialization of AbstractFunc, the acosh function. ">
<polygon fill="#ffffff" stroke="#000000" points="380.5,-608.5 380.5,-627.5 427.5,-627.5 427.5,-608.5 380.5,-608.5"/>
<text text-anchor="middle" x="404" y="-615.5" font-family="Helvetica,sans-Serif" font-size="10.00" fill="#000000">ACosh</text>
</a>
</g>
</g>
<!-- Node20&#45;&gt;Node23 -->
<g id="edge23" class="edge">
<title>Node20&#45;&gt;Node23</title>
<path fill="none" stroke="#191970" d="M268.1125,-447.5634C279.1253,-482.6359 306.7894,-556.5089 355,-599 362.1187,-605.2742 371.5404,-609.5864 380.219,-612.4951"/>
<polygon fill="#191970" stroke="#191970" points="271.3548,-446.1925 265.117,-437.6286 264.6528,-448.2132 271.3548,-446.1925"/>
</g>
<!-- Node24 -->
<g id="node25" class="node">
<title>Node24</title>
<g id="a_node25"><a xlink:href="classASin.html" target="_top" xlink:title="Final specialization of AbstractFunc, the asin function. ">
<polygon fill="#ffffff" stroke="#000000" points="385,-570.5 385,-589.5 423,-589.5 423,-570.5 385,-570.5"/>
<text text-anchor="middle" x="404" y="-577.5" font-family="Helvetica,sans-Serif" font-size="10.00" fill="#000000">ASin</text>
</a>
</g>
</g>
<!-- Node20&#45;&gt;Node24 -->
<g id="edge24" class="edge">
<title>Node20&#45;&gt;Node24</title>
<path fill="none" stroke="#191970" d="M271.2048,-447.1286C285.0897,-475.6665 314.8354,-529.4073 355,-561 363.7491,-567.8819 375.2877,-572.5196 384.97,-575.4892"/>
<polygon fill="#191970" stroke="#191970" points="274.2539,-445.3887 266.817,-437.8426 267.9248,-448.3793 274.2539,-445.3887"/>
</g>
<!-- Node25 -->
<g id="node26" class="node">
<title>Node25</title>
<g id="a_node26"><a xlink:href="classASinh.html" target="_top" xlink:title="Final specialization of AbstractFunc, the asinh function. ">
<polygon fill="#ffffff" stroke="#000000" points="382.5,-532.5 382.5,-551.5 425.5,-551.5 425.5,-532.5 382.5,-532.5"/>
<text text-anchor="middle" x="404" y="-539.5" font-family="Helvetica,sans-Serif" font-size="10.00" fill="#000000">ASinh</text>
</a>
</g>
</g>
<!-- Node20&#45;&gt;Node25 -->
<g id="edge25" class="edge">
<title>Node20&#45;&gt;Node25</title>
<path fill="none" stroke="#191970" d="M275.8253,-445.744C292.3673,-466.7053 322.407,-501.4444 355,-523 363.2191,-528.4358 373.2243,-532.6667 382.0457,-535.7419"/>
<polygon fill="#191970" stroke="#191970" points="278.4791,-443.4542 269.5942,-437.6827 272.9407,-447.7351 278.4791,-443.4542"/>
</g>
<!-- Node26 -->
<g id="node27" class="node">
<title>Node26</title>
<g id="a_node27"><a xlink:href="classATan.html" target="_top" xlink:title="Final specialization of AbstractFunc, the atan function. ">
<polygon fill="#ffffff" stroke="#000000" points="384,-494.5 384,-513.5 424,-513.5 424,-494.5 384,-494.5"/>
<text text-anchor="middle" x="404" y="-501.5" font-family="Helvetica,sans-Serif" font-size="10.00" fill="#000000">ATan</text>
</a>
</g>
</g>
<!-- Node20&#45;&gt;Node26 -->
<g id="edge26" class="edge">
<title>Node20&#45;&gt;Node26</title>
<path fill="none" stroke="#191970" d="M284.6503,-443.2436C302.9897,-455.4697 329.9985,-472.5793 355,-485 364.1518,-489.5466 374.6747,-493.7516 383.6173,-497.0437"/>
<polygon fill="#191970" stroke="#191970" points="286.3968,-440.2 276.1488,-437.5112 282.4833,-446.0039 286.3968,-440.2"/>
</g>
<!-- Node27 -->
<g id="node28" class="node">
<title>Node27</title>
<g id="a_node28"><a xlink:href="classATanh.html" target="_top" xlink:title="Final specialization of AbstractFunc, the atanh function. ">
<polygon fill="#ffffff" stroke="#000000" points="381.5,-456.5 381.5,-475.5 426.5,-475.5 426.5,-456.5 381.5,-456.5"/>
<text text-anchor="middle" x="404" y="-463.5" font-family="Helvetica,sans-Serif" font-size="10.00" fill="#000000">ATanh</text>
</a>
</g>
</g>
<!-- Node20&#45;&gt;Node27 -->
<g id="edge27" class="edge">
<title>Node20&#45;&gt;Node27</title>
<path fill="none" stroke="#191970" d="M308.0006,-440.2192C332.421,-446.7774 361.4606,-454.576 381.1575,-459.8656"/>
<polygon fill="#191970" stroke="#191970" points="308.772,-436.8025 298.2064,-437.589 306.9564,-443.5629 308.772,-436.8025"/>
</g>
<!-- Node28 -->
<g id="node29" class="node">
<title>Node28</title>
<g id="a_node29"><a xlink:href="classCos.html" target="_top" xlink:title="Final specialization of AbstractFunc, the cos function. ">
<polygon fill="#ffffff" stroke="#000000" points="386.5,-418.5 386.5,-437.5 421.5,-437.5 421.5,-418.5 386.5,-418.5"/>
<text text-anchor="middle" x="404" y="-425.5" font-family="Helvetica,sans-Serif" font-size="10.00" fill="#000000">Cos</text>
</a>
</g>
</g>
<!-- Node20&#45;&gt;Node28 -->
<g id="edge28" class="edge">
<title>Node20&#45;&gt;Node28</title>
<path fill="none" stroke="#191970" d="M310.2224,-428C336.5022,-428 367.5397,-428 386.4907,-428"/>
<polygon fill="#191970" stroke="#191970" points="310.0479,-424.5001 300.0479,-428 310.0479,-431.5001 310.0479,-424.5001"/>
</g>
<!-- Node29 -->
<g id="node30" class="node">
<title>Node29</title>
<g id="a_node30"><a xlink:href="classCosh.html" target="_top" xlink:title="Final specialization of AbstractFunc, the cosh function. ">
<polygon fill="#ffffff" stroke="#000000" points="384,-380.5 384,-399.5 424,-399.5 424,-380.5 384,-380.5"/>
<text text-anchor="middle" x="404" y="-387.5" font-family="Helvetica,sans-Serif" font-size="10.00" fill="#000000">Cosh</text>
</a>
</g>
</g>
<!-- Node20&#45;&gt;Node29 -->
<g id="edge29" class="edge">
<title>Node20&#45;&gt;Node29</title>
<path fill="none" stroke="#191970" d="M308.0436,-415.7692C333.5038,-408.9319 363.9739,-400.7491 383.6418,-395.4672"/>
<polygon fill="#191970" stroke="#191970" points="306.9564,-412.4371 298.2064,-418.411 308.772,-419.1975 306.9564,-412.4371"/>
</g>
<!-- Node30 -->
<g id="node31" class="node">
<title>Node30</title>
<g id="a_node31"><a xlink:href="classExp.html" target="_top" xlink:title="Final specialization of AbstractFunc, the exponential function. ">
<polygon fill="#ffffff" stroke="#000000" points="387,-342.5 387,-361.5 421,-361.5 421,-342.5 387,-342.5"/>
<text text-anchor="middle" x="404" y="-349.5" font-family="Helvetica,sans-Serif" font-size="10.00" fill="#000000">Exp</text>
</a>
</g>
</g>
<!-- Node20&#45;&gt;Node30 -->
<g id="edge30" class="edge">
<title>Node20&#45;&gt;Node30</title>
<path fill="none" stroke="#191970" d="M284.6503,-412.7564C302.9897,-400.5303 329.9985,-383.4207 355,-371 365.2958,-365.8851 377.3269,-361.2024 386.8909,-357.7656"/>
<polygon fill="#191970" stroke="#191970" points="282.4833,-409.9961 276.1488,-418.4888 286.3968,-415.8 282.4833,-409.9961"/>
</g>
<!-- Node31 -->
<g id="node32" class="node">
<title>Node31</title>
<g id="a_node32"><a xlink:href="classFactorial.html" target="_top" xlink:title="Final specialization of AbstractFunc, the factorial function. ">
<polygon fill="#ffffff" stroke="#000000" points="377,-304.5 377,-323.5 431,-323.5 431,-304.5 377,-304.5"/>
<text text-anchor="middle" x="404" y="-311.5" font-family="Helvetica,sans-Serif" font-size="10.00" fill="#000000">Factorial</text>
</a>
</g>
</g>
<!-- Node20&#45;&gt;Node31 -->
<g id="edge31" class="edge">
<title>Node20&#45;&gt;Node31</title>
<path fill="none" stroke="#191970" d="M275.8253,-410.256C292.3673,-389.2947 322.407,-354.5556 355,-333 361.621,-328.6212 369.4009,-325.0242 376.7875,-322.1834"/>
<polygon fill="#191970" stroke="#191970" points="272.9407,-408.2649 269.5942,-418.3173 278.4791,-412.5458 272.9407,-408.2649"/>
</g>
<!-- Node32 -->
<g id="node33" class="node">
<title>Node32</title>
<g id="a_node33"><a xlink:href="classLog.html" target="_top" xlink:title="Final specialization of AbstractFunc, the logarithm function. ">
<polygon fill="#ffffff" stroke="#000000" points="388,-266.5 388,-285.5 420,-285.5 420,-266.5 388,-266.5"/>
<text text-anchor="middle" x="404" y="-273.5" font-family="Helvetica,sans-Serif" font-size="10.00" fill="#000000">Log</text>
</a>
</g>
</g>
<!-- Node20&#45;&gt;Node32 -->
<g id="edge32" class="edge">
<title>Node20&#45;&gt;Node32</title>
<path fill="none" stroke="#191970" d="M271.2048,-408.8714C285.0897,-380.3335 314.8354,-326.5927 355,-295 364.6097,-287.4412 377.5846,-282.5898 387.7688,-279.6824"/>
<polygon fill="#191970" stroke="#191970" points="267.9248,-407.6207 266.817,-418.1574 274.2539,-410.6113 267.9248,-407.6207"/>
</g>
<!-- Node33 -->
<g id="node34" class="node">
<title>Node33</title>
<g id="a_node34"><a xlink:href="classSin.html" target="_top" xlink:title="Final specialization of AbstractFunc, the sin function. ">
<polygon fill="#ffffff" stroke="#000000" points="388.5,-228.5 388.5,-247.5 419.5,-247.5 419.5,-228.5 388.5,-228.5"/>
<text text-anchor="middle" x="404" y="-235.5" font-family="Helvetica,sans-Serif" font-size="10.00" fill="#000000">Sin</text>
</a>
</g>
</g>
<!-- Node20&#45;&gt;Node33 -->
<g id="edge33" class="edge">
<title>Node20&#45;&gt;Node33</title>
<path fill="none" stroke="#191970" d="M268.1125,-408.4366C279.1253,-373.3641 306.7894,-299.4911 355,-257 364.446,-248.6746 377.9469,-243.8039 388.3861,-241.0825"/>
<polygon fill="#191970" stroke="#191970" points="264.6528,-407.7868 265.117,-418.3714 271.3548,-409.8075 264.6528,-407.7868"/>
</g>
<!-- Node34 -->
<g id="node35" class="node">
<title>Node34</title>
<g id="a_node35"><a xlink:href="classSinh.html" target="_top" xlink:title="Final specialization of AbstractFunc, the sinh function. ">
<polygon fill="#ffffff" stroke="#000000" points="386,-190.5 386,-209.5 422,-209.5 422,-190.5 386,-190.5"/>
<text text-anchor="middle" x="404" y="-197.5" font-family="Helvetica,sans-Serif" font-size="10.00" fill="#000000">Sinh</text>
</a>
</g>
</g>
<!-- Node20&#45;&gt;Node34 -->
<g id="edge34" class="edge">
<title>Node20&#45;&gt;Node34</title>
<path fill="none" stroke="#191970" d="M266.0235,-408.1159C274.2748,-367.1826 298.5859,-272.8358 355,-219 363.449,-210.9372 375.699,-206.1872 385.8367,-203.4529"/>
<polygon fill="#191970" stroke="#191970" points="262.542,-407.6884 264.1087,-418.1667 269.4184,-408.9984 262.542,-407.6884"/>
</g>
<!-- Node35 -->
<g id="node36" class="node">
<title>Node35</title>
<g id="a_node36"><a xlink:href="classTan.html" target="_top" xlink:title="Final specialization of AbstractFunc, the tan function. ">
<polygon fill="#ffffff" stroke="#000000" points="387.5,-152.5 387.5,-171.5 420.5,-171.5 420.5,-152.5 387.5,-152.5"/>
<text text-anchor="middle" x="404" y="-159.5" font-family="Helvetica,sans-Serif" font-size="10.00" fill="#000000">Tan</text>
</a>
</g>
</g>
<!-- Node20&#45;&gt;Node35 -->
<g id="edge35" class="edge">
<title>Node20&#45;&gt;Node35</title>
<path fill="none" stroke="#191970" d="M264.4401,-408.3722C269.9969,-362.4137 290.0101,-246.7468 355,-181 363.5951,-172.3048 376.6175,-167.5066 387.0775,-164.9082"/>
<polygon fill="#191970" stroke="#191970" points="260.9426,-408.1573 263.3203,-418.4819 267.9001,-408.928 260.9426,-408.1573"/>
</g>
<!-- Node36 -->
<g id="node37" class="node">
<title>Node36</title>
<g id="a_node37"><a xlink:href="classTanh.html" target="_top" xlink:title="Final specialization of AbstractFunc, the tanh function. ">
<polygon fill="#ffffff" stroke="#000000" points="385,-114.5 385,-133.5 423,-133.5 423,-114.5 385,-114.5"/>
<text text-anchor="middle" x="404" y="-121.5" font-family="Helvetica,sans-Serif" font-size="10.00" fill="#000000">Tanh</text>
</a>
</g>
</g>
<!-- Node20&#45;&gt;Node36 -->
<g id="edge36" class="edge">
<title>Node20&#45;&gt;Node36</title>
<path fill="none" stroke="#191970" d="M263.3051,-408.1676C266.4205,-357.287 281.5606,-220.6771 355,-143 362.7727,-134.7788 374.5119,-130.0641 384.5515,-127.3879"/>
<polygon fill="#191970" stroke="#191970" points="259.7956,-408.2612 262.774,-418.4287 266.7863,-408.623 259.7956,-408.2612"/>
</g>
<!-- Node38 -->
<g id="node39" class="node">
<title>Node38</title>
<g id="a_node39"><a xlink:href="classPlus.html" target="_top" xlink:title="Handles a sum, function of multiple arguments. ">
<polygon fill="#ffffff" stroke="#000000" points="386,-76.5 386,-95.5 422,-95.5 422,-76.5 386,-76.5"/>
<text text-anchor="middle" x="404" y="-83.5" font-family="Helvetica,sans-Serif" font-size="10.00" fill="#000000">Plus</text>
</a>
</g>
</g>
<!-- Node37&#45;&gt;Node38 -->
<g id="edge38" class="edge">
<title>Node37&#45;&gt;Node38</title>
<path fill="none" stroke="#191970" d="M320.9574,-74.8494C344.182,-77.9679 369.2297,-81.3312 385.6724,-83.5391"/>
<polygon fill="#191970" stroke="#191970" points="321.1774,-71.3476 310.8005,-73.4856 320.2457,-78.2853 321.1774,-71.3476"/>
</g>
<!-- Node39 -->
<g id="node40" class="node">
<title>Node39</title>
<g id="a_node40"><a xlink:href="classPolynomial.html" target="_top" xlink:title="Handles a polynomial, function of multiple arguments. ">
<polygon fill="#ffffff" stroke="#000000" points="371.5,-38.5 371.5,-57.5 436.5,-57.5 436.5,-38.5 371.5,-38.5"/>
<text text-anchor="middle" x="404" y="-45.5" font-family="Helvetica,sans-Serif" font-size="10.00" fill="#000000">Polynomial</text>
</a>
</g>
</g>
<!-- Node37&#45;&gt;Node39 -->
<g id="edge39" class="edge">
<title>Node37&#45;&gt;Node39</title>
<path fill="none" stroke="#191970" d="M320.8352,-59.167C338.1341,-56.8442 356.4554,-54.3841 371.4857,-52.3659"/>
<polygon fill="#191970" stroke="#191970" points="320.2457,-55.7147 310.8005,-60.5144 321.1774,-62.6524 320.2457,-55.7147"/>
</g>
<!-- Node40 -->
<g id="node41" class="node">
<title>Node40</title>
<g id="a_node41"><a xlink:href="classTimes.html" target="_top" xlink:title="Handles a product, function of multiple arguments. ">
<polygon fill="#ffffff" stroke="#000000" points="382,-.5 382,-19.5 426,-19.5 426,-.5 382,-.5"/>
<text text-anchor="middle" x="404" y="-7.5" font-family="Helvetica,sans-Serif" font-size="10.00" fill="#000000">Times</text>
</a>
</g>
</g>
<!-- Node37&#45;&gt;Node40 -->
<g id="edge40" class="edge">
<title>Node37&#45;&gt;Node40</title>
<path fill="none" stroke="#191970" d="M294.9569,-53.4818C312.6681,-46.1518 335.0014,-36.9842 355,-29 363.6432,-25.5493 373.1777,-21.8321 381.5212,-18.6085"/>
<polygon fill="#191970" stroke="#191970" points="293.534,-50.2828 285.637,-57.3459 296.215,-56.7491 293.534,-50.2828"/>
</g>
</g>
</svg>
        <g id="navigator" transform="translate(0 0)" fill="#404254">
                <rect fill="#f2f5e9" fill-opacity="0.5" stroke="#606060" stroke-width=".5" x="0" y="0" width="60" height="60"/>
                <use id="zoomplus" xlink:href="#zoomPlus" x="17" y="9" onmousedown="handleZoom(evt,'in')"/>
                <use id="zoomminus" xlink:href="#zoomMin" x="42" y="9" onmousedown="handleZoom(evt,'out')"/>
                <use id="reset" xlink:href="#resetDef" x="30" y="36" onmousedown="handleReset()"/>
                <g id="arrowUp" xlink:href="#dirArrow" transform="translate(30 24)" onmousedown="handlePan(0,-1)">
                  <use xlink:href="#rim" fill="#404040">
                        <set attributeName="fill" to="#808080" begin="arrowUp.mouseover" end="arrowUp.mouseout"/>
                  </use>
                  <path fill="none" stroke="white" stroke-width="1.5" d="M0,-3.0v7 M-2.5,-0.5L0,-3.0L2.5,-0.5"/>
                </g>
                <g id="arrowRight" xlink:href="#dirArrow" transform="rotate(90) translate(36 -43)" onmousedown="handlePan(1,0)">
                  <use xlink:href="#rim" fill="#404040">
                        <set attributeName="fill" to="#808080" begin="arrowRight.mouseover" end="arrowRight.mouseout"/>
                  </use>
                  <path fill="none" stroke="white" stroke-width="1.5" d="M0,-3.0v7 M-2.5,-0.5L0,-3.0L2.5,-0.5"/>
                </g>
                <g id="arrowDown" xlink:href="#dirArrow" transform="rotate(180) translate(-30 -48)" onmousedown="handlePan(0,1)">
                  <use xlink:href="#rim" fill="#404040">
                        <set attributeName="fill" to="#808080" begin="arrowDown.mouseover" end="arrowDown.mouseout"/>
                  </use>
                  <path fill="none" stroke="white" stroke-width="1.5" d="M0,-3.0v7 M-2.5,-0.5L0,-3.0L2.5,-0.5"/>
                </g>
                <g id="arrowLeft" xlink:href="#dirArrow" transform="rotate(270) translate(-36 17)" onmousedown="handlePan(-1,0)">
                  <use xlink:href="#rim" fill="#404040">
                        <set attributeName="fill" to="#808080" begin="arrowLeft.mouseover" end="arrowLeft.mouseout"/>
                  </use>
                  <path fill="none" stroke="white" stroke-width="1.5" d="M0,-3.0v7 M-2.5,-0.5L0,-3.0L2.5,-0.5"/>
                </g>
        </g>
        <svg viewBox="0 0 15 15" width="100%" height="30px" preserveAspectRatio="xMaxYMin meet">
         <g id="arrow_out" transform="scale(0.3 0.3)">
          <a xlink:href="classAbstractScalar__inherit__graph_org.svg" target="_base">
           <rect id="button" ry="5" rx="5" y="6" x="6" height="38" width="38"
                fill="#f2f5e9" fill-opacity="0.5" stroke="#606060" stroke-width="1.0"/>
           <path id="arrow"
             d="M 11.500037,31.436501 C 11.940474,20.09759 22.043105,11.32322 32.158766,21.979434 L 37.068811,17.246167 C 37.068811,17.246167 37.088388,32 37.088388,32 L 22.160133,31.978069 C 22.160133,31.978069 26.997745,27.140456 26.997745,27.140456 C 18.528582,18.264221 13.291696,25.230495 11.500037,31.436501 z"
             style="fill:#404040;"/>
          </a>
         </g>
        </svg>
</svg>
