<?xml version="1.0" encoding="UTF-8" standalone="no"?>
<!DOCTYPE svg PUBLIC "-//W3C//DTD SVG 1.1//EN"
 "http://www.w3.org/Graphics/SVG/1.1/DTD/svg11.dtd">
<!-- Generated by graphviz version 2.40.1 (20161225.0304)
 -->
<!-- Title: AbstractDuoFunc Pages: 1 -->
<svg width="253pt" height="196pt"
 viewBox="0.00 0.00 252.50 196.00" xmlns="http://www.w3.org/2000/svg" xmlns:xlink="http://www.w3.org/1999/xlink">
<g id="graph0" class="graph" transform="scale(1 1) rotate(0) translate(4 192)">
<title>AbstractDuoFunc</title>
<polygon fill="#ffffff" stroke="transparent" points="-4,4 -4,-192 248.5,-192 248.5,4 -4,4"/>
<!-- Node0 -->
<g id="node1" class="node">
<title>Node0</title>
<polygon fill="#bfbfbf" stroke="#000000" points="80,-56.5 80,-75.5 173,-75.5 173,-56.5 80,-56.5"/>
<text text-anchor="middle" x="126.5" y="-63.5" font-family="Helvetica,sans-Serif" font-size="10.00" fill="#000000">AbstractDuoFunc</text>
</g>
<!-- Node3 -->
<g id="node4" class="node">
<title>Node3</title>
<g id="a_node4"><a xlink:href="classAngle.html" target="_top" xlink:title="Handles a angle of 2 arguments. ">
<polygon fill="#ffffff" stroke="#000000" points="0,-.5 0,-19.5 41,-19.5 41,-.5 0,-.5"/>
<text text-anchor="middle" x="20.5" y="-7.5" font-family="Helvetica,sans-Serif" font-size="10.00" fill="#000000">Angle</text>
</a>
</g>
</g>
<!-- Node0&#45;&gt;Node3 -->
<g id="edge3" class="edge">
<title>Node0&#45;&gt;Node3</title>
<path fill="none" stroke="#191970" d="M98.9778,-51.46C80.0092,-41.4388 55.3273,-28.3993 38.7522,-19.6427"/>
<polygon fill="#191970" stroke="#191970" points="97.5593,-54.669 108.0362,-56.2455 100.8292,-48.4796 97.5593,-54.669"/>
</g>
<!-- Node4 -->
<g id="node5" class="node">
<title>Node4</title>
<g id="a_node5"><a xlink:href="classDerivative.html" target="_top" xlink:title="Handles the exponentiation of one Abstract wrt another. ">
<polygon fill="#ffffff" stroke="#000000" points="59,-.5 59,-19.5 120,-19.5 120,-.5 59,-.5"/>
<text text-anchor="middle" x="89.5" y="-7.5" font-family="Helvetica,sans-Serif" font-size="10.00" fill="#000000">Derivative</text>
</a>
</g>
</g>
<!-- Node0&#45;&gt;Node4 -->
<g id="edge4" class="edge">
<title>Node0&#45;&gt;Node4</title>
<path fill="none" stroke="#191970" d="M114.3624,-47.6296C108.1907,-38.2887 100.9434,-27.3197 95.8711,-19.6427"/>
<polygon fill="#191970" stroke="#191970" points="111.6223,-49.8316 120.0551,-56.2455 117.4627,-45.9728 111.6223,-49.8316"/>
</g>
<!-- Node5 -->
<g id="node6" class="node">
<title>Node5</title>
<g id="a_node6"><a xlink:href="classFraction.html" target="_top" xlink:title="Handles a fraction of 2 arguments. ">
<polygon fill="#ffffff" stroke="#000000" points="138.5,-.5 138.5,-19.5 190.5,-19.5 190.5,-.5 138.5,-.5"/>
<text text-anchor="middle" x="164.5" y="-7.5" font-family="Helvetica,sans-Serif" font-size="10.00" fill="#000000">Fraction</text>
</a>
</g>
</g>
<!-- Node0&#45;&gt;Node5 -->
<g id="edge5" class="edge">
<title>Node0&#45;&gt;Node5</title>
<path fill="none" stroke="#191970" d="M138.7679,-47.9209C145.1488,-38.5176 152.6931,-27.3997 157.9568,-19.6427"/>
<polygon fill="#191970" stroke="#191970" points="135.838,-46.0055 133.1191,-56.2455 141.6303,-49.936 135.838,-46.0055"/>
</g>
<!-- Node6 -->
<g id="node7" class="node">
<title>Node6</title>
<g id="a_node7"><a xlink:href="classPow.html" target="_top" xlink:title="Handles the exponentiation of one Abstract wrt another. ">
<polygon fill="#ffffff" stroke="#000000" points="208.5,-.5 208.5,-19.5 244.5,-19.5 244.5,-.5 208.5,-.5"/>
<text text-anchor="middle" x="226.5" y="-7.5" font-family="Helvetica,sans-Serif" font-size="10.00" fill="#000000">Pow</text>
</a>
</g>
</g>
<!-- Node0&#45;&gt;Node6 -->
<g id="edge6" class="edge">
<title>Node0&#45;&gt;Node6</title>
<path fill="none" stroke="#191970" d="M152.7098,-51.3225C170.5717,-41.3198 193.7155,-28.3593 209.2809,-19.6427"/>
<polygon fill="#191970" stroke="#191970" points="150.9336,-48.3057 143.9187,-56.2455 154.3539,-54.4132 150.9336,-48.3057"/>
</g>
<!-- Node1 -->
<g id="node2" class="node">
<title>Node1</title>
<g id="a_node2"><a xlink:href="classAbstractScalar.html" target="_top" xlink:title="Abstract class concerning all scalars (dim = 0). Allows to implement one time getDim() = 0 for all sc...">
<polygon fill="#ffffff" stroke="#000000" points="86,-112.5 86,-131.5 167,-131.5 167,-112.5 86,-112.5"/>
<text text-anchor="middle" x="126.5" y="-119.5" font-family="Helvetica,sans-Serif" font-size="10.00" fill="#000000">AbstractScalar</text>
</a>
</g>
</g>
<!-- Node1&#45;&gt;Node0 -->
<g id="edge1" class="edge">
<title>Node1&#45;&gt;Node0</title>
<path fill="none" stroke="#191970" d="M126.5,-102.1575C126.5,-93.155 126.5,-82.9199 126.5,-75.6427"/>
<polygon fill="#191970" stroke="#191970" points="123.0001,-102.2455 126.5,-112.2455 130.0001,-102.2456 123.0001,-102.2455"/>
</g>
<!-- Node2 -->
<g id="node3" class="node">
<title>Node2</title>
<g id="a_node3"><a xlink:href="classAbstract.html" target="_top" xlink:title="Root class of the inheritance tree of abstracts. ">
<polygon fill="#ffffff" stroke="#000000" points="100,-168.5 100,-187.5 153,-187.5 153,-168.5 100,-168.5"/>
<text text-anchor="middle" x="126.5" y="-175.5" font-family="Helvetica,sans-Serif" font-size="10.00" fill="#000000">Abstract</text>
</a>
</g>
</g>
<!-- Node2&#45;&gt;Node1 -->
<g id="edge2" class="edge">
<title>Node2&#45;&gt;Node1</title>
<path fill="none" stroke="#191970" d="M126.5,-158.1575C126.5,-149.155 126.5,-138.9199 126.5,-131.6427"/>
<polygon fill="#191970" stroke="#191970" points="123.0001,-158.2455 126.5,-168.2455 130.0001,-158.2456 123.0001,-158.2455"/>
</g>
</g>
</svg>
