<?xml version="1.0" encoding="UTF-8" standalone="no"?>
<!DOCTYPE svg PUBLIC "-//W3C//DTD SVG 1.1//EN"
 "http://www.w3.org/Graphics/SVG/1.1/DTD/svg11.dtd">
<!-- Generated by graphviz version 2.40.1 (20161225.0304)
 -->
<!-- Title: Graphical Class Hierarchy Pages: 1 -->
<svg width="633pt" height="1225pt"
 viewBox="0.00 0.00 633.00 1225.00" xmlns="http://www.w3.org/2000/svg" xmlns:xlink="http://www.w3.org/1999/xlink">
<g id="graph0" class="graph" transform="scale(1 1) rotate(0) translate(4 1221)">
<title>Graphical Class Hierarchy</title>
<polygon fill="#ffffff" stroke="transparent" points="-4,4 -4,-1221 629,-1221 629,4 -4,4"/>
<!-- Node26 -->
<g id="node1" class="node">
<title>Node26</title>
<g id="a_node1"><a xlink:href="classAbstract.html" target="_top" xlink:title="Root class of the inheritance tree of abstracts. ">
<polygon fill="#ffffff" stroke="#000000" points="0,-228.5 0,-247.5 53,-247.5 53,-228.5 0,-228.5"/>
<text text-anchor="middle" x="26.5" y="-235.5" font-family="Helvetica,sans-Serif" font-size="10.00" fill="#000000">Abstract</text>
</a>
</g>
</g>
<!-- Node27 -->
<g id="node2" class="node">
<title>Node27</title>
<g id="a_node2"><a xlink:href="classAbstractScalar.html" target="_top" xlink:title="Abstract class concerning all scalars (dim = 0). Allows to implement one time getDim() = 0 for all sc...">
<polygon fill="#ffffff" stroke="#000000" points="94.5,-437.5 94.5,-456.5 175.5,-456.5 175.5,-437.5 94.5,-437.5"/>
<text text-anchor="middle" x="135" y="-444.5" font-family="Helvetica,sans-Serif" font-size="10.00" fill="#000000">AbstractScalar</text>
</a>
</g>
</g>
<!-- Node26&#45;&gt;Node27 -->
<g id="edge1" class="edge">
<title>Node26&#45;&gt;Node27</title>
<path fill="none" stroke="#191970" d="M36.1645,-256.6164C58.5356,-299.7091 113.2496,-405.1029 130.027,-437.4207"/>
<polygon fill="#191970" stroke="#191970" points="39.1579,-254.786 31.444,-247.5234 32.9452,-258.0113 39.1579,-254.786"/>
</g>
<!-- Node54 -->
<g id="node42" class="node">
<title>Node54</title>
<g id="a_node42"><a xlink:href="classAbstractVectorial.html" target="_top" xlink:title="AbstractVectorial">
<polygon fill="#ffffff" stroke="#000000" points="89,-57.5 89,-76.5 181,-76.5 181,-57.5 89,-57.5"/>
<text text-anchor="middle" x="135" y="-64.5" font-family="Helvetica,sans-Serif" font-size="10.00" fill="#000000">AbstractVectorial</text>
</a>
</g>
</g>
<!-- Node26&#45;&gt;Node54 -->
<g id="edge41" class="edge">
<title>Node26&#45;&gt;Node54</title>
<path fill="none" stroke="#191970" d="M38.0897,-219.7342C61.0225,-183.5913 111.4772,-104.0729 128.9231,-76.5774"/>
<polygon fill="#191970" stroke="#191970" points="35.0466,-217.9974 32.6443,-228.3163 40.9572,-221.7478 35.0466,-217.9974"/>
</g>
<!-- Node0 -->
<g id="node3" class="node">
<title>Node0</title>
<g id="a_node3"><a xlink:href="classAbstractBuildingBlock.html" target="_top" xlink:title="Abstract class from which derive all building blocks of exprs, i.e. objects not function of further e...">
<polygon fill="#ffffff" stroke="#000000" points="217,-950.5 217,-969.5 330,-969.5 330,-950.5 217,-950.5"/>
<text text-anchor="middle" x="273.5" y="-957.5" font-family="Helvetica,sans-Serif" font-size="10.00" fill="#000000">AbstractBuildingBlock</text>
</a>
</g>
</g>
<!-- Node27&#45;&gt;Node0 -->
<g id="edge2" class="edge">
<title>Node27&#45;&gt;Node0</title>
<path fill="none" stroke="#191970" d="M137.8948,-466.6667C146.5385,-523.4468 174.2419,-692.1828 217,-827 232.0928,-874.5879 257.8619,-928.5585 268.5889,-950.2331"/>
<polygon fill="#191970" stroke="#191970" points="141.3256,-465.9435 136.3811,-456.5732 134.403,-466.9817 141.3256,-465.9435"/>
</g>
<!-- Node28 -->
<g id="node16" class="node">
<title>Node28</title>
<g id="a_node16"><a xlink:href="classAbstractDuoFunc.html" target="_top" xlink:title="Handle functions of multiple arguments. In the case of the call of a simplification function...">
<polygon fill="#ffffff" stroke="#000000" points="227,-798.5 227,-817.5 320,-817.5 320,-798.5 227,-798.5"/>
<text text-anchor="middle" x="273.5" y="-805.5" font-family="Helvetica,sans-Serif" font-size="10.00" fill="#000000">AbstractDuoFunc</text>
</a>
</g>
</g>
<!-- Node27&#45;&gt;Node28 -->
<g id="edge15" class="edge">
<title>Node27&#45;&gt;Node28</title>
<path fill="none" stroke="#191970" d="M142.3966,-466.2793C167.8609,-532.652 251.3491,-750.2636 269.8484,-798.482"/>
<polygon fill="#191970" stroke="#191970" points="145.5544,-464.7386 138.7045,-456.6559 139.0188,-467.2461 145.5544,-464.7386"/>
</g>
<!-- Node33 -->
<g id="node21" class="node">
<title>Node33</title>
<g id="a_node21"><a xlink:href="classAbstractFunc.html" target="_top" xlink:title="Base class for scalar functions of one argument. ">
<polygon fill="#ffffff" stroke="#000000" points="236,-437.5 236,-456.5 311,-456.5 311,-437.5 236,-437.5"/>
<text text-anchor="middle" x="273.5" y="-444.5" font-family="Helvetica,sans-Serif" font-size="10.00" fill="#000000">AbstractFunc</text>
</a>
</g>
</g>
<!-- Node27&#45;&gt;Node33 -->
<g id="edge20" class="edge">
<title>Node27&#45;&gt;Node33</title>
<path fill="none" stroke="#191970" d="M185.8666,-447C202.3977,-447 220.4355,-447 235.8258,-447"/>
<polygon fill="#191970" stroke="#191970" points="185.8055,-443.5001 175.8055,-447 185.8054,-450.5001 185.8055,-443.5001"/>
</g>
<!-- Node50 -->
<g id="node38" class="node">
<title>Node50</title>
<g id="a_node38"><a xlink:href="classAbstractMultiFunc.html" target="_top" xlink:title="Handle functions of multiple arguments. In the case of the call of a simplification function...">
<polygon fill="#ffffff" stroke="#000000" points="225.5,-114.5 225.5,-133.5 321.5,-133.5 321.5,-114.5 225.5,-114.5"/>
<text text-anchor="middle" x="273.5" y="-121.5" font-family="Helvetica,sans-Serif" font-size="10.00" fill="#000000">AbstractMultiFunc</text>
</a>
</g>
</g>
<!-- Node27&#45;&gt;Node50 -->
<g id="edge37" class="edge">
<title>Node27&#45;&gt;Node50</title>
<path fill="none" stroke="#191970" d="M143.0875,-428.139C169.1148,-367.4399 250.1316,-178.4982 269.3711,-133.629"/>
<polygon fill="#191970" stroke="#191970" points="139.8692,-426.7632 139.145,-437.3333 146.3028,-429.5219 139.8692,-426.7632"/>
</g>
<!-- Node1 -->
<g id="node4" class="node">
<title>Node1</title>
<g id="a_node4"><a xlink:href="classAbstractIndicial.html" target="_top" xlink:title="AbstractIndicial">
<polygon fill="#ffffff" stroke="#000000" points="373,-1150.5 373,-1169.5 457,-1169.5 457,-1150.5 373,-1150.5"/>
<text text-anchor="middle" x="415" y="-1157.5" font-family="Helvetica,sans-Serif" font-size="10.00" fill="#000000">AbstractIndicial</text>
</a>
</g>
</g>
<!-- Node0&#45;&gt;Node1 -->
<g id="edge3" class="edge">
<title>Node0&#45;&gt;Node1</title>
<path fill="none" stroke="#191970" d="M285.8952,-978.1116C303.5178,-1003.7949 336.9082,-1052.2132 366,-1093 380.5606,-1113.414 397.9647,-1137.0301 407.6202,-1150.0646"/>
<polygon fill="#191970" stroke="#191970" points="288.6938,-976.0039 280.1532,-969.7342 282.9199,-979.9615 288.6938,-976.0039"/>
</g>
<!-- Node3 -->
<g id="node6" class="node">
<title>Node3</title>
<g id="a_node6"><a xlink:href="classAbstractLiteral.html" target="_top" xlink:title="Abstract class from which derive literal building blocks: Constant, Variable, Imaginary and CFactoria...">
<polygon fill="#ffffff" stroke="#000000" points="375,-1064.5 375,-1083.5 455,-1083.5 455,-1064.5 375,-1064.5"/>
<text text-anchor="middle" x="415" y="-1071.5" font-family="Helvetica,sans-Serif" font-size="10.00" fill="#000000">AbstractLiteral</text>
</a>
</g>
</g>
<!-- Node0&#45;&gt;Node3 -->
<g id="edge5" class="edge">
<title>Node0&#45;&gt;Node3</title>
<path fill="none" stroke="#191970" d="M293.6172,-976.2075C323.4903,-1000.2749 378.6606,-1044.7231 402.9663,-1064.305"/>
<polygon fill="#191970" stroke="#191970" points="295.5472,-973.2679 285.5642,-969.7196 291.1556,-978.7189 295.5472,-973.2679"/>
</g>
<!-- Node9 -->
<g id="node12" class="node">
<title>Node9</title>
<g id="a_node12"><a xlink:href="classAbstractNumerical.html" target="_top" xlink:title="Abstract class from which derive numerical types, i.e. Double, Integer, CFraction. ">
<polygon fill="#ffffff" stroke="#000000" points="366,-950.5 366,-969.5 464,-969.5 464,-950.5 366,-950.5"/>
<text text-anchor="middle" x="415" y="-957.5" font-family="Helvetica,sans-Serif" font-size="10.00" fill="#000000">AbstractNumerical</text>
</a>
</g>
</g>
<!-- Node0&#45;&gt;Node9 -->
<g id="edge11" class="edge">
<title>Node0&#45;&gt;Node9</title>
<path fill="none" stroke="#191970" d="M340.327,-960C348.9785,-960 357.7084,-960 365.9972,-960"/>
<polygon fill="#191970" stroke="#191970" points="340.2382,-956.5001 330.2381,-960 340.2381,-963.5001 340.2382,-956.5001"/>
</g>
<!-- Node2 -->
<g id="node5" class="node">
<title>Node2</title>
<g id="a_node5"><a xlink:href="classITensor.html" target="_top" xlink:title="ITensor">
<polygon fill="#ffffff" stroke="#000000" points="537.5,-1197.5 537.5,-1216.5 587.5,-1216.5 587.5,-1197.5 537.5,-1197.5"/>
<text text-anchor="middle" x="562.5" y="-1204.5" font-family="Helvetica,sans-Serif" font-size="10.00" fill="#000000">ITensor</text>
</a>
</g>
</g>
<!-- Node1&#45;&gt;Node2 -->
<g id="edge4" class="edge">
<title>Node1&#45;&gt;Node2</title>
<path fill="none" stroke="#191970" d="M453.3649,-1172.8462C467.943,-1177.6727 484.7158,-1183.1601 500,-1188 512.2174,-1191.8688 525.8266,-1196.0241 537.2185,-1199.4592"/>
<polygon fill="#191970" stroke="#191970" points="454.2617,-1169.4561 443.6682,-1169.6264 452.0557,-1176.0995 454.2617,-1169.4561"/>
</g>
<!-- Node4 -->
<g id="node7" class="node">
<title>Node4</title>
<g id="a_node7"><a xlink:href="classArbitrary.html" target="_top" xlink:title="Arbitrary">
<polygon fill="#ffffff" stroke="#000000" points="536,-1159.5 536,-1178.5 589,-1178.5 589,-1159.5 536,-1159.5"/>
<text text-anchor="middle" x="562.5" y="-1166.5" font-family="Helvetica,sans-Serif" font-size="10.00" fill="#000000">Arbitrary</text>
</a>
</g>
</g>
<!-- Node3&#45;&gt;Node4 -->
<g id="edge6" class="edge">
<title>Node3&#45;&gt;Node4</title>
<path fill="none" stroke="#191970" d="M430.04,-1091.2707C445.8612,-1108.4406 472.2727,-1134.4052 500,-1150 511.071,-1156.2267 524.4178,-1160.6418 535.9299,-1163.6385"/>
<polygon fill="#191970" stroke="#191970" points="432.4561,-1088.7233 423.1645,-1083.6324 427.2533,-1093.4065 432.4561,-1088.7233"/>
</g>
<!-- Node5 -->
<g id="node8" class="node">
<title>Node5</title>
<g id="a_node8"><a xlink:href="classCFactorial.html" target="_top" xlink:title="Handles factorial of a Number. ">
<polygon fill="#ffffff" stroke="#000000" points="531.5,-1121.5 531.5,-1140.5 593.5,-1140.5 593.5,-1121.5 531.5,-1121.5"/>
<text text-anchor="middle" x="562.5" y="-1128.5" font-family="Helvetica,sans-Serif" font-size="10.00" fill="#000000">CFactorial</text>
</a>
</g>
</g>
<!-- Node3&#45;&gt;Node5 -->
<g id="edge7" class="edge">
<title>Node3&#45;&gt;Node5</title>
<path fill="none" stroke="#191970" d="M444.1077,-1088.1009C460.3491,-1095.6917 481.0667,-1104.9217 500,-1112 510.0918,-1115.7728 521.3005,-1119.362 531.4074,-1122.3843"/>
<polygon fill="#191970" stroke="#191970" points="445.1662,-1084.73 434.6297,-1083.6203 442.1745,-1091.0585 445.1662,-1084.73"/>
</g>
<!-- Node6 -->
<g id="node9" class="node">
<title>Node6</title>
<g id="a_node9"><a xlink:href="classConstant.html" target="_top" xlink:title="Handle an object with a name and a value. ">
<polygon fill="#ffffff" stroke="#000000" points="534.5,-1083.5 534.5,-1102.5 590.5,-1102.5 590.5,-1083.5 534.5,-1083.5"/>
<text text-anchor="middle" x="562.5" y="-1090.5" font-family="Helvetica,sans-Serif" font-size="10.00" fill="#000000">Constant</text>
</a>
</g>
</g>
<!-- Node3&#45;&gt;Node6 -->
<g id="edge8" class="edge">
<title>Node3&#45;&gt;Node6</title>
<path fill="none" stroke="#191970" d="M465.2954,-1080.4787C488.3815,-1083.4525 514.8902,-1086.8672 534.3874,-1089.3787"/>
<polygon fill="#191970" stroke="#191970" points="465.6703,-1076.9982 455.305,-1079.1918 464.7759,-1083.9408 465.6703,-1076.9982"/>
</g>
<!-- Node7 -->
<g id="node10" class="node">
<title>Node7</title>
<g id="a_node10"><a xlink:href="classImaginary.html" target="_top" xlink:title="Numerical representation of i. ">
<polygon fill="#ffffff" stroke="#000000" points="533,-1045.5 533,-1064.5 592,-1064.5 592,-1045.5 533,-1045.5"/>
<text text-anchor="middle" x="562.5" y="-1052.5" font-family="Helvetica,sans-Serif" font-size="10.00" fill="#000000">Imaginary</text>
</a>
</g>
</g>
<!-- Node3&#45;&gt;Node7 -->
<g id="edge9" class="edge">
<title>Node3&#45;&gt;Node7</title>
<path fill="none" stroke="#191970" d="M465.3186,-1067.5183C487.6781,-1064.6381 513.2441,-1061.3448 532.5401,-1058.8592"/>
<polygon fill="#191970" stroke="#191970" points="464.7759,-1064.0592 455.305,-1068.8082 465.6703,-1071.0018 464.7759,-1064.0592"/>
</g>
<!-- Node8 -->
<g id="node11" class="node">
<title>Node8</title>
<g id="a_node11"><a xlink:href="classVariable.html" target="_top" xlink:title="Handle an object with a name and a value. ">
<polygon fill="#ffffff" stroke="#000000" points="536.5,-1007.5 536.5,-1026.5 588.5,-1026.5 588.5,-1007.5 536.5,-1007.5"/>
<text text-anchor="middle" x="562.5" y="-1014.5" font-family="Helvetica,sans-Serif" font-size="10.00" fill="#000000">Variable</text>
</a>
</g>
</g>
<!-- Node3&#45;&gt;Node8 -->
<g id="edge10" class="edge">
<title>Node3&#45;&gt;Node8</title>
<path fill="none" stroke="#191970" d="M444.1077,-1059.8991C460.3491,-1052.3083 481.0667,-1043.0783 500,-1036 511.7914,-1031.5917 525.1077,-1027.4342 536.4097,-1024.1387"/>
<polygon fill="#191970" stroke="#191970" points="442.1745,-1056.9415 434.6297,-1064.3797 445.1662,-1063.27 442.1745,-1056.9415"/>
</g>
<!-- Node10 -->
<g id="node13" class="node">
<title>Node10</title>
<g id="a_node13"><a xlink:href="classCFraction.html" target="_top" xlink:title="Handles fractions of Number. ">
<polygon fill="#ffffff" stroke="#000000" points="533,-969.5 533,-988.5 592,-988.5 592,-969.5 533,-969.5"/>
<text text-anchor="middle" x="562.5" y="-976.5" font-family="Helvetica,sans-Serif" font-size="10.00" fill="#000000">CFraction</text>
</a>
</g>
</g>
<!-- Node9&#45;&gt;Node10 -->
<g id="edge12" class="edge">
<title>Node9&#45;&gt;Node10</title>
<path fill="none" stroke="#191970" d="M474.1905,-967.6245C494.3856,-970.2259 516.0976,-973.0227 532.9393,-975.1922"/>
<polygon fill="#191970" stroke="#191970" points="474.4806,-964.1331 464.1154,-966.3267 473.5862,-971.0757 474.4806,-964.1331"/>
</g>
<!-- Node11 -->
<g id="node14" class="node">
<title>Node11</title>
<g id="a_node14"><a xlink:href="classDouble.html" target="_top" xlink:title="Handle numbers in expr. ">
<polygon fill="#ffffff" stroke="#bfbfbf" points="500,-893.5 500,-912.5 625,-912.5 625,-893.5 500,-893.5"/>
<text text-anchor="middle" x="562.5" y="-900.5" font-family="Helvetica,sans-Serif" font-size="10.00" fill="#000000">enable_shared_from_this</text>
</a>
</g>
</g>
<!-- Node9&#45;&gt;Node11 -->
<g id="edge13" class="edge">
<title>Node9&#45;&gt;Node11</title>
<path fill="none" stroke="#191970" d="M444.1077,-945.8991C460.3491,-938.3083 481.0667,-929.0783 500,-922 509.0295,-918.6243 518.9531,-915.3956 528.1817,-912.5885"/>
<polygon fill="#191970" stroke="#191970" points="442.1745,-942.9415 434.6297,-950.3797 445.1662,-949.27 442.1745,-942.9415"/>
</g>
<!-- Node12 -->
<g id="node15" class="node">
<title>Node12</title>
<g id="a_node15"><a xlink:href="classInteger.html" target="_top" xlink:title="Handle numbers in expr. ">
<polygon fill="#ffffff" stroke="#000000" points="539,-931.5 539,-950.5 586,-950.5 586,-931.5 539,-931.5"/>
<text text-anchor="middle" x="562.5" y="-938.5" font-family="Helvetica,sans-Serif" font-size="10.00" fill="#000000">Integer</text>
</a>
</g>
</g>
<!-- Node9&#45;&gt;Node12 -->
<g id="edge14" class="edge">
<title>Node9&#45;&gt;Node12</title>
<path fill="none" stroke="#191970" d="M474.3289,-952.3576C496.9157,-949.4481 521.3805,-946.2967 538.7965,-944.0533"/>
<polygon fill="#191970" stroke="#191970" points="473.5862,-948.9243 464.1154,-953.6733 474.4806,-955.8669 473.5862,-948.9243"/>
</g>
<!-- Node11&#45;&gt;Node0 -->
<g id="edge45" class="edge">
<title>Node11&#45;&gt;Node0</title>
<path fill="none" stroke="#191970" d="M502.2845,-914.458C463.3778,-921.9074 411.6697,-931.894 366,-941 350.8868,-944.0134 334.4009,-947.3755 319.5881,-950.424"/>
<polygon fill="#191970" stroke="#191970" points="503.2303,-917.8406 512.3947,-912.5241 501.9151,-910.9653 503.2303,-917.8406"/>
</g>
<!-- Node29 -->
<g id="node17" class="node">
<title>Node29</title>
<g id="a_node17"><a xlink:href="classAngle.html" target="_top" xlink:title="Handles a angle of 2 arguments. ">
<polygon fill="#ffffff" stroke="#000000" points="394.5,-874.5 394.5,-893.5 435.5,-893.5 435.5,-874.5 394.5,-874.5"/>
<text text-anchor="middle" x="415" y="-881.5" font-family="Helvetica,sans-Serif" font-size="10.00" fill="#000000">Angle</text>
</a>
</g>
</g>
<!-- Node28&#45;&gt;Node29 -->
<g id="edge16" class="edge">
<title>Node28&#45;&gt;Node29</title>
<path fill="none" stroke="#191970" d="M295.6503,-823.2436C313.9897,-835.4697 340.9985,-852.5793 366,-865 374.9884,-869.4654 385.2993,-873.6014 394.1367,-876.8665"/>
<polygon fill="#191970" stroke="#191970" points="297.3968,-820.2 287.1488,-817.5112 293.4833,-826.0039 297.3968,-820.2"/>
</g>
<!-- Node30 -->
<g id="node18" class="node">
<title>Node30</title>
<g id="a_node18"><a xlink:href="classDerivative.html" target="_top" xlink:title="Handles the exponentiation of one Abstract wrt another. ">
<polygon fill="#ffffff" stroke="#000000" points="384.5,-836.5 384.5,-855.5 445.5,-855.5 445.5,-836.5 384.5,-836.5"/>
<text text-anchor="middle" x="415" y="-843.5" font-family="Helvetica,sans-Serif" font-size="10.00" fill="#000000">Derivative</text>
</a>
</g>
</g>
<!-- Node28&#45;&gt;Node30 -->
<g id="edge17" class="edge">
<title>Node28&#45;&gt;Node30</title>
<path fill="none" stroke="#191970" d="M319.0129,-820.2225C340.285,-825.9352 365.06,-832.5886 384.1112,-837.7048"/>
<polygon fill="#191970" stroke="#191970" points="319.772,-816.8025 309.2064,-817.589 317.9564,-823.5629 319.772,-816.8025"/>
</g>
<!-- Node31 -->
<g id="node19" class="node">
<title>Node31</title>
<g id="a_node19"><a xlink:href="classFraction.html" target="_top" xlink:title="Handles a fraction of 2 arguments. ">
<polygon fill="#ffffff" stroke="#000000" points="389,-798.5 389,-817.5 441,-817.5 441,-798.5 389,-798.5"/>
<text text-anchor="middle" x="415" y="-805.5" font-family="Helvetica,sans-Serif" font-size="10.00" fill="#000000">Fraction</text>
</a>
</g>
</g>
<!-- Node28&#45;&gt;Node31 -->
<g id="edge18" class="edge">
<title>Node28&#45;&gt;Node31</title>
<path fill="none" stroke="#191970" d="M330.3414,-808C350.6372,-808 372.5228,-808 388.9566,-808"/>
<polygon fill="#191970" stroke="#191970" points="330.2246,-804.5001 320.2245,-808 330.2245,-811.5001 330.2246,-804.5001"/>
</g>
<!-- Node32 -->
<g id="node20" class="node">
<title>Node32</title>
<g id="a_node20"><a xlink:href="classPow.html" target="_top" xlink:title="Handles the exponentiation of one Abstract wrt another. ">
<polygon fill="#ffffff" stroke="#000000" points="397,-760.5 397,-779.5 433,-779.5 433,-760.5 397,-760.5"/>
<text text-anchor="middle" x="415" y="-767.5" font-family="Helvetica,sans-Serif" font-size="10.00" fill="#000000">Pow</text>
</a>
</g>
</g>
<!-- Node28&#45;&gt;Node32 -->
<g id="edge19" class="edge">
<title>Node28&#45;&gt;Node32</title>
<path fill="none" stroke="#191970" d="M319.0026,-795.7802C345.3448,-788.706 377.0614,-780.1885 396.6283,-774.9337"/>
<polygon fill="#191970" stroke="#191970" points="317.9564,-792.4371 309.2064,-798.411 319.772,-799.1975 317.9564,-792.4371"/>
</g>
<!-- Node34 -->
<g id="node22" class="node">
<title>Node34</title>
<g id="a_node22"><a xlink:href="classAbs.html" target="_top" xlink:title="Final specialization of AbstractFunc, the abs function. ">
<polygon fill="#ffffff" stroke="#000000" points="398,-722.5 398,-741.5 432,-741.5 432,-722.5 398,-722.5"/>
<text text-anchor="middle" x="415" y="-729.5" font-family="Helvetica,sans-Serif" font-size="10.00" fill="#000000">Abs</text>
</a>
</g>
</g>
<!-- Node33&#45;&gt;Node34 -->
<g id="edge21" class="edge">
<title>Node33&#45;&gt;Node34</title>
<path fill="none" stroke="#191970" d="M274.8452,-466.8182C279.1756,-515.3411 296.8369,-641.3555 366,-713 374.3649,-721.665 387.1311,-726.4457 397.5357,-729.0441"/>
<polygon fill="#191970" stroke="#191970" points="278.3232,-466.4011 274.0411,-456.7102 271.3452,-466.9563 278.3232,-466.4011"/>
</g>
<!-- Node35 -->
<g id="node23" class="node">
<title>Node35</title>
<g id="a_node23"><a xlink:href="classACos.html" target="_top" xlink:title="Final specialization of AbstractFunc, the acos function. ">
<polygon fill="#ffffff" stroke="#000000" points="394.5,-684.5 394.5,-703.5 435.5,-703.5 435.5,-684.5 394.5,-684.5"/>
<text text-anchor="middle" x="415" y="-691.5" font-family="Helvetica,sans-Serif" font-size="10.00" fill="#000000">ACos</text>
</a>
</g>
</g>
<!-- Node33&#45;&gt;Node35 -->
<g id="edge22" class="edge">
<title>Node33&#45;&gt;Node35</title>
<path fill="none" stroke="#191970" d="M276.1856,-466.8752C283.0871,-510.4595 305.3664,-615.2994 366,-675 373.6718,-682.5538 384.6819,-687.1807 394.3228,-689.9741"/>
<polygon fill="#191970" stroke="#191970" points="279.6114,-466.1153 274.6874,-456.7343 272.6866,-467.1384 279.6114,-466.1153"/>
</g>
<!-- Node36 -->
<g id="node24" class="node">
<title>Node36</title>
<g id="a_node24"><a xlink:href="classACosh.html" target="_top" xlink:title="Final specialization of AbstractFunc, the acosh function. ">
<polygon fill="#ffffff" stroke="#000000" points="391.5,-646.5 391.5,-665.5 438.5,-665.5 438.5,-646.5 391.5,-646.5"/>
<text text-anchor="middle" x="415" y="-653.5" font-family="Helvetica,sans-Serif" font-size="10.00" fill="#000000">ACosh</text>
</a>
</g>
</g>
<!-- Node33&#45;&gt;Node36 -->
<g id="edge23" class="edge">
<title>Node33&#45;&gt;Node36</title>
<path fill="none" stroke="#191970" d="M277.9527,-466.6355C287.5463,-504.6626 313.6609,-588.842 366,-637 372.9829,-643.4251 382.3791,-647.7655 391.0753,-650.6547"/>
<polygon fill="#191970" stroke="#191970" points="281.3288,-465.7053 275.5852,-456.8024 274.5233,-467.3439 281.3288,-465.7053"/>
</g>
<!-- Node37 -->
<g id="node25" class="node">
<title>Node37</title>
<g id="a_node25"><a xlink:href="classASin.html" target="_top" xlink:title="Final specialization of AbstractFunc, the asin function. ">
<polygon fill="#ffffff" stroke="#000000" points="396,-608.5 396,-627.5 434,-627.5 434,-608.5 396,-608.5"/>
<text text-anchor="middle" x="415" y="-615.5" font-family="Helvetica,sans-Serif" font-size="10.00" fill="#000000">ASin</text>
</a>
</g>
</g>
<!-- Node33&#45;&gt;Node37 -->
<g id="edge24" class="edge">
<title>Node33&#45;&gt;Node37</title>
<path fill="none" stroke="#191970" d="M280.4086,-466.1567C292.8052,-497.9912 321.7362,-561.9429 366,-599 374.5352,-606.1455 386.0637,-610.7956 395.7942,-613.7059"/>
<polygon fill="#191970" stroke="#191970" points="283.6389,-464.803 276.8402,-456.6772 277.0877,-467.2691 283.6389,-464.803"/>
</g>
<!-- Node38 -->
<g id="node26" class="node">
<title>Node38</title>
<g id="a_node26"><a xlink:href="classASinh.html" target="_top" xlink:title="Final specialization of AbstractFunc, the asinh function. ">
<polygon fill="#ffffff" stroke="#000000" points="393.5,-570.5 393.5,-589.5 436.5,-589.5 436.5,-570.5 393.5,-570.5"/>
<text text-anchor="middle" x="415" y="-577.5" font-family="Helvetica,sans-Serif" font-size="10.00" fill="#000000">ASinh</text>
</a>
</g>
</g>
<!-- Node33&#45;&gt;Node38 -->
<g id="edge25" class="edge">
<title>Node33&#45;&gt;Node38</title>
<path fill="none" stroke="#191970" d="M284.185,-465.4648C299.4251,-490.3294 329.6253,-534.5052 366,-561 374.1126,-566.9091 384.3003,-571.248 393.2821,-574.2752"/>
<polygon fill="#191970" stroke="#191970" points="287.0628,-463.4575 278.9274,-456.6703 281.0546,-467.0494 287.0628,-463.4575"/>
</g>
<!-- Node39 -->
<g id="node27" class="node">
<title>Node39</title>
<g id="a_node27"><a xlink:href="classATan.html" target="_top" xlink:title="Final specialization of AbstractFunc, the atan function. ">
<polygon fill="#ffffff" stroke="#000000" points="395,-532.5 395,-551.5 435,-551.5 435,-532.5 395,-532.5"/>
<text text-anchor="middle" x="415" y="-539.5" font-family="Helvetica,sans-Serif" font-size="10.00" fill="#000000">ATan</text>
</a>
</g>
</g>
<!-- Node33&#45;&gt;Node39 -->
<g id="edge26" class="edge">
<title>Node33&#45;&gt;Node39</title>
<path fill="none" stroke="#191970" d="M290.2271,-463.5627C307.8639,-480.3149 337.0554,-506.0857 366,-523 374.9805,-528.2479 385.6796,-532.5897 394.7858,-535.7916"/>
<polygon fill="#191970" stroke="#191970" points="292.6043,-460.9927 282.9792,-456.5646 287.742,-466.0285 292.6043,-460.9927"/>
</g>
<!-- Node40 -->
<g id="node28" class="node">
<title>Node40</title>
<g id="a_node28"><a xlink:href="classATanh.html" target="_top" xlink:title="Final specialization of AbstractFunc, the atanh function. ">
<polygon fill="#ffffff" stroke="#000000" points="392.5,-494.5 392.5,-513.5 437.5,-513.5 437.5,-494.5 392.5,-494.5"/>
<text text-anchor="middle" x="415" y="-501.5" font-family="Helvetica,sans-Serif" font-size="10.00" fill="#000000">ATanh</text>
</a>
</g>
</g>
<!-- Node33&#45;&gt;Node40 -->
<g id="edge27" class="edge">
<title>Node33&#45;&gt;Node40</title>
<path fill="none" stroke="#191970" d="M305.9569,-460.5182C323.6681,-467.8482 346.0014,-477.0158 366,-485 374.4737,-488.383 383.8042,-492.0222 392.029,-495.2013"/>
<polygon fill="#191970" stroke="#191970" points="307.215,-457.2509 296.637,-456.6541 304.534,-463.7172 307.215,-457.2509"/>
</g>
<!-- Node41 -->
<g id="node29" class="node">
<title>Node41</title>
<g id="a_node29"><a xlink:href="classCos.html" target="_top" xlink:title="Final specialization of AbstractFunc, the cos function. ">
<polygon fill="#ffffff" stroke="#000000" points="397.5,-456.5 397.5,-475.5 432.5,-475.5 432.5,-456.5 397.5,-456.5"/>
<text text-anchor="middle" x="415" y="-463.5" font-family="Helvetica,sans-Serif" font-size="10.00" fill="#000000">Cos</text>
</a>
</g>
</g>
<!-- Node33&#45;&gt;Node41 -->
<g id="edge28" class="edge">
<title>Node33&#45;&gt;Node41</title>
<path fill="none" stroke="#191970" d="M321.2224,-453.408C347.5022,-456.9367 378.5397,-461.1043 397.4907,-463.6489"/>
<polygon fill="#191970" stroke="#191970" points="321.4248,-449.9038 311.0479,-452.0418 320.4931,-456.8415 321.4248,-449.9038"/>
</g>
<!-- Node42 -->
<g id="node30" class="node">
<title>Node42</title>
<g id="a_node30"><a xlink:href="classCosh.html" target="_top" xlink:title="Final specialization of AbstractFunc, the cosh function. ">
<polygon fill="#ffffff" stroke="#000000" points="395,-418.5 395,-437.5 435,-437.5 435,-418.5 395,-418.5"/>
<text text-anchor="middle" x="415" y="-425.5" font-family="Helvetica,sans-Serif" font-size="10.00" fill="#000000">Cosh</text>
</a>
</g>
</g>
<!-- Node33&#45;&gt;Node42 -->
<g id="edge29" class="edge">
<title>Node33&#45;&gt;Node42</title>
<path fill="none" stroke="#191970" d="M321.1286,-440.6046C346.2103,-437.2368 375.6477,-433.2841 394.7782,-430.7153"/>
<polygon fill="#191970" stroke="#191970" points="320.4931,-437.1585 311.0479,-441.9582 321.4248,-444.0962 320.4931,-437.1585"/>
</g>
<!-- Node43 -->
<g id="node31" class="node">
<title>Node43</title>
<g id="a_node31"><a xlink:href="classExp.html" target="_top" xlink:title="Final specialization of AbstractFunc, the exponential function. ">
<polygon fill="#ffffff" stroke="#000000" points="398,-380.5 398,-399.5 432,-399.5 432,-380.5 398,-380.5"/>
<text text-anchor="middle" x="415" y="-387.5" font-family="Helvetica,sans-Serif" font-size="10.00" fill="#000000">Exp</text>
</a>
</g>
</g>
<!-- Node33&#45;&gt;Node43 -->
<g id="edge30" class="edge">
<title>Node33&#45;&gt;Node43</title>
<path fill="none" stroke="#191970" d="M305.9569,-433.4818C323.6681,-426.1518 346.0014,-416.9842 366,-409 376.5074,-404.805 388.3321,-400.2162 397.7327,-396.5992"/>
<polygon fill="#191970" stroke="#191970" points="304.534,-430.2828 296.637,-437.3459 307.215,-436.7491 304.534,-430.2828"/>
</g>
<!-- Node44 -->
<g id="node32" class="node">
<title>Node44</title>
<g id="a_node32"><a xlink:href="classFactorial.html" target="_top" xlink:title="Final specialization of AbstractFunc, the factorial function. ">
<polygon fill="#ffffff" stroke="#000000" points="388,-342.5 388,-361.5 442,-361.5 442,-342.5 388,-342.5"/>
<text text-anchor="middle" x="415" y="-349.5" font-family="Helvetica,sans-Serif" font-size="10.00" fill="#000000">Factorial</text>
</a>
</g>
</g>
<!-- Node33&#45;&gt;Node44 -->
<g id="edge31" class="edge">
<title>Node33&#45;&gt;Node44</title>
<path fill="none" stroke="#191970" d="M290.2271,-430.4373C307.8639,-413.6851 337.0554,-387.9143 366,-371 372.7748,-367.041 380.5276,-363.5978 387.8368,-360.7705"/>
<polygon fill="#191970" stroke="#191970" points="287.742,-427.9715 282.9792,-437.4354 292.6043,-433.0073 287.742,-427.9715"/>
</g>
<!-- Node45 -->
<g id="node33" class="node">
<title>Node45</title>
<g id="a_node33"><a xlink:href="classLog.html" target="_top" xlink:title="Final specialization of AbstractFunc, the logarithm function. ">
<polygon fill="#ffffff" stroke="#000000" points="399,-304.5 399,-323.5 431,-323.5 431,-304.5 399,-304.5"/>
<text text-anchor="middle" x="415" y="-311.5" font-family="Helvetica,sans-Serif" font-size="10.00" fill="#000000">Log</text>
</a>
</g>
</g>
<!-- Node33&#45;&gt;Node45 -->
<g id="edge32" class="edge">
<title>Node33&#45;&gt;Node45</title>
<path fill="none" stroke="#191970" d="M284.185,-428.5352C299.4251,-403.6706 329.6253,-359.4948 366,-333 375.8826,-325.8017 388.8447,-320.9333 398.9548,-317.928"/>
<polygon fill="#191970" stroke="#191970" points="281.0546,-426.9506 278.9274,-437.3297 287.0628,-430.5425 281.0546,-426.9506"/>
</g>
<!-- Node46 -->
<g id="node34" class="node">
<title>Node46</title>
<g id="a_node34"><a xlink:href="classSin.html" target="_top" xlink:title="Final specialization of AbstractFunc, the sin function. ">
<polygon fill="#ffffff" stroke="#000000" points="399.5,-266.5 399.5,-285.5 430.5,-285.5 430.5,-266.5 399.5,-266.5"/>
<text text-anchor="middle" x="415" y="-273.5" font-family="Helvetica,sans-Serif" font-size="10.00" fill="#000000">Sin</text>
</a>
</g>
</g>
<!-- Node33&#45;&gt;Node46 -->
<g id="edge33" class="edge">
<title>Node33&#45;&gt;Node46</title>
<path fill="none" stroke="#191970" d="M280.4086,-427.8433C292.8052,-396.0088 321.7362,-332.0571 366,-295 375.5146,-287.0345 388.749,-282.17 399.0657,-279.3598"/>
<polygon fill="#191970" stroke="#191970" points="277.0877,-426.7309 276.8402,-437.3228 283.6389,-429.197 277.0877,-426.7309"/>
</g>
<!-- Node47 -->
<g id="node35" class="node">
<title>Node47</title>
<g id="a_node35"><a xlink:href="classSinh.html" target="_top" xlink:title="Final specialization of AbstractFunc, the sinh function. ">
<polygon fill="#ffffff" stroke="#000000" points="397,-228.5 397,-247.5 433,-247.5 433,-228.5 397,-228.5"/>
<text text-anchor="middle" x="415" y="-235.5" font-family="Helvetica,sans-Serif" font-size="10.00" fill="#000000">Sinh</text>
</a>
</g>
</g>
<!-- Node33&#45;&gt;Node47 -->
<g id="edge34" class="edge">
<title>Node33&#45;&gt;Node47</title>
<path fill="none" stroke="#191970" d="M277.9527,-427.3645C287.5463,-389.3374 313.6609,-305.158 366,-257 374.5943,-249.0922 386.8443,-244.3422 396.9457,-241.5692"/>
<polygon fill="#191970" stroke="#191970" points="274.5233,-426.6561 275.5852,-437.1976 281.3288,-428.2947 274.5233,-426.6561"/>
</g>
<!-- Node48 -->
<g id="node36" class="node">
<title>Node48</title>
<g id="a_node36"><a xlink:href="classTan.html" target="_top" xlink:title="Final specialization of AbstractFunc, the tan function. ">
<polygon fill="#ffffff" stroke="#000000" points="398.5,-190.5 398.5,-209.5 431.5,-209.5 431.5,-190.5 398.5,-190.5"/>
<text text-anchor="middle" x="415" y="-197.5" font-family="Helvetica,sans-Serif" font-size="10.00" fill="#000000">Tan</text>
</a>
</g>
</g>
<!-- Node33&#45;&gt;Node48 -->
<g id="edge35" class="edge">
<title>Node33&#45;&gt;Node48</title>
<path fill="none" stroke="#191970" d="M276.1856,-427.1248C283.0871,-383.5405 305.3664,-278.7006 366,-219 374.712,-210.422 387.729,-205.6183 398.1572,-202.988"/>
<polygon fill="#191970" stroke="#191970" points="272.6866,-426.8616 274.6874,-437.2657 279.6114,-427.8847 272.6866,-426.8616"/>
</g>
<!-- Node49 -->
<g id="node37" class="node">
<title>Node49</title>
<g id="a_node37"><a xlink:href="classTanh.html" target="_top" xlink:title="Final specialization of AbstractFunc, the tanh function. ">
<polygon fill="#ffffff" stroke="#000000" points="396,-152.5 396,-171.5 434,-171.5 434,-152.5 396,-152.5"/>
<text text-anchor="middle" x="415" y="-159.5" font-family="Helvetica,sans-Serif" font-size="10.00" fill="#000000">Tanh</text>
</a>
</g>
</g>
<!-- Node33&#45;&gt;Node49 -->
<g id="edge36" class="edge">
<title>Node33&#45;&gt;Node49</title>
<path fill="none" stroke="#191970" d="M274.8452,-427.1818C279.1756,-378.6589 296.8369,-252.6445 366,-181 373.8579,-172.8602 385.5998,-168.148 395.6195,-165.4528"/>
<polygon fill="#191970" stroke="#191970" points="271.3452,-427.0437 274.0411,-437.2898 278.3232,-427.5989 271.3452,-427.0437"/>
</g>
<!-- Node51 -->
<g id="node39" class="node">
<title>Node51</title>
<g id="a_node39"><a xlink:href="classPlus.html" target="_top" xlink:title="Handles a sum, function of multiple arguments. ">
<polygon fill="#ffffff" stroke="#000000" points="397,-114.5 397,-133.5 433,-133.5 433,-114.5 397,-114.5"/>
<text text-anchor="middle" x="415" y="-121.5" font-family="Helvetica,sans-Serif" font-size="10.00" fill="#000000">Plus</text>
</a>
</g>
</g>
<!-- Node50&#45;&gt;Node51 -->
<g id="edge38" class="edge">
<title>Node50&#45;&gt;Node51</title>
<path fill="none" stroke="#191970" d="M331.9574,-124C355.182,-124 380.2297,-124 396.6724,-124"/>
<polygon fill="#191970" stroke="#191970" points="331.8005,-120.5001 321.8005,-124 331.8005,-127.5001 331.8005,-120.5001"/>
</g>
<!-- Node52 -->
<g id="node40" class="node">
<title>Node52</title>
<g id="a_node40"><a xlink:href="classPolynomial.html" target="_top" xlink:title="Handles a polynomial, function of multiple arguments. ">
<polygon fill="#ffffff" stroke="#000000" points="382.5,-76.5 382.5,-95.5 447.5,-95.5 447.5,-76.5 382.5,-76.5"/>
<text text-anchor="middle" x="415" y="-83.5" font-family="Helvetica,sans-Serif" font-size="10.00" fill="#000000">Polynomial</text>
</a>
</g>
</g>
<!-- Node50&#45;&gt;Node52 -->
<g id="edge39" class="edge">
<title>Node50&#45;&gt;Node52</title>
<path fill="none" stroke="#191970" d="M319.0067,-111.7791C339.5812,-106.2538 363.4336,-99.8482 382.2148,-94.8045"/>
<polygon fill="#191970" stroke="#191970" points="317.9564,-108.4371 309.2064,-114.411 319.772,-115.1975 317.9564,-108.4371"/>
</g>
<!-- Node53 -->
<g id="node41" class="node">
<title>Node53</title>
<g id="a_node41"><a xlink:href="classTimes.html" target="_top" xlink:title="Handles a product, function of multiple arguments. ">
<polygon fill="#ffffff" stroke="#000000" points="393,-38.5 393,-57.5 437,-57.5 437,-38.5 393,-38.5"/>
<text text-anchor="middle" x="415" y="-45.5" font-family="Helvetica,sans-Serif" font-size="10.00" fill="#000000">Times</text>
</a>
</g>
</g>
<!-- Node50&#45;&gt;Node53 -->
<g id="edge40" class="edge">
<title>Node50&#45;&gt;Node53</title>
<path fill="none" stroke="#191970" d="M319.9697,-110.4819C323.4628,-108.8352 326.8493,-107.0124 330,-105 349.6063,-92.4769 346.6837,-79.9659 366,-67 374.0302,-61.6098 383.8113,-57.4259 392.5167,-54.3734"/>
<polygon fill="#191970" stroke="#191970" points="318.424,-107.3349 310.5631,-114.4383 321.138,-113.7874 318.424,-107.3349"/>
</g>
<!-- Node55 -->
<g id="node43" class="node">
<title>Node55</title>
<g id="a_node43"><a xlink:href="classHighDTensor.html" target="_top" xlink:title="HighDTensor">
<polygon fill="#ffffff" stroke="#000000" points="236.5,-76.5 236.5,-95.5 310.5,-95.5 310.5,-76.5 236.5,-76.5"/>
<text text-anchor="middle" x="273.5" y="-83.5" font-family="Helvetica,sans-Serif" font-size="10.00" fill="#000000">HighDTensor</text>
</a>
</g>
</g>
<!-- Node54&#45;&gt;Node55 -->
<g id="edge42" class="edge">
<title>Node54&#45;&gt;Node55</title>
<path fill="none" stroke="#191970" d="M191.4202,-74.74C206.5496,-76.8155 222.5257,-79.0071 236.3219,-80.8998"/>
<polygon fill="#191970" stroke="#191970" points="191.5014,-71.2184 181.1185,-73.3267 190.55,-78.1534 191.5014,-71.2184"/>
</g>
<!-- Node56 -->
<g id="node44" class="node">
<title>Node56</title>
<g id="a_node44"><a xlink:href="classMatrix.html" target="_top" xlink:title="Matrix">
<polygon fill="#ffffff" stroke="#000000" points="251.5,-38.5 251.5,-57.5 295.5,-57.5 295.5,-38.5 251.5,-38.5"/>
<text text-anchor="middle" x="273.5" y="-45.5" font-family="Helvetica,sans-Serif" font-size="10.00" fill="#000000">Matrix</text>
</a>
</g>
</g>
<!-- Node54&#45;&gt;Node56 -->
<g id="edge43" class="edge">
<title>Node54&#45;&gt;Node56</title>
<path fill="none" stroke="#191970" d="M191.2824,-59.2789C212.3309,-56.3914 235.0368,-53.2765 251.2428,-51.0533"/>
<polygon fill="#191970" stroke="#191970" points="190.55,-55.8466 181.1185,-60.6733 191.5014,-62.7816 190.55,-55.8466"/>
</g>
<!-- Node57 -->
<g id="node45" class="node">
<title>Node57</title>
<g id="a_node45"><a xlink:href="classVector.html" target="_top" xlink:title="Vector">
<polygon fill="#ffffff" stroke="#000000" points="251,-.5 251,-19.5 296,-19.5 296,-.5 251,-.5"/>
<text text-anchor="middle" x="273.5" y="-7.5" font-family="Helvetica,sans-Serif" font-size="10.00" fill="#000000">Vector</text>
</a>
</g>
</g>
<!-- Node54&#45;&gt;Node57 -->
<g id="edge44" class="edge">
<title>Node54&#45;&gt;Node57</title>
<path fill="none" stroke="#191970" d="M163.1105,-53.0438C178.7877,-45.4969 198.7732,-36.2626 217,-29 227.9596,-24.633 240.3625,-20.3876 250.7498,-17.0215"/>
<polygon fill="#191970" stroke="#191970" points="161.4236,-49.9722 153.9602,-57.492 164.4841,-56.2677 161.4236,-49.9722"/>
</g>
</g>
</svg>
