<?xml version="1.0" encoding="UTF-8" standalone="no"?>
<!DOCTYPE svg PUBLIC "-//W3C//DTD SVG 1.1//EN"
 "http://www.w3.org/Graphics/SVG/1.1/DTD/svg11.dtd">
<!-- Generated by graphviz version 2.40.1 (20161225.0304)
 -->
<!-- Title: Graphical Class Hierarchy Pages: 1 -->
<svg width="597pt" height="1187pt"
 viewBox="0.00 0.00 597.00 1187.00" xmlns="http://www.w3.org/2000/svg" xmlns:xlink="http://www.w3.org/1999/xlink">
<g id="graph0" class="graph" transform="scale(1 1) rotate(0) translate(4 1183)">
<title>Graphical Class Hierarchy</title>
<polygon fill="#ffffff" stroke="transparent" points="-4,4 -4,-1183 593,-1183 593,4 -4,4"/>
<!-- Node17 -->
<g id="node1" class="node">
<title>Node17</title>
<g id="a_node1"><a xlink:href="classAbstract.html" target="_top" xlink:title="Root class of the inheritance tree of abstracts. ">
<polygon fill="#ffffff" stroke="#000000" points="0,-114.5 0,-133.5 53,-133.5 53,-114.5 0,-114.5"/>
<text text-anchor="middle" x="26.5" y="-121.5" font-family="Helvetica,sans-Serif" font-size="10.00" fill="#000000">Abstract</text>
</a>
</g>
</g>
<!-- Node18 -->
<g id="node2" class="node">
<title>Node18</title>
<g id="a_node2"><a xlink:href="classAbstractScalar.html" target="_top" xlink:title="Abstract class concerning all scalars (dim = 0). Allows to implement one time getDim() = 0 for all sc...">
<polygon fill="#ffffff" stroke="#000000" points="94.5,-342.5 94.5,-361.5 175.5,-361.5 175.5,-342.5 94.5,-342.5"/>
<text text-anchor="middle" x="135" y="-349.5" font-family="Helvetica,sans-Serif" font-size="10.00" fill="#000000">AbstractScalar</text>
</a>
</g>
</g>
<!-- Node17&#45;&gt;Node18 -->
<g id="edge1" class="edge">
<title>Node17&#45;&gt;Node18</title>
<path fill="none" stroke="#191970" d="M35.4031,-142.7088C57.4561,-189.0505 114.0192,-307.9114 130.4567,-342.4528"/>
<polygon fill="#191970" stroke="#191970" points="38.4815,-141.0323 31.024,-133.5066 32.1607,-144.0403 38.4815,-141.0323"/>
</g>
<!-- Node49 -->
<g id="node43" class="node">
<title>Node49</title>
<g id="a_node43"><a xlink:href="classAbstractVectorial.html" target="_top" xlink:title="AbstractVectorial">
<polygon fill="#ffffff" stroke="#000000" points="89,-57.5 89,-76.5 181,-76.5 181,-57.5 89,-57.5"/>
<text text-anchor="middle" x="135" y="-64.5" font-family="Helvetica,sans-Serif" font-size="10.00" fill="#000000">AbstractVectorial</text>
</a>
</g>
</g>
<!-- Node17&#45;&gt;Node49 -->
<g id="edge42" class="edge">
<title>Node17&#45;&gt;Node49</title>
<path fill="none" stroke="#191970" d="M54.0106,-109.5475C73.7202,-99.1931 99.7089,-85.54 116.8663,-76.5265"/>
<polygon fill="#191970" stroke="#191970" points="52.1305,-106.5815 44.9055,-114.3307 55.3861,-112.7784 52.1305,-106.5815"/>
</g>
<!-- Node0 -->
<g id="node3" class="node">
<title>Node0</title>
<g id="a_node3"><a xlink:href="classAbstractBuildingBlock.html" target="_top" xlink:title="Abstract class from which derive all building blocks of exprs, i.e. objects not function of further e...">
<polygon fill="#ffffff" stroke="#000000" points="217,-988.5 217,-1007.5 330,-1007.5 330,-988.5 217,-988.5"/>
<text text-anchor="middle" x="273.5" y="-995.5" font-family="Helvetica,sans-Serif" font-size="10.00" fill="#000000">AbstractBuildingBlock</text>
</a>
</g>
</g>
<!-- Node18&#45;&gt;Node0 -->
<g id="edge2" class="edge">
<title>Node18&#45;&gt;Node0</title>
<path fill="none" stroke="#191970" d="M136.9056,-371.7655C145.3749,-457.9748 180.7823,-801.3062 217,-903 229.0393,-936.8045 253.6375,-971.9133 266.0228,-988.3833"/>
<polygon fill="#191970" stroke="#191970" points="140.3642,-371.1693 135.911,-361.5558 133.3972,-371.8481 140.3642,-371.1693"/>
</g>
<!-- Node19 -->
<g id="node13" class="node">
<title>Node19</title>
<g id="a_node13"><a xlink:href="classAbstractDuoFunc.html" target="_top" xlink:title="Handle functions of multiple arguments. In the case of the call of a simplification function...">
<polygon fill="#ffffff" stroke="#000000" points="227,-874.5 227,-893.5 320,-893.5 320,-874.5 227,-874.5"/>
<text text-anchor="middle" x="273.5" y="-881.5" font-family="Helvetica,sans-Serif" font-size="10.00" fill="#000000">AbstractDuoFunc</text>
</a>
</g>
</g>
<!-- Node18&#45;&gt;Node19 -->
<g id="edge12" class="edge">
<title>Node18&#45;&gt;Node19</title>
<path fill="none" stroke="#191970" d="M140.1002,-371.5905C162.8152,-458.8424 254.383,-810.5686 270.9302,-874.1291"/>
<polygon fill="#191970" stroke="#191970" points="143.4287,-370.4836 137.5222,-361.688 136.6545,-372.2472 143.4287,-370.4836"/>
</g>
<!-- Node24 -->
<g id="node18" class="node">
<title>Node24</title>
<g id="a_node18"><a xlink:href="classAbstractFunc.html" target="_top" xlink:title="Base class for scalar functions of one argument. ">
<polygon fill="#ffffff" stroke="#000000" points="236,-494.5 236,-513.5 311,-513.5 311,-494.5 236,-494.5"/>
<text text-anchor="middle" x="273.5" y="-501.5" font-family="Helvetica,sans-Serif" font-size="10.00" fill="#000000">AbstractFunc</text>
</a>
</g>
</g>
<!-- Node18&#45;&gt;Node24 -->
<g id="edge17" class="edge">
<title>Node18&#45;&gt;Node24</title>
<path fill="none" stroke="#191970" d="M150.6734,-369.2011C179.9429,-401.3236 242.0109,-469.4415 264.8395,-494.4953"/>
<polygon fill="#191970" stroke="#191970" points="152.9861,-366.5427 143.6638,-361.5083 147.8119,-371.2573 152.9861,-366.5427"/>
</g>
<!-- Node41 -->
<g id="node35" class="node">
<title>Node41</title>
<g id="a_node35"><a xlink:href="classAbstractIndicial.html" target="_top" xlink:title="AbstractIndicial">
<polygon fill="#ffffff" stroke="#000000" points="231.5,-190.5 231.5,-209.5 315.5,-209.5 315.5,-190.5 231.5,-190.5"/>
<text text-anchor="middle" x="273.5" y="-197.5" font-family="Helvetica,sans-Serif" font-size="10.00" fill="#000000">AbstractIndicial</text>
</a>
</g>
</g>
<!-- Node18&#45;&gt;Node41 -->
<g id="edge34" class="edge">
<title>Node18&#45;&gt;Node41</title>
<path fill="none" stroke="#191970" d="M150.6734,-334.7989C179.9429,-302.6764 242.0109,-234.5585 264.8395,-209.5047"/>
<polygon fill="#191970" stroke="#191970" points="147.8119,-332.7427 143.6638,-342.4917 152.9861,-337.4573 147.8119,-332.7427"/>
</g>
<!-- Node44 -->
<g id="node38" class="node">
<title>Node44</title>
<g id="a_node38"><a xlink:href="classAbstractMultiFunc.html" target="_top" xlink:title="Handle functions of multiple arguments. In the case of the call of a simplification function...">
<polygon fill="#ffffff" stroke="#000000" points="225.5,-114.5 225.5,-133.5 321.5,-133.5 321.5,-114.5 225.5,-114.5"/>
<text text-anchor="middle" x="273.5" y="-121.5" font-family="Helvetica,sans-Serif" font-size="10.00" fill="#000000">AbstractMultiFunc</text>
</a>
</g>
</g>
<!-- Node18&#45;&gt;Node44 -->
<g id="edge37" class="edge">
<title>Node18&#45;&gt;Node44</title>
<path fill="none" stroke="#191970" d="M141.9528,-332.3293C154.1592,-299.278 181.5482,-231.2871 217,-181 230.1667,-162.3236 249.6512,-144.1835 261.9552,-133.5574"/>
<polygon fill="#191970" stroke="#191970" points="138.5205,-331.5283 138.4056,-342.1225 145.1021,-333.9122 138.5205,-331.5283"/>
</g>
<!-- Node1 -->
<g id="node4" class="node">
<title>Node1</title>
<g id="a_node4"><a xlink:href="classAbstractLiteral.html" target="_top" xlink:title="Abstract class from which derive literal building blocks: Constant, Variable, Imaginary and CFactoria...">
<polygon fill="#ffffff" stroke="#000000" points="388.5,-1083.5 388.5,-1102.5 468.5,-1102.5 468.5,-1083.5 388.5,-1083.5"/>
<text text-anchor="middle" x="428.5" y="-1090.5" font-family="Helvetica,sans-Serif" font-size="10.00" fill="#000000">AbstractLiteral</text>
</a>
</g>
</g>
<!-- Node0&#45;&gt;Node1 -->
<g id="edge3" class="edge">
<title>Node0&#45;&gt;Node1</title>
<path fill="none" stroke="#191970" d="M298.005,-1013.0192C330.1604,-1032.7274 385.675,-1066.7524 412.7432,-1083.3426"/>
<polygon fill="#191970" stroke="#191970" points="299.5702,-1009.8735 289.2152,-1007.6319 295.9123,-1015.8417 299.5702,-1009.8735"/>
</g>
<!-- Node6 -->
<g id="node9" class="node">
<title>Node6</title>
<g id="a_node9"><a xlink:href="classAbstractNumerical.html" target="_top" xlink:title="Abstract class from which derive numerical types, i.e. Double, Integer, CFraction. ">
<polygon fill="#ffffff" stroke="#bfbfbf" points="366,-988.5 366,-1007.5 491,-1007.5 491,-988.5 366,-988.5"/>
<text text-anchor="middle" x="428.5" y="-995.5" font-family="Helvetica,sans-Serif" font-size="10.00" fill="#000000">enable_shared_from_this</text>
</a>
</g>
</g>
<!-- Node0&#45;&gt;Node6 -->
<g id="edge8" class="edge">
<title>Node0&#45;&gt;Node6</title>
<path fill="none" stroke="#191970" d="M340.515,-991.3052C348.951,-991.2159 357.5559,-991.235 365.9198,-991.3624"/>
<polygon fill="#191970" stroke="#191970" points="340.2789,-987.8084 330.3361,-991.4679 340.3908,-994.8075 340.2789,-987.8084"/>
</g>
<!-- Node2 -->
<g id="node5" class="node">
<title>Node2</title>
<g id="a_node5"><a xlink:href="classCFactorial.html" target="_top" xlink:title="Handles factorial of a Number. ">
<polygon fill="#ffffff" stroke="#000000" points="527,-1159.5 527,-1178.5 589,-1178.5 589,-1159.5 527,-1159.5"/>
<text text-anchor="middle" x="558" y="-1166.5" font-family="Helvetica,sans-Serif" font-size="10.00" fill="#000000">CFactorial</text>
</a>
</g>
</g>
<!-- Node1&#45;&gt;Node2 -->
<g id="edge4" class="edge">
<title>Node1&#45;&gt;Node2</title>
<path fill="none" stroke="#191970" d="M453.8127,-1107.8553C479.8458,-1123.1335 519.6172,-1146.4742 541.7319,-1159.4527"/>
<polygon fill="#191970" stroke="#191970" points="455.2973,-1104.6684 444.9013,-1102.6255 451.7542,-1110.7055 455.2973,-1104.6684"/>
</g>
<!-- Node3 -->
<g id="node6" class="node">
<title>Node3</title>
<g id="a_node6"><a xlink:href="classConstant.html" target="_top" xlink:title="Handle an object with a name and a value. ">
<polygon fill="#ffffff" stroke="#000000" points="530,-1121.5 530,-1140.5 586,-1140.5 586,-1121.5 530,-1121.5"/>
<text text-anchor="middle" x="558" y="-1128.5" font-family="Helvetica,sans-Serif" font-size="10.00" fill="#000000">Constant</text>
</a>
</g>
</g>
<!-- Node1&#45;&gt;Node3 -->
<g id="edge5" class="edge">
<title>Node1&#45;&gt;Node3</title>
<path fill="none" stroke="#191970" d="M470.9477,-1105.4557C490.2359,-1111.1156 512.5319,-1117.658 529.7307,-1122.7048"/>
<polygon fill="#191970" stroke="#191970" points="471.7592,-1102.0463 461.1783,-1102.589 469.7882,-1108.7631 471.7592,-1102.0463"/>
</g>
<!-- Node4 -->
<g id="node7" class="node">
<title>Node4</title>
<g id="a_node7"><a xlink:href="classImaginary.html" target="_top" xlink:title="Numerical representation of i. ">
<polygon fill="#ffffff" stroke="#000000" points="528.5,-1083.5 528.5,-1102.5 587.5,-1102.5 587.5,-1083.5 528.5,-1083.5"/>
<text text-anchor="middle" x="558" y="-1090.5" font-family="Helvetica,sans-Serif" font-size="10.00" fill="#000000">Imaginary</text>
</a>
</g>
</g>
<!-- Node1&#45;&gt;Node4 -->
<g id="edge6" class="edge">
<title>Node1&#45;&gt;Node4</title>
<path fill="none" stroke="#191970" d="M478.9776,-1093C495.7271,-1093 513.8175,-1093 528.4575,-1093"/>
<polygon fill="#191970" stroke="#191970" points="478.7648,-1089.5001 468.7647,-1093 478.7647,-1096.5001 478.7648,-1089.5001"/>
</g>
<!-- Node5 -->
<g id="node8" class="node">
<title>Node5</title>
<g id="a_node8"><a xlink:href="classVariable.html" target="_top" xlink:title="Handle an object with a name and a value. ">
<polygon fill="#ffffff" stroke="#000000" points="532,-1045.5 532,-1064.5 584,-1064.5 584,-1045.5 532,-1045.5"/>
<text text-anchor="middle" x="558" y="-1052.5" font-family="Helvetica,sans-Serif" font-size="10.00" fill="#000000">Variable</text>
</a>
</g>
</g>
<!-- Node1&#45;&gt;Node5 -->
<g id="edge7" class="edge">
<title>Node1&#45;&gt;Node5</title>
<path fill="none" stroke="#191970" d="M471.0306,-1080.52C491.1033,-1074.6299 514.418,-1067.7885 531.8522,-1062.6727"/>
<polygon fill="#191970" stroke="#191970" points="469.7882,-1077.2369 461.1783,-1083.411 471.7592,-1083.9537 469.7882,-1077.2369"/>
</g>
<!-- Node6&#45;&gt;Node0 -->
<g id="edge46" class="edge">
<title>Node6&#45;&gt;Node0</title>
<path fill="none" stroke="#191970" d="M355.9056,-1004.738C347.3219,-1004.7801 338.6576,-1004.7115 330.3361,-1004.5321"/>
<polygon fill="#191970" stroke="#191970" points="355.9554,-1008.2377 365.9198,-1004.6376 355.8852,-1001.2381 355.9554,-1008.2377"/>
</g>
<!-- Node7 -->
<g id="node10" class="node">
<title>Node7</title>
<g id="a_node10"><a xlink:href="classCFraction.html" target="_top" xlink:title="Handles fractions of Number. ">
<polygon fill="#ffffff" stroke="#000000" points="528.5,-1007.5 528.5,-1026.5 587.5,-1026.5 587.5,-1007.5 528.5,-1007.5"/>
<text text-anchor="middle" x="558" y="-1014.5" font-family="Helvetica,sans-Serif" font-size="10.00" fill="#000000">CFraction</text>
</a>
</g>
</g>
<!-- Node6&#45;&gt;Node7 -->
<g id="edge9" class="edge">
<title>Node6&#45;&gt;Node7</title>
<path fill="none" stroke="#191970" d="M501.3067,-1008.6821C510.81,-1010.0764 520.078,-1011.4362 528.2749,-1012.6388"/>
<polygon fill="#191970" stroke="#191970" points="501.7554,-1005.2105 491.3533,-1007.2217 500.7392,-1012.1364 501.7554,-1005.2105"/>
</g>
<!-- Node8 -->
<g id="node11" class="node">
<title>Node8</title>
<g id="a_node11"><a xlink:href="classDouble.html" target="_top" xlink:title="Handle numbers in expr. ">
<polygon fill="#ffffff" stroke="#000000" points="534.5,-969.5 534.5,-988.5 581.5,-988.5 581.5,-969.5 534.5,-969.5"/>
<text text-anchor="middle" x="558" y="-976.5" font-family="Helvetica,sans-Serif" font-size="10.00" fill="#000000">Double</text>
</a>
</g>
</g>
<!-- Node6&#45;&gt;Node8 -->
<g id="edge10" class="edge">
<title>Node6&#45;&gt;Node8</title>
<path fill="none" stroke="#191970" d="M501.4027,-987.3038C513.3048,-985.5576 524.8334,-983.8661 534.3454,-982.4706"/>
<polygon fill="#191970" stroke="#191970" points="500.7392,-983.8636 491.3533,-988.7783 501.7554,-990.7895 500.7392,-983.8636"/>
</g>
<!-- Node9 -->
<g id="node12" class="node">
<title>Node9</title>
<g id="a_node12"><a xlink:href="classInteger.html" target="_top" xlink:title="Handle numbers in expr. ">
<polygon fill="#ffffff" stroke="#000000" points="534.5,-931.5 534.5,-950.5 581.5,-950.5 581.5,-931.5 534.5,-931.5"/>
<text text-anchor="middle" x="558" y="-938.5" font-family="Helvetica,sans-Serif" font-size="10.00" fill="#000000">Integer</text>
</a>
</g>
</g>
<!-- Node6&#45;&gt;Node9 -->
<g id="edge11" class="edge">
<title>Node6&#45;&gt;Node9</title>
<path fill="none" stroke="#191970" d="M474.2388,-985.3799C479.9518,-983.4293 485.6591,-981.2929 491,-979 501.0762,-974.6741 525.7391,-960.2955 542.1642,-950.5197"/>
<polygon fill="#191970" stroke="#191970" points="473.1133,-982.0653 464.6826,-988.482 475.2747,-988.7233 473.1133,-982.0653"/>
</g>
<!-- Node20 -->
<g id="node14" class="node">
<title>Node20</title>
<g id="a_node14"><a xlink:href="classAngle.html" target="_top" xlink:title="Handles a angle of 2 arguments. ">
<polygon fill="#ffffff" stroke="#000000" points="408,-950.5 408,-969.5 449,-969.5 449,-950.5 408,-950.5"/>
<text text-anchor="middle" x="428.5" y="-957.5" font-family="Helvetica,sans-Serif" font-size="10.00" fill="#000000">Angle</text>
</a>
</g>
</g>
<!-- Node19&#45;&gt;Node20 -->
<g id="edge13" class="edge">
<title>Node19&#45;&gt;Node20</title>
<path fill="none" stroke="#191970" d="M295.3469,-899.7028C313.5487,-912.2246 340.5214,-929.509 366,-941 379.4397,-947.0614 395.3468,-951.8663 407.7496,-955.1277"/>
<polygon fill="#191970" stroke="#191970" points="296.8834,-896.5064 286.6824,-893.6447 292.8723,-902.2433 296.8834,-896.5064"/>
</g>
<!-- Node21 -->
<g id="node15" class="node">
<title>Node21</title>
<g id="a_node15"><a xlink:href="classDerivative.html" target="_top" xlink:title="Handles the exponentiation of one Abstract wrt another. ">
<polygon fill="#ffffff" stroke="#000000" points="398,-912.5 398,-931.5 459,-931.5 459,-912.5 398,-912.5"/>
<text text-anchor="middle" x="428.5" y="-919.5" font-family="Helvetica,sans-Serif" font-size="10.00" fill="#000000">Derivative</text>
</a>
</g>
</g>
<!-- Node19&#45;&gt;Node21 -->
<g id="edge14" class="edge">
<title>Node19&#45;&gt;Node21</title>
<path fill="none" stroke="#191970" d="M322.5088,-896.0151C347.1413,-902.054 376.2349,-909.1866 397.7033,-914.4498"/>
<polygon fill="#191970" stroke="#191970" points="323.1588,-892.5708 312.613,-893.589 321.492,-899.3695 323.1588,-892.5708"/>
</g>
<!-- Node22 -->
<g id="node16" class="node">
<title>Node22</title>
<g id="a_node16"><a xlink:href="classFraction.html" target="_top" xlink:title="Handles a fraction of 2 arguments. ">
<polygon fill="#ffffff" stroke="#000000" points="402.5,-874.5 402.5,-893.5 454.5,-893.5 454.5,-874.5 402.5,-874.5"/>
<text text-anchor="middle" x="428.5" y="-881.5" font-family="Helvetica,sans-Serif" font-size="10.00" fill="#000000">Fraction</text>
</a>
</g>
</g>
<!-- Node19&#45;&gt;Node22 -->
<g id="edge15" class="edge">
<title>Node19&#45;&gt;Node22</title>
<path fill="none" stroke="#191970" d="M330.0221,-884C354.7519,-884 382.5635,-884 402.3077,-884"/>
<polygon fill="#191970" stroke="#191970" points="330.0051,-880.5001 320.0051,-884 330.0051,-887.5001 330.0051,-880.5001"/>
</g>
<!-- Node23 -->
<g id="node17" class="node">
<title>Node23</title>
<g id="a_node17"><a xlink:href="classPow.html" target="_top" xlink:title="Handles the exponentiation of one Abstract wrt another. ">
<polygon fill="#ffffff" stroke="#000000" points="410.5,-836.5 410.5,-855.5 446.5,-855.5 446.5,-836.5 410.5,-836.5"/>
<text text-anchor="middle" x="428.5" y="-843.5" font-family="Helvetica,sans-Serif" font-size="10.00" fill="#000000">Pow</text>
</a>
</g>
</g>
<!-- Node19&#45;&gt;Node23 -->
<g id="edge16" class="edge">
<title>Node19&#45;&gt;Node23</title>
<path fill="none" stroke="#191970" d="M322.4932,-871.9888C352.467,-864.6404 389.0509,-855.6714 410.4637,-850.4218"/>
<polygon fill="#191970" stroke="#191970" points="321.492,-868.6305 312.613,-874.411 323.1588,-875.4292 321.492,-868.6305"/>
</g>
<!-- Node25 -->
<g id="node19" class="node">
<title>Node25</title>
<g id="a_node19"><a xlink:href="classAbs.html" target="_top" xlink:title="Final specialization of AbstractFunc, the abs function. ">
<polygon fill="#ffffff" stroke="#000000" points="411.5,-798.5 411.5,-817.5 445.5,-817.5 445.5,-798.5 411.5,-798.5"/>
<text text-anchor="middle" x="428.5" y="-805.5" font-family="Helvetica,sans-Serif" font-size="10.00" fill="#000000">Abs</text>
</a>
</g>
</g>
<!-- Node24&#45;&gt;Node25 -->
<g id="edge18" class="edge">
<title>Node24&#45;&gt;Node25</title>
<path fill="none" stroke="#191970" d="M277.4495,-523.811C289.4135,-581.9742 326.8434,-750.5694 366,-789 378.141,-800.9159 397.5119,-805.391 411.4719,-807.054"/>
<polygon fill="#191970" stroke="#191970" points="280.8212,-522.8267 275.4033,-513.722 273.9609,-524.2182 280.8212,-522.8267"/>
</g>
<!-- Node26 -->
<g id="node20" class="node">
<title>Node26</title>
<g id="a_node20"><a xlink:href="classACos.html" target="_top" xlink:title="Final specialization of AbstractFunc, the acos function. ">
<polygon fill="#ffffff" stroke="#000000" points="408,-760.5 408,-779.5 449,-779.5 449,-760.5 408,-760.5"/>
<text text-anchor="middle" x="428.5" y="-767.5" font-family="Helvetica,sans-Serif" font-size="10.00" fill="#000000">ACos</text>
</a>
</g>
</g>
<!-- Node24&#45;&gt;Node26 -->
<g id="edge19" class="edge">
<title>Node24&#45;&gt;Node26</title>
<path fill="none" stroke="#191970" d="M275.0861,-523.6639C279.8984,-570.1364 298.4549,-687.5946 366,-751 377.3281,-761.6338 394.4311,-766.3276 407.8838,-768.3936"/>
<polygon fill="#191970" stroke="#191970" points="278.5692,-523.3185 274.1563,-513.6864 271.5994,-523.968 278.5692,-523.3185"/>
</g>
<!-- Node27 -->
<g id="node21" class="node">
<title>Node27</title>
<g id="a_node21"><a xlink:href="classACosh.html" target="_top" xlink:title="Final specialization of AbstractFunc, the acosh function. ">
<polygon fill="#ffffff" stroke="#000000" points="405,-722.5 405,-741.5 452,-741.5 452,-722.5 405,-722.5"/>
<text text-anchor="middle" x="428.5" y="-729.5" font-family="Helvetica,sans-Serif" font-size="10.00" fill="#000000">ACosh</text>
</a>
</g>
</g>
<!-- Node24&#45;&gt;Node27 -->
<g id="edge20" class="edge">
<title>Node24&#45;&gt;Node27</title>
<path fill="none" stroke="#191970" d="M276.5982,-523.655C284.1424,-564.9256 307.3412,-661.0703 366,-713 376.6994,-722.472 392.0071,-727.2227 404.7949,-729.6051"/>
<polygon fill="#191970" stroke="#191970" points="280.0059,-522.8182 274.869,-513.552 273.1063,-523.9992 280.0059,-522.8182"/>
</g>
<!-- Node28 -->
<g id="node22" class="node">
<title>Node28</title>
<g id="a_node22"><a xlink:href="classASin.html" target="_top" xlink:title="Final specialization of AbstractFunc, the asin function. ">
<polygon fill="#ffffff" stroke="#000000" points="409.5,-684.5 409.5,-703.5 447.5,-703.5 447.5,-684.5 409.5,-684.5"/>
<text text-anchor="middle" x="428.5" y="-691.5" font-family="Helvetica,sans-Serif" font-size="10.00" fill="#000000">ASin</text>
</a>
</g>
</g>
<!-- Node24&#45;&gt;Node28 -->
<g id="edge21" class="edge">
<title>Node24&#45;&gt;Node28</title>
<path fill="none" stroke="#191970" d="M278.6704,-523.4636C289.0959,-558.9269 316.0192,-634.1649 366,-675 378.3833,-685.1173 396.0856,-689.8536 409.4911,-692.0673"/>
<polygon fill="#191970" stroke="#191970" points="282.0341,-522.4957 275.9573,-513.8168 275.2955,-524.3909 282.0341,-522.4957"/>
</g>
<!-- Node29 -->
<g id="node23" class="node">
<title>Node29</title>
<g id="a_node23"><a xlink:href="classASinh.html" target="_top" xlink:title="Final specialization of AbstractFunc, the asinh function. ">
<polygon fill="#ffffff" stroke="#000000" points="407,-646.5 407,-665.5 450,-665.5 450,-646.5 407,-646.5"/>
<text text-anchor="middle" x="428.5" y="-653.5" font-family="Helvetica,sans-Serif" font-size="10.00" fill="#000000">ASinh</text>
</a>
</g>
</g>
<!-- Node24&#45;&gt;Node29 -->
<g id="edge22" class="edge">
<title>Node24&#45;&gt;Node29</title>
<path fill="none" stroke="#191970" d="M281.7159,-523.0885C295.1338,-552.0173 324.4799,-606.7834 366,-637 378.0124,-645.7421 394.0969,-650.5125 406.9404,-653.0868"/>
<polygon fill="#191970" stroke="#191970" points="284.7872,-521.3837 277.5001,-513.6929 278.4006,-524.2494 284.7872,-521.3837"/>
</g>
<!-- Node30 -->
<g id="node24" class="node">
<title>Node30</title>
<g id="a_node24"><a xlink:href="classATan.html" target="_top" xlink:title="Final specialization of AbstractFunc, the atan function. ">
<polygon fill="#ffffff" stroke="#000000" points="408.5,-608.5 408.5,-627.5 448.5,-627.5 448.5,-608.5 408.5,-608.5"/>
<text text-anchor="middle" x="428.5" y="-615.5" font-family="Helvetica,sans-Serif" font-size="10.00" fill="#000000">ATan</text>
</a>
</g>
</g>
<!-- Node24&#45;&gt;Node30 -->
<g id="edge23" class="edge">
<title>Node24&#45;&gt;Node30</title>
<path fill="none" stroke="#191970" d="M286.3079,-521.8346C302.5327,-543.1738 332.4519,-578.5731 366,-599 378.9801,-606.9034 395.4959,-611.7387 408.2895,-614.5523"/>
<polygon fill="#191970" stroke="#191970" points="288.9925,-519.579 280.2223,-513.6347 283.3714,-523.7508 288.9925,-519.579"/>
</g>
<!-- Node31 -->
<g id="node25" class="node">
<title>Node31</title>
<g id="a_node25"><a xlink:href="classATanh.html" target="_top" xlink:title="Final specialization of AbstractFunc, the atanh function. ">
<polygon fill="#ffffff" stroke="#000000" points="406,-570.5 406,-589.5 451,-589.5 451,-570.5 406,-570.5"/>
<text text-anchor="middle" x="428.5" y="-577.5" font-family="Helvetica,sans-Serif" font-size="10.00" fill="#000000">ATanh</text>
</a>
</g>
</g>
<!-- Node24&#45;&gt;Node31 -->
<g id="edge24" class="edge">
<title>Node24&#45;&gt;Node31</title>
<path fill="none" stroke="#191970" d="M295.3469,-519.7028C313.5487,-532.2246 340.5214,-549.509 366,-561 378.716,-566.735 393.6409,-571.3452 405.7165,-574.5875"/>
<polygon fill="#191970" stroke="#191970" points="296.8834,-516.5064 286.6824,-513.6447 292.8723,-522.2433 296.8834,-516.5064"/>
</g>
<!-- Node32 -->
<g id="node26" class="node">
<title>Node32</title>
<g id="a_node26"><a xlink:href="classCos.html" target="_top" xlink:title="Final specialization of AbstractFunc, the cos function. ">
<polygon fill="#ffffff" stroke="#000000" points="411,-532.5 411,-551.5 446,-551.5 446,-532.5 411,-532.5"/>
<text text-anchor="middle" x="428.5" y="-539.5" font-family="Helvetica,sans-Serif" font-size="10.00" fill="#000000">Cos</text>
</a>
</g>
</g>
<!-- Node24&#45;&gt;Node32 -->
<g id="edge25" class="edge">
<title>Node24&#45;&gt;Node32</title>
<path fill="none" stroke="#191970" d="M321.0318,-515.653C351.4741,-523.1162 389.2086,-532.3673 410.9034,-537.686"/>
<polygon fill="#191970" stroke="#191970" points="321.567,-512.1806 311.0212,-513.1987 319.9002,-518.9792 321.567,-512.1806"/>
</g>
<!-- Node33 -->
<g id="node27" class="node">
<title>Node33</title>
<g id="a_node27"><a xlink:href="classCosh.html" target="_top" xlink:title="Final specialization of AbstractFunc, the cosh function. ">
<polygon fill="#ffffff" stroke="#000000" points="408.5,-494.5 408.5,-513.5 448.5,-513.5 448.5,-494.5 408.5,-494.5"/>
<text text-anchor="middle" x="428.5" y="-501.5" font-family="Helvetica,sans-Serif" font-size="10.00" fill="#000000">Cosh</text>
</a>
</g>
</g>
<!-- Node24&#45;&gt;Node33 -->
<g id="edge26" class="edge">
<title>Node24&#45;&gt;Node33</title>
<path fill="none" stroke="#191970" d="M321.0655,-504C350.3531,-504 386.38,-504 408.3805,-504"/>
<polygon fill="#191970" stroke="#191970" points="321.0212,-500.5001 311.0212,-504 321.0211,-507.5001 321.0212,-500.5001"/>
</g>
<!-- Node34 -->
<g id="node28" class="node">
<title>Node34</title>
<g id="a_node28"><a xlink:href="classExp.html" target="_top" xlink:title="Final specialization of AbstractFunc, the exponential function. ">
<polygon fill="#ffffff" stroke="#000000" points="411.5,-456.5 411.5,-475.5 445.5,-475.5 445.5,-456.5 411.5,-456.5"/>
<text text-anchor="middle" x="428.5" y="-463.5" font-family="Helvetica,sans-Serif" font-size="10.00" fill="#000000">Exp</text>
</a>
</g>
</g>
<!-- Node24&#45;&gt;Node34 -->
<g id="edge27" class="edge">
<title>Node24&#45;&gt;Node34</title>
<path fill="none" stroke="#191970" d="M321.0902,-492.3327C351.7138,-484.825 389.6972,-475.5129 411.3107,-470.2141"/>
<polygon fill="#191970" stroke="#191970" points="319.9002,-489.0208 311.0212,-494.8013 321.567,-495.8194 319.9002,-489.0208"/>
</g>
<!-- Node35 -->
<g id="node29" class="node">
<title>Node35</title>
<g id="a_node29"><a xlink:href="classFactorial.html" target="_top" xlink:title="Final specialization of AbstractFunc, the factorial function. ">
<polygon fill="#ffffff" stroke="#000000" points="401.5,-418.5 401.5,-437.5 455.5,-437.5 455.5,-418.5 401.5,-418.5"/>
<text text-anchor="middle" x="428.5" y="-425.5" font-family="Helvetica,sans-Serif" font-size="10.00" fill="#000000">Factorial</text>
</a>
</g>
</g>
<!-- Node24&#45;&gt;Node35 -->
<g id="edge28" class="edge">
<title>Node24&#45;&gt;Node35</title>
<path fill="none" stroke="#191970" d="M295.3469,-488.2972C313.5487,-475.7754 340.5214,-458.491 366,-447 377.2687,-441.9178 390.2719,-437.7189 401.4898,-434.5725"/>
<polygon fill="#191970" stroke="#191970" points="292.8723,-485.7567 286.6824,-494.3553 296.8834,-491.4936 292.8723,-485.7567"/>
</g>
<!-- Node36 -->
<g id="node30" class="node">
<title>Node36</title>
<g id="a_node30"><a xlink:href="classLog.html" target="_top" xlink:title="Final specialization of AbstractFunc, the logarithm function. ">
<polygon fill="#ffffff" stroke="#000000" points="412.5,-380.5 412.5,-399.5 444.5,-399.5 444.5,-380.5 412.5,-380.5"/>
<text text-anchor="middle" x="428.5" y="-387.5" font-family="Helvetica,sans-Serif" font-size="10.00" fill="#000000">Log</text>
</a>
</g>
</g>
<!-- Node24&#45;&gt;Node36 -->
<g id="edge29" class="edge">
<title>Node24&#45;&gt;Node36</title>
<path fill="none" stroke="#191970" d="M286.3079,-486.1654C302.5327,-464.8262 332.4519,-429.4269 366,-409 380.4331,-400.2119 399.2377,-395.2172 412.4357,-392.5773"/>
<polygon fill="#191970" stroke="#191970" points="283.3714,-484.2492 280.2223,-494.3653 288.9925,-488.421 283.3714,-484.2492"/>
</g>
<!-- Node37 -->
<g id="node31" class="node">
<title>Node37</title>
<g id="a_node31"><a xlink:href="classSin.html" target="_top" xlink:title="Final specialization of AbstractFunc, the sin function. ">
<polygon fill="#ffffff" stroke="#000000" points="413,-342.5 413,-361.5 444,-361.5 444,-342.5 413,-342.5"/>
<text text-anchor="middle" x="428.5" y="-349.5" font-family="Helvetica,sans-Serif" font-size="10.00" fill="#000000">Sin</text>
</a>
</g>
</g>
<!-- Node24&#45;&gt;Node37 -->
<g id="edge30" class="edge">
<title>Node24&#45;&gt;Node37</title>
<path fill="none" stroke="#191970" d="M281.7159,-484.9115C295.1338,-455.9827 324.4799,-401.2166 366,-371 379.938,-360.8565 399.3584,-356.0601 412.837,-353.8372"/>
<polygon fill="#191970" stroke="#191970" points="278.4006,-483.7506 277.5001,-494.3071 284.7872,-486.6163 278.4006,-483.7506"/>
</g>
<!-- Node38 -->
<g id="node32" class="node">
<title>Node38</title>
<g id="a_node32"><a xlink:href="classSinh.html" target="_top" xlink:title="Final specialization of AbstractFunc, the sinh function. ">
<polygon fill="#ffffff" stroke="#000000" points="410.5,-304.5 410.5,-323.5 446.5,-323.5 446.5,-304.5 410.5,-304.5"/>
<text text-anchor="middle" x="428.5" y="-311.5" font-family="Helvetica,sans-Serif" font-size="10.00" fill="#000000">Sinh</text>
</a>
</g>
</g>
<!-- Node24&#45;&gt;Node38 -->
<g id="edge31" class="edge">
<title>Node24&#45;&gt;Node38</title>
<path fill="none" stroke="#191970" d="M278.6704,-484.5364C289.0959,-449.0731 316.0192,-373.8351 366,-333 378.6468,-322.6674 396.8413,-317.9473 410.3409,-315.7949"/>
<polygon fill="#191970" stroke="#191970" points="275.2955,-483.6091 275.9573,-494.1832 282.0341,-485.5043 275.2955,-483.6091"/>
</g>
<!-- Node39 -->
<g id="node33" class="node">
<title>Node39</title>
<g id="a_node33"><a xlink:href="classTan.html" target="_top" xlink:title="Final specialization of AbstractFunc, the tan function. ">
<polygon fill="#ffffff" stroke="#000000" points="412,-266.5 412,-285.5 445,-285.5 445,-266.5 412,-266.5"/>
<text text-anchor="middle" x="428.5" y="-273.5" font-family="Helvetica,sans-Serif" font-size="10.00" fill="#000000">Tan</text>
</a>
</g>
</g>
<!-- Node24&#45;&gt;Node39 -->
<g id="edge32" class="edge">
<title>Node24&#45;&gt;Node39</title>
<path fill="none" stroke="#191970" d="M276.5982,-484.345C284.1424,-443.0744 307.3412,-346.9297 366,-295 378.7373,-283.7238 398.0058,-279.1388 411.7787,-277.2751"/>
<polygon fill="#191970" stroke="#191970" points="273.1063,-484.0008 274.869,-494.448 280.0059,-485.1818 273.1063,-484.0008"/>
</g>
<!-- Node40 -->
<g id="node34" class="node">
<title>Node40</title>
<g id="a_node34"><a xlink:href="classTanh.html" target="_top" xlink:title="Final specialization of AbstractFunc, the tanh function. ">
<polygon fill="#ffffff" stroke="#000000" points="409.5,-228.5 409.5,-247.5 447.5,-247.5 447.5,-228.5 409.5,-228.5"/>
<text text-anchor="middle" x="428.5" y="-235.5" font-family="Helvetica,sans-Serif" font-size="10.00" fill="#000000">Tanh</text>
</a>
</g>
</g>
<!-- Node24&#45;&gt;Node40 -->
<g id="edge33" class="edge">
<title>Node24&#45;&gt;Node40</title>
<path fill="none" stroke="#191970" d="M275.0861,-484.3361C279.8984,-437.8636 298.4549,-320.4054 366,-257 377.7415,-245.9781 395.6872,-241.3377 409.3417,-239.3906"/>
<polygon fill="#191970" stroke="#191970" points="271.5994,-484.032 274.1563,-494.3136 278.5692,-484.6815 271.5994,-484.032"/>
</g>
<!-- Node42 -->
<g id="node36" class="node">
<title>Node42</title>
<g id="a_node36"><a xlink:href="classITensor.html" target="_top" xlink:title="ITensor">
<polygon fill="#ffffff" stroke="#000000" points="403.5,-190.5 403.5,-209.5 453.5,-209.5 453.5,-190.5 403.5,-190.5"/>
<text text-anchor="middle" x="428.5" y="-197.5" font-family="Helvetica,sans-Serif" font-size="10.00" fill="#000000">ITensor</text>
</a>
</g>
</g>
<!-- Node41&#45;&gt;Node42 -->
<g id="edge35" class="edge">
<title>Node41&#45;&gt;Node42</title>
<path fill="none" stroke="#191970" d="M325.9734,-200C352.0244,-200 382.3018,-200 403.1651,-200"/>
<polygon fill="#191970" stroke="#191970" points="325.8545,-196.5001 315.8544,-200 325.8544,-203.5001 325.8545,-196.5001"/>
</g>
<!-- Node43 -->
<g id="node37" class="node">
<title>Node43</title>
<g id="a_node37"><a xlink:href="classITerm.html" target="_top" xlink:title="ITerm">
<polygon fill="#ffffff" stroke="#000000" points="407.5,-152.5 407.5,-171.5 449.5,-171.5 449.5,-152.5 407.5,-152.5"/>
<text text-anchor="middle" x="428.5" y="-159.5" font-family="Helvetica,sans-Serif" font-size="10.00" fill="#000000">ITerm</text>
</a>
</g>
</g>
<!-- Node41&#45;&gt;Node43 -->
<g id="edge36" class="edge">
<title>Node41&#45;&gt;Node43</title>
<path fill="none" stroke="#191970" d="M322.4016,-188.0112C350.868,-181.0324 385.3218,-172.5856 407.0802,-167.2513"/>
<polygon fill="#191970" stroke="#191970" points="321.492,-184.6305 312.613,-190.411 323.1588,-191.4292 321.492,-184.6305"/>
</g>
<!-- Node45 -->
<g id="node39" class="node">
<title>Node45</title>
<g id="a_node39"><a xlink:href="classPlus.html" target="_top" xlink:title="Handles a sum, function of multiple arguments. ">
<polygon fill="#ffffff" stroke="#000000" points="410.5,-114.5 410.5,-133.5 446.5,-133.5 446.5,-114.5 410.5,-114.5"/>
<text text-anchor="middle" x="428.5" y="-121.5" font-family="Helvetica,sans-Serif" font-size="10.00" fill="#000000">Plus</text>
</a>
</g>
</g>
<!-- Node44&#45;&gt;Node45 -->
<g id="edge38" class="edge">
<title>Node44&#45;&gt;Node45</title>
<path fill="none" stroke="#191970" d="M331.7676,-124C359.6253,-124 391.0221,-124 410.2852,-124"/>
<polygon fill="#191970" stroke="#191970" points="331.6934,-120.5001 321.6933,-124 331.6933,-127.5001 331.6934,-120.5001"/>
</g>
<!-- Node46 -->
<g id="node40" class="node">
<title>Node46</title>
<g id="a_node40"><a xlink:href="classPolynomial.html" target="_top" xlink:title="Handles a polynomial, function of multiple arguments. ">
<polygon fill="#ffffff" stroke="#000000" points="396,-76.5 396,-95.5 461,-95.5 461,-76.5 396,-76.5"/>
<text text-anchor="middle" x="428.5" y="-83.5" font-family="Helvetica,sans-Serif" font-size="10.00" fill="#000000">Polynomial</text>
</a>
</g>
</g>
<!-- Node44&#45;&gt;Node46 -->
<g id="edge39" class="edge">
<title>Node44&#45;&gt;Node46</title>
<path fill="none" stroke="#191970" d="M322.587,-111.9658C346.5354,-106.0946 374.685,-99.1934 395.942,-93.982"/>
<polygon fill="#191970" stroke="#191970" points="321.492,-108.6305 312.613,-114.411 323.1588,-115.4292 321.492,-108.6305"/>
</g>
<!-- Node47 -->
<g id="node41" class="node">
<title>Node47</title>
<g id="a_node41"><a xlink:href="classTimes.html" target="_top" xlink:title="Handles a product, function of multiple arguments. ">
<polygon fill="#ffffff" stroke="#000000" points="406.5,-38.5 406.5,-57.5 450.5,-57.5 450.5,-38.5 406.5,-38.5"/>
<text text-anchor="middle" x="428.5" y="-45.5" font-family="Helvetica,sans-Serif" font-size="10.00" fill="#000000">Times</text>
</a>
</g>
</g>
<!-- Node44&#45;&gt;Node47 -->
<g id="edge40" class="edge">
<title>Node44&#45;&gt;Node47</title>
<path fill="none" stroke="#191970" d="M319.9697,-110.4819C323.4628,-108.8352 326.8493,-107.0124 330,-105 349.6063,-92.4769 346.2125,-79.2347 366,-67 378.2505,-59.4255 393.728,-54.6902 406.2158,-51.8413"/>
<polygon fill="#191970" stroke="#191970" points="318.424,-107.3349 310.5631,-114.4383 321.138,-113.7874 318.424,-107.3349"/>
</g>
<!-- Node48 -->
<g id="node42" class="node">
<title>Node48</title>
<g id="a_node42"><a xlink:href="classITimes.html" target="_top" xlink:title="ITimes">
<polygon fill="#ffffff" stroke="#000000" points="534.5,-38.5 534.5,-57.5 581.5,-57.5 581.5,-38.5 534.5,-38.5"/>
<text text-anchor="middle" x="558" y="-45.5" font-family="Helvetica,sans-Serif" font-size="10.00" fill="#000000">ITimes</text>
</a>
</g>
</g>
<!-- Node47&#45;&gt;Node48 -->
<g id="edge41" class="edge">
<title>Node47&#45;&gt;Node48</title>
<path fill="none" stroke="#191970" d="M460.983,-48C483.7686,-48 513.7158,-48 534.2771,-48"/>
<polygon fill="#191970" stroke="#191970" points="460.7619,-44.5001 450.7618,-48 460.7618,-51.5001 460.7619,-44.5001"/>
</g>
<!-- Node50 -->
<g id="node44" class="node">
<title>Node50</title>
<g id="a_node44"><a xlink:href="classHighDTensor.html" target="_top" xlink:title="HighDTensor">
<polygon fill="#ffffff" stroke="#000000" points="236.5,-76.5 236.5,-95.5 310.5,-95.5 310.5,-76.5 236.5,-76.5"/>
<text text-anchor="middle" x="273.5" y="-83.5" font-family="Helvetica,sans-Serif" font-size="10.00" fill="#000000">HighDTensor</text>
</a>
</g>
</g>
<!-- Node49&#45;&gt;Node50 -->
<g id="edge43" class="edge">
<title>Node49&#45;&gt;Node50</title>
<path fill="none" stroke="#191970" d="M191.4202,-74.74C206.5496,-76.8155 222.5257,-79.0071 236.3219,-80.8998"/>
<polygon fill="#191970" stroke="#191970" points="191.5014,-71.2184 181.1185,-73.3267 190.55,-78.1534 191.5014,-71.2184"/>
</g>
<!-- Node51 -->
<g id="node45" class="node">
<title>Node51</title>
<g id="a_node45"><a xlink:href="classMatrix.html" target="_top" xlink:title="Matrix">
<polygon fill="#ffffff" stroke="#000000" points="251.5,-38.5 251.5,-57.5 295.5,-57.5 295.5,-38.5 251.5,-38.5"/>
<text text-anchor="middle" x="273.5" y="-45.5" font-family="Helvetica,sans-Serif" font-size="10.00" fill="#000000">Matrix</text>
</a>
</g>
</g>
<!-- Node49&#45;&gt;Node51 -->
<g id="edge44" class="edge">
<title>Node49&#45;&gt;Node51</title>
<path fill="none" stroke="#191970" d="M191.2824,-59.2789C212.3309,-56.3914 235.0368,-53.2765 251.2428,-51.0533"/>
<polygon fill="#191970" stroke="#191970" points="190.55,-55.8466 181.1185,-60.6733 191.5014,-62.7816 190.55,-55.8466"/>
</g>
<!-- Node52 -->
<g id="node46" class="node">
<title>Node52</title>
<g id="a_node46"><a xlink:href="classVector.html" target="_top" xlink:title="Vector">
<polygon fill="#ffffff" stroke="#000000" points="251,-.5 251,-19.5 296,-19.5 296,-.5 251,-.5"/>
<text text-anchor="middle" x="273.5" y="-7.5" font-family="Helvetica,sans-Serif" font-size="10.00" fill="#000000">Vector</text>
</a>
</g>
</g>
<!-- Node49&#45;&gt;Node52 -->
<g id="edge45" class="edge">
<title>Node49&#45;&gt;Node52</title>
<path fill="none" stroke="#191970" d="M163.1105,-53.0438C178.7877,-45.4969 198.7732,-36.2626 217,-29 227.9596,-24.633 240.3625,-20.3876 250.7498,-17.0215"/>
<polygon fill="#191970" stroke="#191970" points="161.4236,-49.9722 153.9602,-57.492 164.4841,-56.2677 161.4236,-49.9722"/>
</g>
</g>
</svg>
